<?xml version="1.0" standalone="no"?>
<!DOCTYPE svg PUBLIC "-//W3C//DTD SVG 1.1//EN" "http://www.w3.org/Graphics/SVG/1.1/DTD/svg11.dtd" >
<svg xmlns="http://www.w3.org/2000/svg">
<metadata></metadata>
<defs>
<font id="deutsche_normalschriftregular" horiz-adv-x="1651" >
<font-face units-per-em="2048" ascent="1638" descent="-410" />
<missing-glyph horiz-adv-x="754" />
<glyph unicode="&#xd;" horiz-adv-x="2048" />
<glyph unicode=" "  horiz-adv-x="754" />
<glyph unicode="&#x09;" horiz-adv-x="754" />
<glyph unicode="&#xa0;" horiz-adv-x="754" />
<glyph unicode="!" horiz-adv-x="450" d="M234 139l-25 -144q-7 -28 -35 -25q-31 4 -25 34l25 146q8 32 37 24q30 -4 23 -35zM502 1439l-218 -1051q-8 -30 -37 -23q-28 7 -23 37l218 1050q7 28 35 25q28 -9 25 -38z" />
<glyph unicode="&#x22;" horiz-adv-x="249" d="M471 1439l-58 -328q-6 -29 -36 -25q-29 3 -25 36l58 328q5 28 36 25q28 -8 25 -36zM354 1439l-58 -328q-4 -29 -35 -25q-30 3 -25 36l58 328q3 28 35 25q28 -7 25 -36z" />
<glyph unicode="#" horiz-adv-x="653" d="M77 444h71l60 95h-97q-29 0 -29 29q0 31 29 31h135l95 150q13 27 41 9q26 -14 9 -41l-75 -118h131l95 150q13 27 41 9q26 -14 9 -41l-75 -118h70q31 0 31 -31q0 -29 -31 -29h-108l-60 -95h134q31 0 31 -31q0 -29 -31 -29h-172l-83 -132q-14 -25 -42 -11q-26 18 -8 43 l63 100h-131l-83 -132q-14 -25 -42 -11q-26 18 -8 43l63 100h-33q-29 0 -29 29q0 31 29 31zM218 444h131l60 95h-131z" />
<glyph unicode="$" horiz-adv-x="616" d="M380 827q114 -96 149 -187t17 -169q-24 -102 -120 -168q-94 -64 -198 -60h-2l-49 -239q-10 -28 -36 -22q-29 8 -25 35l50 236q-122 31 -166 164q-6 31 21 38q29 12 37 -19q33 -99 121 -122l108 515q-150 146 -127 280q10 81 75 128.5t145 39.5l40 191q6 28 35 25 q28 -8 25 -37l-42 -193q95 -38 137 -154q12 -28 -18 -39q-29 -12 -40 18q-30 83 -91 115l-73 -353q4 -5 27 -23zM301 901l67 316q-54 3 -97 -29.5t-51 -86.5q-14 -93 81 -200zM339 781l-100 -478q81 0 151 50q78 53 96 133q36 142 -145 293z" />
<glyph unicode="%" horiz-adv-x="1029" d="M335 1303q17 5 31 6t28 -1q55 -7 85 -64q22 -45 25 -106q1 -21 -0.5 -44.5t-4.5 -46t-7 -42t-8 -34.5q-8 -23 -19 -48.5t-24 -50.5t-29 -48.5t-35 -42.5q-69 -72 -153 -72q-23 0 -48 7q-26 8 -49 27t-37 48q-22 49 -22 110q0 55 15 105q12 45 41 95.5t64 95.5 q70 84 146 106h1zM141 991q-6 -21 -9.5 -43.5t-3.5 -46.5q0 -53 16 -84q17 -35 50 -45q6 -2 14 -3t16 -1q57 0 109 55q32 35 55 81.5t38 85.5q8 26 14 65.5t4 79.5q-3 52 -18 82v-1q-17 29 -41 32q-16 3 -35 -3q-31 -9 -60.5 -32t-55.5 -55q-34 -39 -58 -84t-35 -84v1z M891 1318l-696 -1340q-18 -31 -42 -13q-25 14 -13 39l695 1343q16 24 44 13q25 -16 12 -42zM769 579q17 5 31 6t28 -1q55 -7 85 -64q22 -45 25 -106q1 -21 -0.5 -44.5t-4.5 -46t-7 -42t-8 -34.5q-8 -23 -19 -48.5t-24 -50.5t-29 -48.5t-35 -42.5q-69 -72 -153 -72 q-23 0 -48 7q-26 8 -49 27t-37 48q-22 49 -22 110q0 55 15 105q12 45 41 95.5t64 95.5q70 84 146 106h1zM575 267q-6 -21 -9.5 -43.5t-3.5 -46.5q0 -53 16 -84q17 -35 50 -45q6 -2 14 -3t16 -1q57 0 109 55q32 35 55 81.5t38 85.5q8 26 14 65.5t4 79.5q-3 52 -18 82v-1 q-17 29 -41 32q-16 3 -35 -3q-31 -9 -60.5 -32t-55.5 -55q-34 -39 -58 -84t-35 -84v1z" />
<glyph unicode="&#x26;" horiz-adv-x="1164" d="M650 199q-75 -85 -158 -139q-86 -59 -166 -80q-113 -25 -195 22q-88 49 -121 170q-18 76 -6.5 162.5t56.5 161.5q48 79 123 154q64 65 153 133q15 12 36 29t43 35q-4 30 -6 42q-11 67 -14 135q-3 167 58 264q56 90 143 106q8 2 23 2h2q42 0 73 -17q46 -26 64 -77 q21 -51 2 -118q-24 -96 -112 -195q-52 -62 -122 -125q-12 -11 -22.5 -20.5t-19.5 -18.5q25 -123 71 -254q47 -140 110 -257q42 54 80 112t75 118q34 53 71 108q15 23 44 9q21 -20 8 -44q-18 -25 -35.5 -52t-35.5 -54q-42 -66 -85 -131t-89 -125q4 -10 21 -35q25 -41 37 -56 q64 -88 129 -120q37 -18 64 -9q28 5 50 42q39 57 48 185q3 29 33 29q29 -4 29 -33q-12 -142 -58 -214q-31 -50 -87 -68q-53 -12 -106 15q-71 30 -152 136q-20 27 -39 62q-9 8 -11 17zM623 262q-38 65 -69 138.5t-58 149.5q-21 56 -36.5 114.5t-29.5 116.5q-16 -15 -30 -26 t-26 -20q-39 -31 -77 -63t-71 -65q-78 -80 -114 -142q-79 -135 -41 -278q25 -96 91 -133q57 -36 150 -15q67 18 147 71q74 49 145 129q15 17 19 23zM469 895q10 8 15 15q60 54 118 118q81 97 100 170q11 49 -2 84q-9 30 -35 43q-24 11 -42 11h-2q-3 0 -6.5 -1.5t-7.5 -1.5 q-61 -11 -102 -78q-53 -86 -50 -229q3 -68 14 -127v-4z" />
<glyph unicode="'" horiz-adv-x="249" d="M412 1439l-58 -328q-6 -29 -36 -25q-29 3 -25 36l58 328q5 28 36 25q28 -8 25 -36z" />
<glyph unicode="(" horiz-adv-x="569" d="M50 -576q-103 529 6 1050q112 509 413 1005q19 24 44 10q29 -16 10 -41q-300 -493 -407 -989q-107 -507 -6 -1025q6 -27 -25 -35q-28 -8 -35 25z" />
<glyph unicode=")" horiz-adv-x="610" d="M476 1468q105 -523 -7 -1051q-105 -495 -413 -1004q-16 -26 -41 -10q-24 14 -11 41q146 242 249 488.5t156 497.5q109 516 6 1026q-4 29 25 37q32 3 36 -25z" />
<glyph unicode="*" horiz-adv-x="249" d="M188 1394l131 -113l32 169q5 28 36 25q28 -8 25 -36l-32 -171l163 57q26 10 39 -19q7 -28 -18 -39l-163 -57l129 -111q22 -20 4 -44t-44 -4l-130 112l-32 -168q-6 -29 -36 -25q-29 3 -25 36l32 169l-162 -56q-28 -10 -40 18q-12 27 19 40l163 56l-131 114q-22 18 -4 43 q21 21 44 4z" />
<glyph unicode="+" horiz-adv-x="562" d="M177 281l52 193h-200q-29 0 -29 29q0 31 29 31h216l56 207q8 30 38 22q28 -8 20 -38l-52 -191h198q31 0 31 -31q0 -29 -31 -29h-214l-56 -209q-8 -28 -36 -20q-30 8 -22 36z" />
<glyph unicode="," horiz-adv-x="367" d="M358 183l-58 -327q-4 -28 -35 -25q-29 8 -25 35l58 327q3 28 35 25q28 -7 25 -35z" />
<glyph unicode="-" horiz-adv-x="562" d="M29 534h476q31 0 31 -31q0 -29 -31 -29h-476q-29 0 -29 29q0 31 29 31z" />
<glyph unicode="." horiz-adv-x="323" d="M313 183l-25 -148q-8 -30 -35 -23q-30 5 -25 36l25 145q6 28 37 25q29 -8 23 -35z" />
<glyph unicode="/" horiz-adv-x="894" d="M1090 1470l-982 -1441q-21 -28 -43 -8q-23 17 -8 41l981 1443q18 22 45 8q23 -19 7 -43z" />
<glyph unicode="0" horiz-adv-x="885" d="M528 1136q58 15 110 8q99 -12 153 -114q41 -83 48 -207q4 -93 -8.5 -183t-32.5 -150q-32 -93 -85.5 -198t-128.5 -184q-132 -138 -293 -138q-47 0 -87 12h-3q-104 29 -159 138q-42 88 -42 214q0 118 29 210q26 89 81.5 191t130.5 191q137 165 287 210zM89 528 q-29 -96 -29 -194q0 -111 38 -187q41 -85 120 -108h2q35 -10 71 -10q131 0 249 121q72 74 120.5 173t78.5 186q18 56 30.5 140.5t9.5 170.5q-7 111 -42 183q-42 73 -108 81q-39 6 -85 -8q-69 -19 -134.5 -70t-120.5 -119q-72 -84 -123.5 -180.5t-76.5 -178.5z" />
<glyph unicode="1" horiz-adv-x="486" d="M453 1057l-287 -1064q-8 -30 -37 -23t-21 36l260 970l-318 -274q-21 -20 -44 2q-16 23 4 44l393 338q8 13 29 9q31 -10 21 -38z" />
<glyph unicode="2" horiz-adv-x="870" d="M455 27q-108 51 -208 42q-97 -10 -199 -78v-2h-2l-2 -3h-2q-3 0 -3 -1v-1h-18l-2 2h-2l-2 3h-3v2h-2v2h-2l-2 2v2h-2v2l-2 1v2l-2 1v20l2 2v4h2v2h2v2l2 2l590 594q103 106 131 206q22 69 2 123q-16 50 -62 78q-43 27 -104 27q-25 0 -37 -2q-128 -9 -198 -85 q-65 -78 -58 -195q3 -30 -27 -33q-30 0 -33 29q-11 144 73 239q80 95 236 108h44q80 0 135 -36q67 -39 89 -110q25 -71 0 -160q-32 -115 -149 -232l-463 -470q27 9 66 13q122 9 239 -48q114 -55 181 -52q60 2 97 67q16 25 42 12q27 -16 12 -42q-52 -89 -149 -96 q-84 -5 -210 57z" />
<glyph unicode="3" horiz-adv-x="795" d="M737 411q-12 -151 -80.5 -251t-160.5 -150q-84 -44 -170 -48q-87 -7 -162 27q-147 63 -164 233q-1 33 27 33q29 5 33 -27q15 -131 129 -184q53 -27 133 -23q82 6 143 43q81 44 140.5 131.5t71.5 219.5v5q6 113 -48 184q-2 5 -8 11q-18 -16 -37 -29q-56 -35 -119 -48 q-71 -11 -112 6q-78 28 -75 110v7q6 54 58 76q49 25 119 19h6q89 -9 158 -56q72 89 50 216q-13 59 -58 96q-51 42 -125 49q-78 8 -145 -22q-87 -42 -131 -127q-12 -29 -40 -13q-31 13 -14 40q51 103 160 154q80 38 176 29q96 -12 158 -63q62 -52 77 -133q31 -156 -62 -268 q4 -6 14 -16q69 -94 58 -227v-4zM339 654q0 -41 35 -52q36 -13 79 -4q51 9 97 40q9 4 25 16q-49 36 -120 42h-4q-56 3 -88 -13q-11 -5 -24 -29z" />
<glyph unicode="4" horiz-adv-x="765" d="M417 1080l-340 -735h311l129 586q3 29 36 24q30 -8 22 -37l-122 -573h247q29 0 29 -31q0 -32 -29 -32h-262l-62 -289q-8 -30 -37 -23q-31 8 -23 36l60 276h-347q-29 0 -29 32q0 10 2 14l359 779q15 25 42 15q27 -18 14 -42z" />
<glyph unicode="5" horiz-adv-x="820" d="M318 39q115 0 218 131q57 73 99.5 171t66.5 201q6 25 10 75q7 82 -24 141q-35 57 -102 73q-20 6 -40 6q-105 5 -191 -48q-82 -48 -166 -155v-3h-2v-2q-5 -5 -13 -8h-12q-8 0 -10 2h-2v2h-3l-2 2h-2v2q-4 5 -8 13v8h-2l1 1q1 1 1 3v7l131 440q3 23 29 23h453q29 0 29 -31 q0 -30 -29 -30h-430l-85 -290q39 36 91 70q110 63 226 54q27 0 48 -6q93 -20 141 -102q42 -71 36 -176q-4 -45 -13 -85q-25 -108 -70.5 -212.5t-107.5 -182.5q-121 -155 -266 -155q-105 0 -187 32q-90 40 -129 127q-9 28 15 40q26 13 41 -15q30 -67 98 -96q60 -27 162 -27z " />
<glyph unicode="6" horiz-adv-x="848" d="M449 823q105 35 182 12q49 -15 86 -54q31 -40 49 -87q42 -128 -4 -279q-52 -164 -178 -290q-126 -125 -262 -149q-77 -14 -137 4q-76 21 -121 86q-37 50 -56 142q-26 156 19 309q36 117 93.5 229.5t141.5 198.5q153 157 363 179q29 3 33 -27q0 -29 -29 -34 q-187 -18 -322 -159q-75 -77 -127 -174.5t-84 -199.5q30 53 72 101q106 129 281 192zM60 301q0 -36 9 -81q13 -75 45 -118q33 -50 87 -65q51 -13 111 -2q115 20 228 133q117 117 162 264q43 132 6 243q-14 41 -37 64q-23 25 -58 38q-62 16 -144 -13q-157 -54 -255 -172 q-97 -116 -143 -276q-2 -6 -11 -15z" />
<glyph unicode="7" horiz-adv-x="745" d="M698 997q-16 -4 -52 -8q-79 0 -172 39q-112 44 -208 31q-95 -12 -175 -85q-23 -19 -43 2q-20 22 2 44q89 83 208 100q113 15 238 -36q91 -36 148 -33q65 0 129 48q23 19 41 -6q17 -18 0 -38l-760 -1073q-16 -26 -42 -6q-21 13 -8 41z" />
<glyph unicode="8" horiz-adv-x="753" d="M453 1124q23 0 73 -13q77 -27 122 -81q50 -65 48 -139q0 -25 -11 -58q-37 -114 -139 -170q-25 -14 -54 -23q107 -40 160 -112q62 -85 33 -200q-4 -20 -12 -43q-46 -131 -166 -223q-120 -86 -256 -92q-29 -2 -83 6q-104 23 -174 101q-73 81 -75 187q-1 42 6 75 q30 133 133 214q86 64 206 95q-17 6 -56 31q-114 80 -83 206q24 99 122 170q94 72 206 69zM376 609l-16 -4q-8 -2 -17 -3q-156 -24 -245 -97q-89 -67 -113 -179q-6 -32 -6 -60q2 -83 60 -148q59 -64 142 -83q34 -6 68 -6q117 5 220 83q103 77 146 193q3 9 6 18.5t6 19.5 q21 89 -25 149q-42 57 -133 90q-31 12 -64 18q-22 5 -29 9zM185 870q-23 -84 58 -141q52 -37 135 -58q88 17 139 46q83 44 110 135q9 18 9 41q2 52 -36 98q-38 43 -93 62q-20 6 -58 10q-83 4 -167 -56q-80 -63 -97 -137z" />
<glyph unicode="9" horiz-adv-x="841" d="M334 270q-105 -37 -180 -12q-50 13 -85 54q-35 36 -50 87q-42 123 4 278q51 166 176 291q126 126 262 149q78 16 139 -4q74 -21 121 -87q37 -55 56 -141q24 -156 -21 -310q-35 -117 -93 -230t-142 -200q-152 -155 -361 -175q-30 -3 -33 27q-4 28 27 32q185 18 324 160 q72 75 125.5 173t86.5 201q-18 -27 -35.5 -53t-37.5 -49q-108 -130 -283 -191zM723 791q0 43 -6 81q-16 77 -46 119q-34 49 -87 64q-54 13 -110 2q-120 -20 -231 -133q-115 -118 -162 -263q-42 -141 -4 -244q12 -39 37 -64q22 -26 58 -37q57 -18 144 12q155 55 253 173 q90 102 146 276q3 9 8 14z" />
<glyph unicode=":" horiz-adv-x="147" d="M137 536l-27 -146q-5 -34 -35 -24q-29 3 -25 35l27 145q3 28 35 25q28 -4 25 -35zM85 183l-25 -148q-8 -30 -35 -23q-30 5 -25 36l25 145q6 28 37 25q29 -8 23 -35z" />
<glyph unicode=";" horiz-adv-x="183" d="M168 536l-25 -146q-9 -33 -37 -24q-31 3 -23 35l25 145q6 28 35 25q32 -4 25 -35zM118 183l-58 -327q-4 -28 -35 -25q-29 8 -25 35l58 327q3 28 35 25q28 -7 25 -35z" />
<glyph unicode="&#x3c;" horiz-adv-x="572" d="M21 351l473 235q28 15 42 -13q9 -31 -15 -41l-425 -212l344 -233q24 -15 9 -44q-19 -21 -44 -8l-386 262q-9 10 -11 14q-15 29 13 40z" />
<glyph unicode="=" horiz-adv-x="641" d="M102 562h476q31 0 31 -31q0 -29 -31 -29h-476q-29 0 -29 29q0 31 29 31zM58 335h476q31 0 31 -31q0 -29 -31 -29h-476q-29 0 -29 29q0 31 29 31z" />
<glyph unicode="&#x3e;" horiz-adv-x="572" d="M517 272l-473 -235q-28 -15 -42 13q-9 31 15 41l425 212l-344 233q-24 15 -9 44q19 21 44 8l386 -262q9 -10 11 -14q15 -29 -13 -40z" />
<glyph unicode="?" horiz-adv-x="733" d="M405 850q67 49 113.5 96t71.5 92q26 48 37 89t9 79q-8 77 -71 136q-65 54 -147 59q-83 3 -149 -36t-110 -122h1q-11 -30 -39 -14q-24 13 -16 42q59 110 143 155q85 45 173 40q51 -4 98.5 -23.5t83.5 -51.5q38 -37 62.5 -83.5t29.5 -97.5q8 -90 -48 -195 q-27 -51 -81.5 -108t-124.5 -109q-62 -46 -112 -94t-77 -87q-26 -41 -40 -79t-14 -70q0 -55 36 -91h-1q41 -35 94 -35q67 2 119 41.5t94 116.5q14 27 40 13q28 -18 13 -44v1q-27 -49 -59 -86t-67 -60q-36 -21 -71.5 -32.5t-68.5 -11.5q-76 0 -132 48q-60 62 -60 144 q2 71 62 171q59 100 208 207zM345 183l-25 -148q-8 -30 -35 -23q-30 5 -25 36l25 145q6 28 37 25q29 -8 23 -35z" />
<glyph unicode="@" horiz-adv-x="894" d="M34 367q0 1 0.5 2.5t0.5 2.5q32 105 80.5 184t105.5 133q70 66 147 96.5t144 28.5q57 -1 108 -18q102 -35 157 -125q58 -95 55 -235q-3 -125 -59 -288v-2l-1 -1l-3 -5q-1 -1 -2 -3l-3 -4q-16 -37 -37 -62q-22 -25 -51 -37q-91 -33 -123 48q-7 20 -7 27q-33 -42 -78 -64 q-72 -36 -147 -3q-73 31 -105 107q-28 61 -15.5 143t85.5 172q37 46 91 71.5t104 28.5q40 2 75 -11q38 -16 56 -47q26 -47 0 -109q-2 -9 -11 -13h1l1 -1h2l1 -1h1v-1h1l2 -1h2v-1h2v-1l2 -2h1v-1h1l2 -2v-2h1l2 -3h1v-2h1v-1l1 -2v-1l1 -1v-4h1v-4h1v-4q-3 -23 -8 -57 q-6 -45 -11 -100.5t7 -85.5q7 -19 35 -8q12 3 24 17q14 19 26 47q3 6 6 9l3 4q49 147 53 262q1 121 -45 199q-43 69 -121 96q-41 13 -88 15q-54 0 -118.5 -25.5t-124.5 -81.5q-51 -48 -94.5 -119t-71.5 -166q-32 -170 42 -298q48 -81 128 -126q76 -43 163 -35q105 9 185 93 q24 24 48 1t1 -49q-98 -101 -229 -113q-103 -9 -201 44t-154 152q-84 147 -50 343zM573 377q-3 0 -4 2q-33 11 -20 44q13 31 4 50q-7 12 -22 17q-18 7 -46 6q-90 -5 -146 -74q-59 -73 -70 -137t9 -109q22 -53 70 -71q46 -21 91 1q42 20 76 79.5t45 167.5v4l1 1v2l1 1v2h1v1 l1 2v1l1 1v1l1 1h1v1h1v1h1v2l1 1h1l1 1h1v1z" />
<glyph unicode="A" d="M823 199q-40 24 -57 40q-153 -199 -301 -248q-128 -47 -242 1.5t-215 154.5q-19 22 0 44q22 17 44 -2q88 -94 186 -137t206 -4q138 48 281 234q-67 82 -67 171q0 52 21 93q24 43 69 65q70 32 174 -9q30 59 59.5 119.5t59.5 121.5q133 276 246 460.5t260 196.5h9 q29 -10 23 -38l-262 -1072q176 115 303 279q19 21 42 4q24 -18 6 -42q-80 -102 -177 -185.5t-195 -142.5l-75 -304q-8 -30 -37 -23q-19 3 -23 26q-13 125 -33 218q-199 -80 -305 -21zM1167 303q7 3 36 19q10 4 20 9.5t21 11.5l264 1086q-105 -39 -201 -207t-210 -406 q-30 -61 -60 -121.5t-61 -119.5q21 -14 25 -16q87 -61 146 -193q4 -16 9.5 -31t10.5 -32zM1111 278q-8 28 -23 65q-50 118 -120 164l-21 14q-78 -141 -143 -232q17 -17 48 -36q80 -45 259 25zM762 334q63 92 131 214q-74 29 -120 7q-26 -11 -40 -38t-14 -64q3 -68 43 -119z M1201 168l22 96q-6 -5 -39 -21q10 -42 17 -75z" />
<glyph unicode="B" horiz-adv-x="1453" d="M58 266q53 -130 148 -195q64 -45 128 -42q76 6 144 77q62 65 121.5 189.5t110.5 325.5q17 60 27 104q40 165 96.5 330.5t194.5 323.5q21 24 44 2q20 -18 2 -43q-93 -105 -145 -217t-86 -226q68 61 173 56q68 -3 137 -27q49 -16 108 -56q6 -6 13 -11.5t14 -11.5 q28 26 41 44l4 6l3 2q85 119 83 245q0 138 -104 221l-2 1v1l-7 4l-2 2q-42 30 -110 52q-71 22 -147 25q-69 2 -141 -4q-198 -26 -306 -133q-107 -111 -112 -281q-3 -42 4 -97q3 -33 -27 -36q-30 0 -33 27q-7 63 -4 110q6 195 131 320q121 124 340 150q57 7 150 4 q87 -4 164 -25q76 -24 129 -64h2q1 -2 2.5 -4t3.5 -3h2q125 -102 129 -268q0 -158 -98 -284l-2 -2l-4 -6q-23 -31 -46 -50q63 -76 86 -171q33 -141 -19 -288q-53 -149 -175 -250q-148 -123 -353 -123q-83 0 -139 32q-71 46 -95 145q-9 30 22 38q30 7 38 -23q18 -76 68 -108 q38 -25 106 -25q179 0 316 112q109 92 154 222q47 128 18 254q-23 86 -76 149q-44 -25 -79 -35q-49 -16 -98.5 -22.5t-99.5 -10.5h-2q-47 -3 -108 7.5t-85 60.5q-9 -40 -14 -56q-7 -27 -12.5 -52t-12.5 -51q-55 -211 -118.5 -342.5t-129.5 -200.5q-88 -87 -184 -94 q-88 -5 -169 51q-108 75 -168 222q-8 29 17 39q27 13 39 -16zM1223 818q-44 33 -91 50q-54 20 -118 23q-98 2 -140 -54q-12 -12 -12 -29q-3 -39 55 -45.5t82 -4.5v2q114 7 185 29q43 17 50 21q-6 6 -11 8z" />
<glyph unicode="C" horiz-adv-x="880" d="M60 1190q0 -81 31 -135q54 -93 196 -118q20 -3 41.5 -6.5t43.5 -4.5q59 132 143 239q130 172 303 272q156 91 279 52q53 -16 83 -54q33 -43 33 -93q3 -110 -120 -227q-84 -78 -215.5 -139.5t-270.5 -88.5q-109 -21 -196 -21q-11 -28 -21.5 -55.5t-19.5 -54.5 q-27 -86 -58 -216.5t-25 -250.5q4 -111 58 -188.5t193 -71.5q83 6 152 42q73 39 122 99l77 98q19 23 44 6q23 -20 4 -43l-77 -98q-61 -76 -141 -116q-88 -43 -179 -47q-174 -9 -241 85t-73 232q-6 127 25.5 262.5t60.5 225.5q20 62 33 93q-30 0 -71 9q-167 32 -235 147 q-40 68 -39 166q0 31 31 31q29 0 29 -31zM850 1385q-164 -95 -287 -257q-69 -89 -123 -202q56 2 154 21q132 26 256 83t199 129q104 98 104 183q-3 31 -21 54q-18 22 -52 35q-99 28 -230 -46z" />
<glyph unicode="D" horiz-adv-x="1431" d="M1333 1427q-89 -23 -157 -77q94 -100 134 -242.5t36 -295.5q-8 -171 -65.5 -335.5t-152.5 -272.5q-166 -194 -339 -220q-143 -21 -334 58q-99 -47 -202 -64q-79 -16 -139 -4q-76 13 -102 65q-16 34 -12 75v2q3 20 8 29q21 41 69 54q38 10 89 2q78 -9 161 -41t113 -44 l13 -6q47 28 64 46q93 87 147.5 232.5t101.5 307.5q39 127 81 254t108 236q56 92 127 166q-126 92 -299 96q-214 6 -349 -117q-133 -119 -160 -241q-27 -132 65 -265q27 -42 62 -67q38 -24 79 -29q30 -4 27 -33q-4 -31 -33 -27q-62 6 -106 39q-51 33 -79 83 q-108 158 -75 314q33 138 179 270q75 69 179 102.5t213 32.5q201 -7 345 -116q84 65 189 93q29 7 37 -23q7 -30 -23 -37zM1082 243q89 102 142 255.5t60 315.5q6 143 -30.5 274.5t-123.5 222.5q-62 -59 -123 -156q-61 -103 -103 -227.5t-77 -248.5q-51 -168 -108.5 -320 t-159.5 -247q-24 -22 -38 -31q147 -56 258 -37q151 23 303 199zM380 75q-41 17 -102.5 38.5t-117.5 27.5q-43 6 -69 -2q-20 -4 -27 -19q-2 -4 -2 -12q-4 -29 4 -42q12 -23 59 -33q47 -9 120 4q62 9 135 38z" />
<glyph unicode="E" horiz-adv-x="867" d="M941 1327q-10 21 -35 46q-26 18 -63 33q-121 41 -232 29q-107 -10 -179 -72q-24 -22 -33 -32q-73 -75 -87 -153q-15 -75 33 -139q67 43 114 64q73 30 146.5 34t138.5 -36q45 -29 62 -65q10 -20 10 -49q-4 -29 -16 -46q-23 -39 -75 -62q-90 -44 -199 -19q-117 28 -190 98 q-86 -68 -143 -140q-133 -174 -133 -363q-1 -187 127 -322q21 -24 41 -37q120 -94 275 -79q151 12 257 114q9 9 18.5 19.5t19.5 21.5l68 90q22 20 44 4q23 -19 6 -44l-71 -89q-12 -17 -43 -46q-115 -111 -293 -130q-182 -16 -318 91q-17 11 -48 41q-144 154 -143 366 q0 214 145 401q28 33 66.5 72t83.5 75q-61 82 -44 185q19 99 104 187q9 7 17.5 16t17.5 17q89 74 214 87q124 15 260 -33q44 -15 81 -43q39 -33 52 -67q10 -30 -17 -39q-26 -17 -39 14zM710 1049q-48 30 -107.5 26t-118.5 -28q-56 -26 -98 -54q63 -53 152 -73q93 -20 162 13 q34 18 48 39q6 9 6 19q2 6 -2 18q-8 18 -42 40z" />
<glyph unicode="F" horiz-adv-x="1138" d="M56 172q108 -98 210 -126q109 -34 197 4q140 57 189 236t79 372q6 44 13 79h-175q-31 0 -31 29q0 32 29 32l187 2q18 104 48 196.5t87 185.5q53 88 133 162q22 22 41 0q22 -22 0 -44q-71 -65 -122 -149q-52 -84 -80 -170.5t-45 -180.5h206q31 0 31 -31q0 -30 -29 -30 l-218 -2q-3 -22 -7.5 -44t-7.5 -45q-31 -204 -85.5 -395t-219.5 -258v-2q-114 -43 -237 -7q-126 39 -239 147q-10 10 -10 23v2q0 31 29 31q20 0 27 -17zM1618 1425q-85 -21 -150 -25q-79 -10 -152.5 -6t-152.5 10q-201 18 -412.5 5t-351.5 -192q-53 -66 -73 -156 q-17 -68 -17 -180q0 -31 -29 -31q-31 0 -31 31q-4 110 17 195q22 102 85 179q156 197 381 213t437 -2q75 -6 145.5 -10t147.5 4q65 7 142 25q29 7 37 -23q3 -31 -23 -37z" />
<glyph unicode="G" horiz-adv-x="1234" d="M965 254q15 89 22 130q11 84 20 131q-48 -98 -114 -193q-35 -48 -91 -117t-125 -126q-86 -76 -168 -97q-103 -24 -170 43q-34 33 -57 79q-88 177 -76 407q8 186 74 361q-107 30 -184 100q-60 49 -81 112q-21 59 -13 139q7 31 35 25q30 -4 27 -33q-10 -64 9 -110 q16 -51 62 -87q75 -64 168 -90q9 16 15 30q12 27 34.5 62.5t50.5 76.5q54 74 127 156t153 143q84 63 170 92t161 -7q22 -14 27 -17l2 -2q28 -18 52 -52q32 -59 16 -124q-21 -91 -105 -177.5t-152 -128.5q-91 -56 -197.5 -91.5t-214.5 -36.5q-52 0 -101 6q-68 -170 -73 -349 q-10 -217 71 -378q16 -38 41 -62q46 -46 114 -27q68 17 144 83q63 54 117.5 119.5t87.5 112.5q79 117 133 237q60 126 106 291q7 31 38 21q26 -10 20 -38v-2q-33 -125 -54 -247t-39 -243q-5 -29 -19 -121zM366 916q48 -4 76 -4q98 1 196 34t185 86q55 34 132.5 111.5 t95.5 154.5q10 49 -8 79q-17 23 -36 35l-2 2q-3 3 -18 11q-57 27 -126 2t-140 -79q-77 -60 -146.5 -137.5t-121.5 -149.5q-53 -72 -81 -130zM841 -245q35 99 51 171q-18 -14 -38 -24t-57 -34.5t-101 -82t-93 -118.5q-57 -111 -25 -187q9 -21 20 -29q14 -7 29 -5 q64 16 135 135q42 69 78 171q0 1 1 3l61 -11q-40 -114 -88 -194q-87 -145 -174 -164q-42 -6 -73 13q-29 17 -45 58q-45 100 27 237q33 70 101.5 132t115 94t84.5 55t71 53q14 47 36 175q4 27 8 51l63 1q-10 -68 -25 -171l-6 -29q110 56 182 132l77 98q17 23 44 6 q22 -21 4 -44l-77 -97q-66 -79 -253 -187q-20 -64 -64 -194q-4 -13 -8 -25z" />
<glyph unicode="H" horiz-adv-x="1414" d="M39 1294q23 56 44 83q31 40 71 67q88 54 167.5 45.5t162.5 -29.5q42 -11 86.5 -21t92.5 -8q60 0 118 17q54 14 112 45q12 10 29 2q27 -15 13 -41q-21 -41 -40 -80t-37 -78q-40 -83 -69 -158q-36 -89 -62 -183.5t-50 -190.5q21 9 43 17.5t115.5 49t138.5 62.5 q59 170 163.5 364t281.5 232h2q90 21 158 2q32 -9 60 -33q25 -24 35 -64q9 -42 -6 -100h-2q-32 -113 -192.5 -209t-264.5 -148l-21 -11h-4q-88 -46 -160 -79q-14 -42 -19 -54v-2h-2q-25 -78 -60.5 -226t-30.5 -283q3 -96 33 -157q34 -66 96 -86q36 -10 83 -10q39 2 116 48 q73 47 112 97l81 104q18 22 44 4q22 -19 4 -41l-79 -104q-51 -60 -129 -112q-91 -51 -147 -55q-50 -2 -106 12q-86 28 -129 116q-36 68 -39 182q-7 143 30.5 296.5t64.5 233.5v4q-33 -16 -144.5 -63t-144.5 -59q-25 -113 -58 -214q-22 -75 -54 -164q-31 -82 -64 -158h-2v-2 q-52 -99 -126.5 -142.5t-145.5 -43.5q-64 0 -121 32q-55 32 -77 96q-19 57 -1 134.5t95 168.5q55 67 143 135q82 68 173 114q77 40 187 87l6 21q24 102 52.5 205t67.5 200q31 81 69 162q14 28 39 79l-22 -6q-11 -3 -21 -6q-57 -18 -133 -21q-54 0 -102.5 10t-95.5 23 q-72 18 -140.5 25.5t-139.5 -35.5q-31 -20 -54 -50q-24 -33 -35 -69q-14 -27 -40 -16q-27 7 -19 37zM588 661q-36 -16 -71 -33l-70 -34q-83 -45 -162 -108q-74 -57 -133 -127q-122 -140 -83 -245q15 -42 51 -62q35 -27 88 -23q55 0 115.5 36.5t102.5 117.5q28 60 62 151 q34 95 54 160q12 40 23 82t23 85zM1433 1429q-141 -28 -233 -186.5t-149 -314.5q27 12 54 26t52 26q2 0 2 2l23 11q98 48 248.5 136.5t177.5 181.5q11 46 6 70q-3 21 -17 31q-9 11 -35 19q-52 14 -129 -2z" />
<glyph unicode="I" horiz-adv-x="941" d="M1134 1404q-13 -2 -24 -4.5t-22 -3.5q-76 -13 -155 -13q-83 0 -137 13.5t-96 28.5q-55 18 -108.5 21.5t-155.5 -48.5q-30 -15 -56.5 -35t-49.5 -38q-26 -22 -37 -29q-24 -15 -42 6q-19 27 7 44q9 6 16.5 13.5t16.5 13.5q26 20 54.5 41t63.5 40q120 60 183 55t129 -26 q39 -15 88 -27t124 -10q65 0 145 10q72 12 141 35q28 13 38 -18q5 -20 -9 -34q-119 -103 -200 -353.5t-117 -397.5q-46 -181 -110 -375.5t-241 -293.5q-172 -92 -360 -24q-11 3 -21 6.5t-20 6.5q-57 28 -94 56q-44 31 -79 73q-14 21 4 44q22 17 44 -4q30 -37 66 -65 q42 -28 84 -48q24 -8 37 -12q160 -59 309 21q162 90 220.5 277.5t99.5 351.5q37 143 106 361.5t158 340.5z" />
<glyph unicode="J" horiz-adv-x="853" d="M541 84l-9 -40q207 75 274 148l77 98q17 23 44 6q22 -21 4 -44l-77 -97q-66 -79 -342 -192q-20 -64 -63.5 -194.5t-96.5 -218.5q-87 -145 -174 -164q-42 -6 -73 13q-29 17 -45 58q-45 100 27 237q33 70 101.5 132t115 94t84.5 55t69 42q13 49 46 248t72 410 q48 257 92 388q36 113 99 221q51 78 113 143q-19 -2 -61 -6q-65 -7 -133 -9q-73 0 -174 15q-75 7 -146.5 10t-152.5 -25q-45 -15 -85 -38t-79 -49q-24 -16 -44 6q-12 27 8 44q95 65 181 96q90 30 168 27.5t156 -11.5q40 -5 82 -8.5t86 -3.5q65 0 127 6q68 6 131 19 q24 4 35 -25.5t-6 -43.5q-89 -75 -154 -181q-56 -92 -93 -205q-39 -116 -81 -339q-34 -177 -103 -622zM300 -419q42 69 78 170.5t52 174.5q-18 -14 -38 -24t-57 -34.5t-101 -82t-93 -118.5q-57 -111 -25 -187q9 -21 20 -29q14 -7 29 -5q64 16 135 135z" />
<glyph unicode="K" horiz-adv-x="1863" d="M359 1379q43 37 94 62q56 27 110 38q90 20 158 10.5t129 -23.5q45 -11 89.5 -19t92.5 -1q45 6 81 20q45 16 77 29q15 10 33 -2q24 -20 5 -43q-61 -72 -104 -162q-22 -41 -38.5 -83.5t-30.5 -84.5q-19 -55 -33.5 -113t-28.5 -118h2q37 29 81 39q50 10 93 -10 q39 -20 73 -62q1 -2 2.5 -3.5t3.5 -2.5q17 29 31.5 65t29.5 74q26 69 61 145t101 148l2 2q46 49 109.5 98.5t135.5 79.5q135 56 241 23q33 -9 52 -27q22 -21 29 -52q6 -28 -25 -35q-28 -4 -36 25q0 8 -8 16t-29 15h-2q-90 27 -197 -21q-66 -28 -124.5 -73t-100.5 -91l-2 -2 q-60 -66 -92.5 -136.5t-56.5 -135.5q-19 -51 -38.5 -95.5t-46.5 -83.5q19 -49 29 -91q13 -61 16 -114q6 -70 4 -110q-7 -118 9 -192q13 -69 47 -126l3 -4h2v-2q57 -84 141 -102q88 -18 172 35l4 2q15 9 46 38q17 16 42 43v2l47 63q21 23 44 4q25 -19 6 -42l-47 -62l-3 -2 q-13 -16 -47 -52q-15 -13 -28.5 -23.5t-23.5 -18.5q-2 0 -2 -1v-1l-4 -2h-3q-102 -67 -216 -40q-108 20 -178 123q-2 2 -2 4l-4 5v2q-37 57 -57 147q-16 91 -10 204q3 49 -2 104q-4 50 -17 105q-8 33 -14 52q-29 -25 -66 -50.5t-77 -36.5q-82 -18 -131 35h-2q-4 8 -9 11 q-34 -152 -82.5 -294t-137.5 -244q-124 -143 -280 -178q-158 -36 -308 43q-41 20 -81 58q-32 31 -60 77q-10 28 13 41q26 17 41 -10q20 -36 48 -62q34 -32 68 -50q130 -70 264 -38q137 30 249 160q96 112 144.5 279t86.5 338q18 86 37 167.5t44 154.5q31 99 73 177 q14 32 47 87q-46 -12 -76 -17q-58 -8 -107.5 0.5t-98.5 20.5q-57 12 -119 21t-141 -6q-62 -17 -95 -34q-43 -21 -79 -54q-27 -18 -44 3q-19 25 2 43zM1209 798q-3 4 -7.5 9.5t-7.5 10.5q-25 33 -50 44q-25 12 -56 6q-32 -8 -56 -27q-8 -6 -20 -18q-24 -24 -27 -42 q-7 -17 10 -42l10 -10q26 -30 73 -19q34 8 66.5 32.5t56.5 46.5q-2 -1 8 9z" />
<glyph unicode="L" horiz-adv-x="1216" d="M401 1259q-16 -61 4 -115q22 -50 75 -89q128 -91 322 -108q8 0 12 -2q12 45 26 88t28 84q24 67 54.5 131.5t72.5 118.5q97 120 247 133h40q73 -4 132 -38q69 -42 75 -118v-23q-6 -94 -99 -197q-52 -60 -117 -108t-114 -71q-129 -66 -299 -62q-13 -40 -21 -77 q-47 -167 -102.5 -330t-148.5 -283q-8 -7 -31 -35l14 -6v-2l9 -3q77 -42 155 -74.5t152 -37.5q155 -11 266 135l64 83q18 25 42 7q23 -19 6 -42l-64 -85q-72 -96 -152.5 -129.5t-165.5 -27.5q-83 5 -166.5 38t-166.5 77l-8 5v2q-13 5 -31 16q-95 -81 -189 -117 q-64 -24 -129.5 -26t-119.5 31q-42 24 -58 56q-16 24 -15 56q0 28 17 50q26 42 85 77l2 2q85 51 194.5 20t202.5 -76q11 11 39 46q87 110 140.5 269t98.5 321q4 15 8.5 30.5t10.5 31.5h-2q-206 19 -352 120q-68 51 -95 117q-29 63 -8 151q7 30 37 23q30 -8 23 -37zM926 1095 q-14 -36 -25.5 -74t-23.5 -78q144 3 255 56q107 50 212 166q80 86 83 160v15q-3 45 -46 70q-39 27 -102 27q-16 3 -33 0q-128 -9 -203 -110q-38 -47 -65.5 -108t-51.5 -124zM451 143q-80 37 -167.5 60t-150.5 -14q-50 -32 -64 -56q-9 -15 -9 -23q0 -11 6 -21q14 -21 40 -35 q75 -47 195 0q79 31 150 89z" />
<glyph unicode="M" horiz-adv-x="2186" d="M1288 25q-11 -19 -33 -15q-29 3 -25 36q18 93 35.5 185t38.5 182q38 187 88 362q23 87 49.5 174.5t58.5 174.5q12 39 27 72q-39 -54 -77 -110.5t-75 -113.5q-19 -28 -38 -58t-39 -62q-81 -125 -181 -271.5t-214 -276t-240.5 -222t-259.5 -110.5h-2q-119 -13 -222 49 q-49 27 -91 66.5t-82 84.5q-15 26 4 44q22 21 42 -2q83 -98 158 -141q84 -54 183 -42q123 15 242.5 105t228.5 216t206 268.5t176 264.5q20 32 39 62t38 58q40 60 80.5 119.5t79.5 117.5q39 57 78 112.5t78 109.5v2h2q14 19 35 9q27 -17 15 -42q-74 -156 -133 -330 q-32 -84 -58.5 -171t-49.5 -174q-47 -177 -87 -357q-7 -35 -14 -67.5t-13 -65.5q23 46 46 91.5t47 91.5q53 98 107.5 192.5t114.5 185.5q124 194 254 349q130 164 293 313q18 16 39 4q27 -19 8 -43q-216 -339 -334 -605q-107 -237 -137 -411q-40 -207 19 -322q23 -50 64 -70 q33 -19 83 -9q87 24 177 137l56 71q19 23 41 4q26 -18 6 -43l-56 -71q-103 -131 -209 -155q-68 -17 -127 13q-58 25 -89 96q-68 133 -25 362q31 182 141 423q77 174 203 393q-28 -32 -54.5 -63t-53.5 -62q-135 -170 -249 -344q-108 -169 -218 -374q-50 -96 -99.5 -195 t-95.5 -200v-2z" />
<glyph unicode="N" horiz-adv-x="1855" d="M1957 1147q-184 -282 -348.5 -577.5t-326.5 -587.5q-17 -25 -42 -12q-29 16 -12 40q77 276 158.5 551.5t171.5 549.5q-119 -213 -263.5 -423.5t-320.5 -378.5q-84 -82 -183 -147q-84 -60 -182.5 -108.5t-197.5 -67.5q-102 -20 -196.5 -2.5t-168.5 95.5q-22 20 -42 50 q-13 26 8 43q27 16 44 -8q13 -23 33 -44q62 -64 142 -78t170 4t183 64.5t174 101.5q101 70 175 141q234 225 420 532t327 598q12 26 40 15q23 -18 16 -36v-2q-102 -301 -195.5 -603.5t-180.5 -607.5q129 235 263.5 470.5t281.5 460.5q129 197 317 272q103 40 207.5 40 t200.5 -28q30 -12 18 -39q-7 -30 -37 -19q-86 24 -180 25t-186 -35q-172 -70 -288 -249z" />
<glyph unicode="O" horiz-adv-x="1215" d="M1248 1211q-33 -15 -79 -27q1 -8 3 -14.5t4 -12.5q48 -256 -50 -521q-103 -276 -316 -474q-109 -102 -224 -152q-120 -49 -229 -38q-118 16 -205 109q-57 57 -100 156q-51 118 -52.5 249.5t33.5 261.5q42 147 122.5 282.5t178.5 234.5q91 93 202 152q109 58 239 81 q30 7 35 -25v-15q26 32 73 40q12 2 39 2q84 -10 152 -108q24 -33 43 -73t34 -77q36 10 72 25q57 23 106 75q41 50 65 126q6 28 37 21q28 -7 21 -37q-25 -88 -77 -150q-50 -59 -127 -91zM785 1437q-119 -18 -222 -74q-98 -53 -185 -140q-94 -95 -170 -223.5t-115 -268.5 q-34 -120 -33 -241t48 -228q34 -80 87 -139q73 -80 171 -92q92 -9 197 35q103 46 206 140q204 191 299 450q93 253 47 488l-6 27h-4q-104 -14 -181 7q-99 23 -133 106q-9 21 -12 45q-4 34 -2 50q2 33 21 65q-1 -1 -13 -7zM839 1340q3 -21 8 -34q24 -55 94 -70q63 -16 147 -4 q-24 68 -64 124q-54 75 -108 81q-13 3 -25 0q-22 -4 -35 -20q-16 -16 -19 -44q0 -23 2 -33z" />
<glyph unicode="P" horiz-adv-x="1148" d="M380 924q29 243 152 385q132 147 386 184q118 17 226 -8q115 -23 194 -81q80 -57 118 -147q36 -94 21 -200q-14 -103 -75 -187q0 -2 -1 -3l-1 -1q-64 -90 -158 -129q-74 -29 -160 -25q-87 7 -164 46q-28 15 -12 42q14 25 41 14q65 -37 139 -39q70 -7 133 21 q75 28 131 105q0 2 1 2.5t1 2.5q51 69 65 160q12 93 -17 168q-32 74 -98 120q-61 46 -170 73q-101 18 -206 6q-233 -35 -349 -166q-109 -122 -135 -351q-4 -27 -35 -27q-31 3 -27 35zM1063 1325q-123 -162 -168.5 -316t-82.5 -342q-2 -10 -16 -81q-16 -83 -43 -178t-72 -182 q-47 -89 -116 -156.5t-168 -89.5q-116 -25 -214 17q-99 41 -179 153q-14 24 8 41q25 19 42 -6q72 -100 152 -133q79 -36 178 -15q82 20 141.5 80t101.5 138q42 81 67.5 172t42.5 169q0 6 5 30.5t10 52.5q39 195 85.5 354t178.5 330q17 25 41 6t6 -44z" />
<glyph unicode="Q" horiz-adv-x="1122" d="M77 793q69 189 187.5 354.5t246.5 252.5q109 75 218 89q108 14 197 -41q27 -17 54 -44q24 -25 46 -60q70 -115 77 -268q2 -155 -56 -326q-36 -106 -130.5 -259.5t-214.5 -282.5q-28 -30 -44 -46l21 -21q109 -124 202 -108q75 14 174 139l48 63q19 23 44 4q22 -21 6 -42 l-50 -64q-114 -139 -212 -159q-123 -23 -257 126q-7 8 -19 20q-75 -66 -152 -106.5t-149 -43.5q-87 -3 -152 47q-67 46 -112 147q-61 129 -48 295.5t75 333.5zM544 1350q-120 -83 -231.5 -241t-179.5 -338q-58 -156 -71 -310t42 -272q43 -88 93 -125q54 -39 115 -35 q113 5 257 133q-57 43 -104 54q-87 15 -187 -58q-23 -19 -43 6q-19 24 8 44q122 89 235 66q60 -11 137 -68q15 13 41 43q117 124 207.5 272t125.5 248q57 166 52 305q-4 133 -67 239q-15 25 -37 50q-25 22 -42 33q-70 43 -160 33q-98 -15 -191 -79z" />
<glyph unicode="R" horiz-adv-x="1590" d="M1055 1315q-90 -119 -136 -232t-74 -238q-2 -4 11 15q24 21 62 35q55 19 106 9q50 -9 87 -40q43 -40 63 -98l4 -8q120 37 185 162q1 4 3.5 10t4.5 11q50 115 29 233q-21 106 -108 170q-109 75 -237 91q-143 16 -280 -45q-139 -65 -227 -189q-91 -128 -110 -291 q-4 -31 -33 -27q-31 3 -27 33q21 181 118 320q99 138 252 210q154 68 313 49q143 -16 266 -101q107 -78 133 -208q26 -135 -33 -270q-3 -5 -5 -11t-5 -12q-78 -152 -227 -195q18 -118 -10 -276q-25 -216 27 -318q22 -48 60 -65q37 -15 81 0q84 25 170 133l59 75q18 23 43 4 q23 -19 4 -43l-58 -73q-95 -124 -199 -155q-69 -18 -123 4q-59 25 -91 93q-61 116 -33 351v2q25 157 10 255q-109 -12 -206 30l-2 2q-3 0 -12 6q-38 16 -60 43q-12 13 -15 34q-8 -33 -15 -68t-14 -71q-2 -12 -17 -81q-15 -82 -42 -176t-72 -180q-45 -87 -113.5 -154.5 t-166.5 -89.5q-116 -25 -214 17q-94 37 -177 150q-13 28 8 42q26 20 42 -6q74 -99 152 -131q76 -36 174 -15q82 20 141 79t100 137q42 81 68 171t42 168l15 81q37 193 84.5 351t176.5 328q19 23 42 4q28 -17 6 -41zM1115 746q-14 43 -45 72q-25 21 -56 25q-32 8 -75 -6 q-28 -9 -40 -21q-4 -4 -4 -6v-2q0 -1 2 -4q16 -15 40 -27q3 -2 5 -2.5t5 -1.5l2 -2q80 -35 166 -25z" />
<glyph unicode="S" horiz-adv-x="1159" d="M997 1325q-43 54 -123 85q-78 30 -180 27q-162 -6 -233 -122q-32 -55 -35 -117q-4 -63 23 -122q29 -64 95 -114t173 -67q241 -39 332 -197q55 -96 46 -210q-11 -112 -73 -216q-64 -109 -177.5 -192t-256.5 -104q-162 -24 -314 41q-147 64 -268 216q-15 24 4 43 q24 20 44 -4q110 -139 245 -199q131 -59 281 -38q129 20 230.5 94.5t159.5 173.5q56 96 62 189q10 93 -35 175q-79 133 -291 168q-122 20 -200 79.5t-111 134.5q-36 76 -32 152q8 83 46 145q84 143 283 154q110 3 205 -34q90 -33 148 -103q19 -26 -6 -44q-23 -18 -42 6z" />
<glyph unicode="T" horiz-adv-x="1015" d="M374 897q-7 105 8 189q34 182 158 291q118 103 307 116q93 6 180.5 -10t177.5 -37q138 -33 268 -42t278 89q24 18 44 -8q15 -23 -9 -41q-167 -111 -306.5 -102.5t-287.5 45.5q-27 6 -54 12.5t-54 12.5q-42 -59 -75 -124q-33 -71 -58 -146q-28 -84 -47 -170.5t-34 -171.5 q-31 -164 -74.5 -324t-145.5 -308q-46 -65 -91 -104q-112 -97 -241 -94q-116 3 -216 74q-56 38 -96 85q-16 22 4 41q22 22 42 -2q42 -46 83 -72q86 -65 183 -67q111 0 201 81q41 38 81 94q96 139 138 293.5t72 312.5q17 88 36 176t47 175q25 77 62 154q21 46 63 110 q-97 13 -166 8q-167 -13 -272 -104q-107 -93 -138 -253q-15 -77 -8 -175q3 -33 -29 -33q-31 -4 -31 29z" />
<glyph unicode="U" horiz-adv-x="1375" d="M1273 1477q11 31 40 21q28 -11 20 -38l-289 -1001q-13 -32 -18 -48q-4 -8 -6 -14q3 3 -4 -11q-24 -62 -34 -110q-13 -62 -6 -122q14 -60 33 -88q27 -32 63 -35q44 -4 89 21q78 34 143 120l54 67q18 23 44 6q22 -19 4 -44l-52 -68q-77 -94 -166 -136q-67 -30 -120 -25 q-66 7 -106 57q-35 48 -46 116q-5 43 -2 73q-42 -48 -85.5 -83t-80.5 -62q-16 -13 -27 -19q-82 -62 -164 -80q-60 -10 -100 0q-58 18 -87 57q-29 41 -40 94q-13 62 -4 135q8 60 40 151v2h2l133 385v4q60 149 95 282q29 126 27 204q-3 75 -29 114q-20 31 -58 35 q-33 5 -87 -16q-110 -46 -187 -152q-53 -67 -106 -170q-56 -107 -98 -206q-12 -30 -39 -16q-26 9 -17 41q53 126 100 210q61 116 110 178q86 117 212 171q67 29 120 21q65 -9 100 -61q36 -52 39 -147q3 -101 -29 -220q-15 -64 -40 -137t-55 -154l-2 -2l-133 -384v-3 q-29 -73 -36 -139q-10 -68 2 -114q10 -45 30 -68q22 -31 51 -36q27 -8 73 0q71 16 141 69q5 4 12 9t15 12q60 43 133 110.5t117 186.5q1 1 1.5 2.5t2.5 3.5q3 11 21 58z" />
<glyph unicode="V" horiz-adv-x="1172" d="M0 912q50 134 91 214q48 99 110 178q53 69 150 135t191 48q89 -18 117.5 -97.5t28.5 -155.5q0 -99 -32 -231q-25 -118 -79 -280v-2q-62 -180 -93 -331q-30 -133 -19 -236q8 -70 33 -98q17 -19 48 -19h4q90 11 176 84t161 176q105 146 178.5 319.5t97.5 287.5q11 45 19 92 t14 92q-83 9 -137.5 78t-63.5 147q-10 66 19.5 121.5t102.5 65.5q78 6 119 -63q30 -54 32.5 -136t-3.5 -144q40 13 102 60q84 67 210 233q17 25 41 6q25 -18 6 -44q-113 -156 -220 -243q-77 -64 -145 -76q-14 -103 -36 -202q-25 -119 -101.5 -298.5t-184.5 -332.5 q-81 -113 -177.5 -191t-200.5 -91h-6q-64 -6 -100 39q-40 42 -48 130q-8 64 -1 128.5t20 127.5q26 136 95 339v2q51 146 79 274q27 128 27 216q0 51 -15.5 116t-77.5 77q-75 15 -158 -46t-125 -114q-52 -64 -104 -168q-46 -92 -87 -208q-8 -27 -39 -19q-24 11 -19 40z M1126 1437q-49 -5 -63 -41t-8 -75q8 -58 47.5 -112t100.5 -60q4 51 4.5 131.5t-25.5 127.5q-20 34 -56 29z" />
<glyph unicode="W" horiz-adv-x="1743" d="M0 933q40 136 104 253q70 123 158 193l2 2q56 47 139 84.5t160 11.5q60 -22 86 -77.5t32 -115.5q5 -75 -6 -175q-6 -48 -16.5 -101t-22.5 -109q0 -2 -1 -3l-1 -1q-36 -106 -62 -194t-44 -163q-37 -161 -42 -245q-12 -168 44 -233q26 -31 70 -31q43 0 102 35 q84 50 166 161t129 267l2 2l216 981q7 28 37 25q29 -9 23 -38l-218 -982v-6l-8 -30v-6q-41 -183 10 -295q22 -55 63 -79q40 -23 89 -14q97 19 208 147q54 67 112 166q50 96 97 217q15 42 50.5 178.5t57.5 288.5q-79 20 -134 84t-73 142q-12 52 -4 94q17 112 124 131 q71 11 106 -32t47.5 -108.5t9.5 -136t-7 -112.5v-10q6 0 13.5 1t15.5 1q101 18 199 114t171 260q11 25 39 14q28 -12 17 -39q-77 -171 -183 -279q-116 -113 -235 -130q-14 -2 -45 -2q-22 -156 -59 -296.5t-53 -183.5q-51 -134 -102 -227q-56 -100 -119 -174 q-125 -147 -241 -167q-72 -13 -133 21q-54 30 -87 106q-29 68 -31 158q-103 -184 -239 -266q-70 -40 -133 -40q-70 0 -116 49q-73 85 -60 278q4 51 14 115t29 141q35 143 108 361q27 105 40 203q12 91 6 160q-5 40 -21 83.5t-58 58.5q-58 20 -127.5 -16t-111.5 -70h-2 q-80 -65 -143 -178q-58 -98 -98 -241q-12 -28 -39 -21q-26 9 -21 40zM1658 1437q-63 -12 -73 -79q-4 -39 4 -70q14 -60 55 -111.5t101 -69.5v8q6 51 6 194t-93 128z" />
<glyph unicode="X" horiz-adv-x="1550" d="M1531 133q-56 -70 -141 -116q-51 -24 -98 -34.5t-83 -12.5q-113 -5 -181 69q-65 75 -81 214q-28 248 69 520h-11q-47 -165 -123.5 -316t-148.5 -241q-172 -212 -363 -242q-93 -14 -180.5 10.5t-174.5 73.5q-24 13 -11 42q15 26 42 12q168 -101 313 -79q168 27 326 222 q67 84 139 223.5t119 294.5l-208 -2q-31 0 -31 31t31 31l225 2q9 37 20 96q28 154 9 263q-25 121 -100 183q-53 43 -135 58q-97 17 -206 -50q-115 -73 -216 -220q-19 -26 -43 -8q-25 18 -7 44q114 162 235 236q126 78 249 58q96 -18 162 -70q93 -76 121 -220 q20 -126 -8 -285q-9 -50 -19 -85h17q104 268 288 467q146 158 299 189q154 32 304 -70q24 -16 8 -42q-19 -27 -44 -8q-126 88 -255 62q-132 -29 -266 -172q-170 -187 -268 -426l291 2q29 0 29 -31q0 -29 -29 -29l-316 -2q-97 -275 -73 -515q17 -124 67 -179q48 -56 133 -52 q29 1 70 10.5t83 33.5q70 31 123 99l67 86q18 26 43 6q26 -20 6 -44z" />
<glyph unicode="Y" horiz-adv-x="1324" d="M1095 84l-6 -29q110 56 182 132l77 98q17 23 44 6q22 -21 4 -44l-77 -97q-66 -79 -253 -187q-20 -64 -63.5 -194.5t-96.5 -218.5q-87 -145 -174 -164q-42 -6 -73 13q-29 17 -45 58q-45 100 27 237q33 70 101.5 132t115 94t84.5 55t71 53q9 30 43.5 213.5t56.5 288.5 q-57 -130 -114 -218q-61 -94 -156 -172.5t-185 -112.5q-82 -30 -141 -19q-72 18 -106 83q-50 96 -8 304q18 88 47 176.5t59 176.5q42 118 77.5 234t44.5 229q9 115 -31 176q-25 38 -66 48q-48 9 -100 -8q-124 -42 -212 -168q-47 -67 -85 -156q-42 -92 -77 -220 q-12 -32 -39 -21q-26 7 -21 37q35 125 81 227q46 106 91 168q103 143 243 191q72 23 131 10q64 -15 106 -74q51 -80 40 -214q-10 -119 -46.5 -238.5t-78.5 -239.5q-30 -87 -58.5 -174.5t-45.5 -172.5q-38 -185 2 -264q20 -40 65 -49q40 -10 106 14q82 31 168 103.5 t143 158.5q109 166 200 463q49 162 87 324.5t77 327.5q7 30 35 23q30 -8 23 -37q-54 -227 -101 -456q-44 -217 -173 -906zM854 -419q42 69 78 170.5t52 174.5q-18 -14 -38 -24t-57 -34.5t-101 -82t-93 -118.5q-57 -111 -25 -187q9 -21 20 -29q14 -7 29 -5q64 16 135 135z " />
<glyph unicode="Z" horiz-adv-x="1402" d="M710 868l299 -2l337 494q-5 -2 -10 -3.5t-9 -2.5q-78 -26 -151 -23q-60 3 -111.5 16.5t-102.5 31.5q-57 18 -115.5 34.5t-129.5 15.5q-80 -3 -160 -35q-79 -36 -137 -102q-21 -24 -44 -2q-23 20 -2 43q71 77 158 115q78 37 185 41q77 1 140 -15.5t123 -36.5 q48 -15 96 -28.5t102 -14.5q67 -4 131 18q63 23 120 71h2v2h4v2h4v2h19v-2h4v-2q4 0 6 -2v-2h3v-2h2v-2h2v-4h2v-5h2v-18h-2v-4h-2q0 -5 -2 -5l-391 -575l245 -2q31 0 31 -31q0 -29 -31 -29l-284 2l-351 -517h-2q-18 -27 -59 -77q21 -11 63 -31q18 -12 37 -21.5t38 -20.5 q65 -38 131.5 -70t140.5 -38q78 -9 155 29q81 37 137 112l69 83q17 25 42 7q23 -19 6 -44l-67 -85q-70 -88 -160 -129q-92 -42 -187 -34q-84 8 -156.5 42t-142.5 73q-17 11 -35.5 20.5t-36.5 21.5l-38 18l-37 19q-53 -56 -102 -93q-92 -70 -195 -91q-170 -32 -249 24 q-36 23 -42 58q-8 38 13 71q46 86 213 131q126 33 254 2q39 -8 91 -29q46 54 69 87l326 482l-258 2q-31 0 -31 31q0 29 31 29zM530 189q-42 12 -63 19q-115 24 -222 -4q-143 -39 -179 -100q-6 -17 -6 -29q4 -12 19 -21q54 -42 201 -15q87 17 171 79q50 42 79 71z" />
<glyph unicode="[" horiz-adv-x="698" d="M447 1493h187q31 0 31 -31t-31 -31h-163l-405 -1972h152q29 0 29 -31q0 -29 -29 -29h-189q-29 0 -29 29v10l415 2028q3 27 32 27z" />
<glyph unicode="\" horiz-adv-x="701" d="M125 1495l582 -1495q12 -33 -17 -40q-27 -9 -39 17l-584 1494q-8 28 18 42q29 8 40 -18z" />
<glyph unicode="]" horiz-adv-x="698" d="M218 -601h-189q-29 0 -29 29q0 31 29 31h164l403 1972h-149q-32 0 -32 31t32 31h187q31 0 31 -31q0 -6 -2 -8l-416 -2028q-4 -27 -29 -27z" />
<glyph unicode="^" horiz-adv-x="980" d="M94 981l574 485q26 19 44 -4q6 -6 6 -12l186 -455q9 -29 -19 -40q-28 -12 -39 19l-171 417l-541 -457q-24 -21 -44 4q-15 24 4 43z" />
<glyph unicode="_" horiz-adv-x="562" d="M4 -207h546q31 0 31 -31q0 -29 -31 -29h-546q-29 0 -29 29q0 31 29 31z" />
<glyph unicode="`" horiz-adv-x="283" d="M60 1405q26 -101 71 -152q44 -55 110 -66q29 -8 23 -35q-4 -33 -36 -25q-86 17 -143 87q-57 67 -85 174q-5 31 23 38q29 7 37 -21z" />
<glyph unicode="a" horiz-adv-x="1214" d="M-66 170q441 576 508 609q45 37 119 75.5t151 53.5q136 24 211 -50q27 -25 40 -62q3 -8 4 -12l37 113q11 28 40 19q31 -8 19 -37l-185 -551q-39 -151 -2 -237q15 -33 39 -45q24 -15 56 -4q73 15 164 130l42 50q19 25 41 6q25 -21 7 -43l-42 -52q-99 -127 -195 -151 q-61 -12 -102 9q-43 23 -66 75q-21 51 -21 117q-38 -47 -81 -81q-39 -30 -83.5 -57.5t-91.5 -44.5q-78 -30 -149 -22q-82 10 -133 74q-24 29 -44 81q-49 129 -25 265l-211 -265q-20 -27 -42 -6q-26 19 -5 43zM934 688q-21 6 -21 29q0 34 -8 60q-11 25 -25 37q-50 52 -156 33 q-69 -12 -136 -47t-109 -69q-44 -36 -80 -73l-1 -1l-72 -90q-36 -56 -57 -116q-51 -153 4 -297q18 -43 36 -65q38 -45 93 -52q48 -6 121 19q78 30 157 94q47 38 81 85q40 57 57 112h2z" />
<glyph unicode="b" horiz-adv-x="1379" d="M931 868q4 -103 22 -185t59 -110q121 -35 215 11t185 185q19 23 42 2q24 -20 4 -42q-110 -162 -224.5 -209.5t-256.5 3.5q-39 27 -64 90q-33 -203 -113.5 -345.5t-175.5 -217.5q-96 -73 -193 -80q-105 -6 -173 61q-105 101 -110 314l-166 -212q-18 -24 -44 -4 q-19 18 -4 43l216 275q4 62 11 97q18 135 80.5 324t149.5 345q70 124 152.5 206.5t171.5 82.5q139 2 144 -112q0 -68 -51.5 -166t-123 -200t-147 -194t-121.5 -147q-24 -28 -39 -47l-167 -212q-15 -249 90 -349q52 -50 126 -46q80 6 158 69q115 90 202.5 285.5t84.5 482.5 q-4 31 29 31q31 3 31 -29zM221 536l108 137q15 20 41 50q45 53 117.5 141.5t141 185.5t118 187.5t49.5 149.5q0 54 -79 54q-70 -2 -140 -74.5t-132 -182.5q-86 -153 -146.5 -335.5t-77.5 -312.5z" />
<glyph unicode="c" horiz-adv-x="972" d="M-68 170q520 710 673 719q56 24 104 27q82 9 145 -23q67 -37 98 -110q15 -50 18 -81q3 -30 -27 -33q-30 -4 -33 27q-4 34 -16 64q-24 56 -69 77q-47 25 -110 19q-48 -7 -87 -23q-126 -52 -227 -176t-126 -252h-3q0 -5 -1 -10t-1 -11q-19 -121 50 -222q67 -101 187 -129 q4 0 9 -1t10 -1q91 -13 212 31q119 47 168 110l39 53q18 22 42 4q23 -19 6 -42l-39 -54q-63 -78 -195 -127q-136 -48 -241 -36q-18 4 -23 4q-144 31 -227 155q-77 119 -58 266q0 6 4 22l3 15l-238 -299q-20 -27 -42 -6q-26 19 -5 43z" />
<glyph unicode="d" horiz-adv-x="1237" d="M-70 170q450 592 530 642q45 37 122 71.5t157 47.5q62 7 121 -4t101 -53q15 -16 25 -33l187 636q7 31 37 21q28 -9 21 -38l-330 -1134q-35 -160 4 -237q13 -35 41 -50q27 -13 60 -4q80 21 171 137l37 46q19 23 44 6q23 -20 4 -43l-37 -48q-101 -127 -202 -155 q-58 -14 -104 8q-45 20 -70 76q-23 49 -25 121q-38 -47 -81 -81q-114 -96 -223 -122q-90 -20 -162 11q-72 28 -112 113q-37 83 -33 214q1 66 19 135l-255 -320q-20 -27 -42 -6q-26 19 -5 43zM952 721q-4 8 -4 14q0 36 -8 58q-6 20 -23 38q-56 56 -170 37q-72 -9 -140.5 -40 t-108.5 -64q-99 -79 -156 -199q-63 -121 -69 -249q-3 -112 29 -185q28 -63 81 -85q53 -26 123 -7q101 25 197 111q52 40 83 83q41 59 56 108v2z" />
<glyph unicode="e" horiz-adv-x="835" d="M-96 142q115 145 292 239q0 22 5 53q11 125 52 220q50 124 140 205.5t209 71.5h2q54 -8 90 -34q37 -28 58 -79q15 -46 10 -97q-10 -78 -71 -144q-125 -121 -298 -175q-63 -20 -131 -66q5 -54 20 -103q9 -23 14 -35q4 -10 38 -65q82 -102 229 -102q81 0 125.5 40.5 t128.5 157.5q17 23 43 5q22 -20 5 -44q-10 -11 -50 -67t-95 -104.5t-157 -48.5q-175 0 -272 117l-34 52q-18 29 -33 75q-14 52 -28 94q-149 -85 -248 -210l-1 1q-20 -12 -40 4q-19 19 -3 39zM361 460q203 77 268.5 142.5t72.5 124.5q3 41 -8 71q-11 31 -36 49q-27 18 -60 21 q-96 11 -170.5 -59t-118.5 -178q-38 -93 -47 -201q-1 -10 -2 -19q50 30 101 49z" />
<glyph unicode="f" horiz-adv-x="537" d="M213 523q51 193 119 384t162 379q63 126 116 170q57 48 139 42q36 -7 46 -13q47 -25 54 -85q6 -53 -12 -112q-28 -97 -86 -175l-481 -617q-30 -111 -57 -221.5t-51 -220.5q21 -15 39 -19q44 -10 96 9q84 29 166 126l81 98q19 23 43 4q22 -21 5 -44l-81 -97 q-97 -111 -194 -145q-70 -23 -133 -8q-18 3 -35 15l-19 -83q-27 -125 -54 -247t-58 -242q-8 -31 -37 -22q-31 8 -23 37q31 120 58 241.5t54 244.5q6 28 12.5 57t12.5 56l-10 15q-40 54 -42 141q0 31 29 31q31 0 31 -29q2 -34 13 -68q14 62 28 125t30 126l-189 -243 q-18 -26 -44 -6q-11 8 -10 27q0 9 6 18zM704 1153q51 65 74 151q13 52 11 88q-4 29 -23 39q-5 2 -21 6q-58 3 -95 -27q-49 -42 -102 -151q-74 -150 -131.5 -301.5t-103.5 -305.5z" />
<glyph unicode="g" horiz-adv-x="1107" d="M757 151l6 26q-27 -32 -64 -61q-85 -70 -171 -101q-88 -31 -147 -22q-81 9 -133 73q-26 30 -44 79q-45 124 -24 252l-6 -12l-201 -252q-20 -27 -42 -6q-26 19 -5 43l330 422q63 101 170 189q45 37 118 74.5t148 52.5q135 24 208 -48q25 -26 39 -62q0 -4 1 -7t2 -4l39 110 q7 31 37 19q29 -7 21 -37l-141 -414q-12 -34 -25.5 -89.5t-28.5 -124.5q-6 -23 -11 -42q-8 -54 -18 -125l-6 -29q171 63 243 139l77 98q17 23 44 6q22 -21 4 -44l-77 -97q-66 -79 -314 -194q-20 -64 -64 -194q-4 -13 -8 -25q-40 -114 -88 -194q-87 -145 -174 -164 q-42 -6 -73 13q-29 17 -45 58q-45 100 27 237q33 70 101.5 132t115 94t84.5 55t71 53q9 31 24 123zM910 692q-20 6 -20 29q0 34 -9 56q-6 23 -23 39q-50 50 -153 31q-69 -12 -135 -46.5t-106 -67.5q-150 -120 -206 -274q-51 -150 4 -293q19 -45 36 -62q36 -46 89 -52t118 19 q68 25 156 93q47 37 79 83q39 52 56 110zM688 -146l16 72q-18 -14 -38 -24t-57 -34.5t-101 -82t-93 -118.5q-57 -111 -25 -187q9 -21 20 -29q14 -7 29 -5q64 16 135 135q35 59 114 273z" />
<glyph unicode="h" horiz-adv-x="1154" d="M-69 170q441 559 485 615q35 120 76 244.5t92 256.5q46 125 87 168q42 48 123 48q31 0 50 -11q18 -13 27 -31q8 -14 8 -39q0 -64 -65 -175q-45 -78 -94.5 -151t-102.5 -148q-71 -95 -145 -191q-19 -61 -35.5 -121.5t-31.5 -119.5q26 59 56 108q73 131 161.5 213.5 t198.5 94.5q144 14 168 -142v-2q17 -122 -46 -355q-68 -262 -45 -363q5 -31 16 -36q6 -7 27 4q58 26 141 133l63 79q18 23 43 4q23 -19 4 -43l-62 -77q-95 -122 -166 -151q-46 -21 -81 0q-33 18 -46 74q-23 114 48 391q57 230 44 332v2q-17 95 -102 87q-93 -9 -170 -83.5 t-144 -192.5q-69 -122 -129 -279t-116 -322q-8 -30 -37 -19q-26 7 -21 36q15 57 32 120t32 127q24 93 47 187q23 93 50 185l-393 -494q-20 -27 -42 -6q-26 19 -5 43zM522 922q24 31 45 63q112 153 196 292q56 99 56 144q0 10 -2 12q-6 4 -5 4q-8 4 -18 4q-54 0 -77 -29 q-33 -33 -77 -147q-67 -180 -118 -343z" />
<glyph unicode="i" horiz-adv-x="682" d="M-59 170l581 736l8 8q10 7 23 4q8 -3 17 -12h2v-2q6 -12 4 -23l-131 -493q-52 -194 -29 -297q10 -37 23 -45q12 -9 29 -2q52 18 143 126l79 98q17 21 44 4q23 -20 4 -44l-79 -95q-99 -121 -170 -147q-57 -15 -90 14q-33 27 -41 79q-15 57 -6.5 144.5t33.5 181.5l93 349 l-490 -621q-20 -27 -42 -6q-26 19 -5 43zM676 1309l-75 -279q-9 -29 -38 -21q-31 9 -22 38l76 276q8 29 38 23q31 -8 21 -37z" />
<glyph unicode="j" horiz-adv-x="619" d="M452 651q16 68 24 101l-489 -619q-20 -27 -42 -6q-26 19 -5 43l576 736q17 24 43 6q17 -13 11 -33q-15 -55 -32 -126.5t-146 -668.5l-6 -29q110 56 182 132l77 98q17 23 44 6q22 -21 4 -44l-77 -97q-66 -79 -253 -187q-20 -64 -64 -194q-48 -139 -96 -219 q-87 -145 -174 -164q-42 -6 -73 13q-29 17 -45 58q-45 100 27 237q33 70 101.5 132t115 94t84.5 55t71 53q14 47 142 623zM281 -74q-18 -14 -38 -24t-57 -34.5t-101 -82t-93 -118.5q-57 -111 -25 -187q9 -21 20 -29q14 -7 29 -5q64 16 135 135q42 69 78.5 173.5t51.5 171.5z M674 1296l-75 -276q-8 -31 -37 -23q-31 10 -23 39l77 277q7 28 37 20q31 -8 21 -37z" />
<glyph unicode="k" horiz-adv-x="1210" d="M-64 170q456 575 487 615q35 120 76 244.5t92 256.5q46 125 87 168q42 48 123 48q31 0 50 -11q18 -13 27 -31q8 -14 8 -39q0 -64 -65 -175q-45 -78 -94.5 -151t-102.5 -148q-71 -95 -145 -191q-24 -80 -46 -158.5t-42 -157.5q3 8 7.5 15.5t7.5 13.5q102 220 222 329 q79 69 169 87q81 15 149 -17q69 -34 104 -102q38 -67 33 -159q-7 -130 -143 -202q-78 -44 -191 -58q36 -35 59.5 -83t44.5 -96q16 -38 32.5 -70.5t35.5 -49.5q28 -25 78.5 -2.5t145.5 128.5q71 92 73 94q21 23 44 2q23 -20 2 -42q-67 -87 -73 -95q-119 -132 -191 -152.5 t-118 21.5q-29 23 -48 61t-37 82q-29 66 -66 126t-107 63h-27q-28 -4 -31 27q-4 30 27 34q12 2 37 2q173 5 281 62q104 53 112 152q3 76 -25 128q-29 51 -79 73q-48 24 -112 15q-76 -19 -137 -75q-111 -99 -210 -310q-47 -98 -90.5 -212.5t-83.5 -236.5q-7 -21 -30 -21 q-6 -2 -16 -2q-28 7 -23 36q15 57 31 121t33 128q24 93 47.5 187t50.5 187l-396 -496q-20 -27 -42 -6q-26 19 -5 43zM529 922q24 31 45 63q112 153 196 292q56 99 56 144q0 4 -1 7t-1 5q-6 4 -5 4q-8 4 -18 4q-54 0 -77 -29q-33 -33 -77 -147q-67 -180 -118 -343z" />
<glyph unicode="l" horiz-adv-x="691" d="M-65 170l499 626q33 121 71.5 243t86.5 247q50 127 89 168q42 48 122 48q32 0 50 -11q20 -15 27 -31q9 -13 9 -39q0 -64 -65 -175q-47 -78 -96 -151t-103 -148q-33 -44 -66.5 -89t-70.5 -92q-12 -41 -22.5 -80t-21.5 -79q-19 -65 -37 -128l-36 -126q-53 -179 -18 -272 q15 -36 39 -46q25 -12 65 0q109 38 247 231q19 23 43 6q27 -17 7 -41q-147 -210 -279 -253q-63 -18 -108 2q-50 23 -70 78q-42 111 16 314q18 63 35.5 125.5t35.5 125.5l6 17l-6 -6l-402 -501q-20 -27 -42 -6q-26 19 -5 43zM650 1265q-33 -86 -60.5 -169t-54.5 -165 q11 12 40 54q115 153 195 292q58 100 58 144q0 8 -4 12q0 1 -1 2l-1 2q-8 4 -19 4q-53 0 -79 -29q-31 -35 -74 -147z" />
<glyph unicode="m" horiz-adv-x="2051" d="M-69 170q531 682 660 731q66 22 115 3q51 -21 76 -84q26 -72 15 -191q153 213 283 270q73 31 130 13q60 -20 92 -85q35 -76 27 -202q159 220 297 274q74 29 131 9q57 -21 87 -83q57 -121 -2 -343q-81 -302 -60 -409q5 -33 18 -42q10 -5 36 4q68 33 170 162l66 83 q18 25 42 7q26 -22 6 -44l-66 -83q-112 -144 -193 -180q-54 -20 -90 0q-37 20 -50 82q-24 127 63 436q52 202 6 300q-20 40 -54 54q-39 10 -87 -9q-71 -28 -158.5 -116t-182.5 -247l-110 -487q-4 -30 -35 -23q-31 8 -23 36l108 490l2 2q42 202 -4 304q-19 38 -54 52 q-38 9 -88 -11q-152 -67 -330 -363l-110 -487q-4 -30 -35 -23q-31 8 -23 36l108 490l2 2q44 205 8 300q-15 39 -41 49q-27 12 -71 -4q-99 -38 -634 -710q-20 -27 -42 -6q-26 19 -5 43z" />
<glyph unicode="n" horiz-adv-x="1521" d="M-66 170q547 688 661 731q66 22 115 3q51 -21 76 -84q26 -71 15 -193q154 217 295 272q74 29 131 9q57 -21 87 -83q58 -123 -2 -343q-81 -302 -60 -409q5 -33 18 -42q10 -5 36 4q71 34 170 162l54 69q18 25 44 6q22 -19 6 -44l-56 -68q-112 -144 -193 -180q-54 -20 -90 0 q-38 20 -49 82q-25 123 62 436q52 202 6 300q-18 39 -54 54q-39 10 -87 -9q-71 -28 -158.5 -116t-182.5 -247l-110 -487q-4 -30 -35 -23q-31 8 -23 36l108 490l2 2q44 205 8 300q-15 39 -41 49q-27 12 -71 -4q-100 -39 -635 -710q-20 -27 -42 -6q-26 19 -5 43z" />
<glyph unicode="o" horiz-adv-x="1320" d="M-70 170q439 560 456 584q122 177 301 177q78 0 119 -21q56 -28 62 -92q0 -30 -29 -33q-30 0 -33 29q-3 28 -27 42q-26 12 -92 12q-149 0 -251 -149q-113 -161 -127 -405q-2 -13 -2 -36q0 -118 58 -182q52 -59 146 -65q6 0 10.5 -1t10.5 -1q136 3 226 96q94 94 152 288 q32 120 29 243q-74 98 -61 194q5 27 30 27q12 0 16 -3h2q36 -9 56 -66q14 -46 17 -110q0 -5 1 -10t1 -9q22 -29 58 -50q39 -22 114 -16t117 60l48 60q18 26 41 6q26 -18 7 -41l-46 -60q-58 -76 -153.5 -85.5t-156.5 22.5l-16 10q-8 5 -15 11q-7 -107 -31 -199 q-61 -211 -166 -316q-111 -111 -268 -111h-27q-124 10 -187 86q-73 82 -73 222v38q6 103 28 192l-298 -375q-20 -27 -42 -6q-26 19 -5 43z" />
<glyph unicode="p" horiz-adv-x="1222" d="M-69 170l584 734q18 23 44 6q14 -14 8 -33l-60 -239q156 219 293 276q73 30 131 14q59 -19 91 -85q55 -125 -10 -361q-83 -297 -63 -409q6 -32 21 -42q9 -7 33 4q70 32 173 162l64 81q17 24 44 7q21 -20 4 -44l-64 -81q-111 -142 -196 -180q-51 -21 -89 0q-37 22 -50 82 q-11 57 3 164.5t62 271.5q58 221 12 320q-18 38 -52 52q-39 10 -91 -12q-74 -33 -169 -133.5t-197 -275.5l-268 -1028q-8 -31 -37 -22q-28 7 -23 37l270 1031v2l73 283l-19 -25l-475 -594q-20 -27 -42 -6q-26 19 -5 43z" />
<glyph unicode="q" horiz-adv-x="1072" d="M-68 170l447 563q103 102 169 134.5t134 50.5q71 18 141.5 8.5t122.5 -62.5q1 -2 2.5 -3.5t3.5 -2.5v-2q25 -28 37 -63q-2 3 4 -14l40 118q10 29 39 19q31 -8 19 -37l-162 -480l-166 -558q42 68 87 127l83 103v2l152 193q17 25 41 6q25 -18 6 -44l-149 -193l-2 -2 l-83 -105q-29 -35 -69.5 -97t-82.5 -142q-28 -57 -55 -120t-47 -129l-6 -21q-8 -29 -37 -20q-28 10 -21 39l6 17v2l202 680q-29 -27 -44 -39q-90 -73 -177 -103q-82 -31 -149 -23q-84 10 -135 74q-27 36 -44 81q-57 153 -20 307l-240 -301q-20 -27 -42 -6q-26 19 -5 43z M873 428l89 260q-23 3 -23 29q0 35 -8 58q-10 22 -25 41q-4 4 -6 7q-38 38 -92 44.5t-110 -7.5q-61 -16 -117 -47t-153.5 -124.5t-142.5 -244.5q-47 -149 10 -294q15 -39 36 -65q39 -48 93 -54t123 19q74 30 158 95q48 39 83 86q36 52 58 112l25 74l2 7v4z" />
<glyph unicode="r" horiz-adv-x="1484" d="M-67 170q545 700 669 736q62 22 115 4q51 -24 77 -85q28 -80 14 -212l15 27q81 142 201 259l2 2h2q5 7 13 7h12q-6 6 9 -4h2v-3h2v-2h2l2 -2v-2q6 -6 6 -12v-13l-2 -2q-42 -137 0 -226q10 -26 31 -44q81 -55 178.5 -29.5t143.5 79.5l78 93q18 23 42 6q26 -20 6 -44 l-78 -94q-59 -71 -179.5 -105t-227.5 46q-29 20 -52 69q-28 66 -21 160q-70 -82 -118 -170q-67 -115 -125 -270l-77 -346q-8 -30 -35 -23q-29 7 -25 36l112 495q45 206 8 301q-15 38 -41 50q-28 11 -71 -5q-123 -33 -643 -714q-20 -27 -42 -6q-26 19 -5 43z" />
<glyph unicode="s" horiz-adv-x="841" d="M-69 170l571 720q8 13 28 13q12 0 18 -5.5t8 -13.5q37 -174 112.5 -255.5t138.5 -219.5q37 -77 37 -149q2 -88 -41 -154q-43 -65 -121 -104q-72 -29 -152 -32q-108 -3 -195 45q-80 47 -114 141q-5 29 21 39q29 8 37 -18q26 -72 87 -108q69 -42 164 -38q64 0 127 27 q63 30 94 81q33 47 33 121q-3 53 -31 124q-57 121 -127.5 199.5t-113.5 222.5l-534 -673q-20 -27 -42 -6q-26 19 -5 43z" />
<glyph unicode="t" horiz-adv-x="689" d="M203 939h218q0 3 1 6t1 6l119 524q7 28 37 25q29 -9 23 -38l-118 -523h191q31 0 31 -31t-31 -31h-206l-116 -514q-45 -200 -13 -288q13 -36 38 -44q25 -10 64 6q109 41 251 229q18 23 44 6q22 -18 6 -44q-155 -200 -278 -246q-60 -23 -108 -8q-50 19 -75 80 q-38 108 13 324l62 274q-60 -102 -120.5 -187t-91.5 -122l-164 -210q-18 -26 -44 -6q-21 19 -4 43l164 210q31 39 96 130t124 196q48 81 84 171h-198q-29 0 -29 31t29 31z" />
<glyph unicode="u" horiz-adv-x="1343" d="M-65 170l572 727q14 18 32 13q28 -4 25 -36l-98 -484q-41 -209 8 -305q20 -44 54 -52q39 -11 85 13q145 62 329 361l108 488q6 29 35 23q28 -7 25 -37l-110 -491v-2q-46 -208 -11 -299q15 -37 42 -50q30 -10 71 5q107 39 247 222q19 23 43 6q21 -17 7 -44 q-152 -196 -277 -242q-68 -21 -114 -2q-52 23 -75 85q-29 72 -16 189q-152 -214 -277 -267q-73 -33 -130 -15q-60 20 -92 82q-58 119 -12 345l72 357l-496 -627q-20 -27 -42 -6q-26 19 -5 43z" />
<glyph unicode="v" horiz-adv-x="1800" d="M-71 170q534 710 665 736q60 22 112 4q52 -24 73 -83q42 -109 -6 -331q-3 -17 -9 -36.5t-10 -39.5q-19 -71 -36.5 -152t-9.5 -143q15 -108 136 -94q188 64 292 235q81 135 117 343q-26 39 -40 95v2q0 7 -4 15q-4 20 -4 27q-10 43 -4.5 87.5t62.5 55.5h2q53 10 69 -54 q4 -30 0.5 -65t-4.5 -55l-3 -9v-2q-3 -21 -5 -42t-5 -41q21 -27 42 -43q42 -32 81 -40q42 -13 118.5 -15t152.5 77l123 157q18 20 44 4q21 -20 4 -42l-122 -156q-89 -98 -187 -99.5t-150 14.5q-52 14 -102 52q-5 4 -9.5 7.5t-8.5 8.5q-39 -186 -115 -313 q-120 -194 -328 -261q-2 0 -3.5 -1t-4.5 -1q-105 -12 -150.5 30.5t-53.5 115.5q-9 70 9 157t37 159q6 21 10.5 41t10.5 36q43 204 8 293q-16 38 -42 48q-23 11 -66 -2q-118 -24 -639 -717q-20 -27 -42 -6q-26 19 -5 43zM1269 735q3 18 5 44.5t-1 45.5q-1 2 3 6 q-26 -5 -13 -71q2 -14 6 -25z" />
<glyph unicode="w" horiz-adv-x="2226" d="M-67 170q509 707 658 736q59 22 110 4q48 -24 73 -83q39 -106 -6 -320q-6 -18 -9.5 -34t-7.5 -33q-15 -58 -30.5 -127.5t-15.5 -131.5q0 -63 26.5 -106.5t100.5 -43.5q100 0 172 92q69 88 106 249q0 9 7 33l93 488q6 28 35 25q31 -8 25 -35l-93 -488v-2q-1 -7 -6 -34 q-8 -40 -5 -81q3 -86 22 -148q27 -89 73 -102q20 -4 30 -2q157 5 278 200q50 78 82 179.5t51 217.5q-12 14 -25 28.5t-25 31.5q-17 24 -27 63q-8 35 -2 64q11 39 42 60q22 17 54 23q46 11 60 -46q6 -30 2.5 -70t-4.5 -58l-2 -9q-5 -46 -8 -66q61 -58 114 -67 q181 -57 308 104l61 78q19 24 44 6q24 -21 4 -44l-59 -77q-152 -188 -368 -127q-56 8 -115 56q-45 -238 -135 -380q-137 -220 -326 -228q-27 0 -48 6q-79 18 -111 128q-9 41 -19 92q-27 -58 -65 -106q-90 -115 -220 -115q-109 0 -148 61.5t-39 149.5q0 68 15.5 141.5 t30.5 134.5q12 46 16 62q43 200 9 287q-12 33 -40 48q-24 8 -64 -4q-119 -20 -632 -717q-20 -27 -42 -6q-26 19 -5 43zM1702 719q9 -9 11 -15l2 13v8q3 15 5.5 49.5t-1.5 56.5q-10 -4 -19 -11q-14 -10 -16 -24q-6 -20 2 -36q6 -28 16 -41z" />
<glyph unicode="x" horiz-adv-x="1608" d="M-69 170q420 600 557 675.5t282.5 65.5t207.5 -111q43 -66 50 -173q24 40 60 88q79 96 169 142t131 55h2q92 14 164 -6q72 -22 126 -86q20 -23 -4 -41q-27 -19 -43 4q-44 49 -96 64q-54 17 -137 5q-36 -7 -114 -48.5t-150 -128.5q-45 -55 -78 -127.5t-42 -167.5 q-4 -46 -4 -71v-2q0 -123 41 -189q52 -77 154 -87q9 0 17.5 -1t17.5 -1q98 0 181 46q72 40 131 112v2l70 89q18 22 44 4q21 -19 4 -43l-68 -87l-3 -2q-66 -84 -149 -129q-96 -51 -210 -51q-29 0 -39 2q-137 14 -200 115q-44 68 -52 173q-22 -43 -60 -88q-78 -96 -167.5 -142 t-131.5 -54q-94 -15 -166 6q-76 22 -125 84q-16 23 4 42q26 20 44 -4q43 -50 96 -65q51 -17 137 -4q35 6 113 48t150 129q44 54 77.5 126.5t43.5 168.5q4 46 4 70v3q0 120 -44 189q-48 74 -169.5 85.5t-243 -61t-535.5 -660.5q-20 -27 -42 -6q-26 19 -5 43z" />
<glyph unicode="y" horiz-adv-x="1329" d="M1021 87q-106 -117 -227 -117q-103 2 -141 50t-36 123q1 59 20 126t40 130q23 65 34 110q44 201 8 295q-12 35 -39 48q-26 10 -69 -2q-141 -28 -633 -717q-20 -27 -42 -6q-26 19 -5 43q489 701 659 736q61 23 112 4q51 -23 75 -85q42 -106 -6 -329q-10 -41 -35 -116 q-21 -60 -39 -123t-20 -114q0 -112 119 -112q92 -3 179 98q52 57 88.5 131.5t52.5 138.5l2 2q20 97 50 216q18 76 35 146.5t33 131.5q7 30 38 23q29 -8 20 -37q-14 -55 -31 -127.5t-35 -151.5q-25 -105 -52 -218q-25 -104 -81 -329q110 56 182 132l77 98q17 23 44 6 q22 -21 4 -44l-77 -97q-66 -79 -253 -187q-20 -64 -66 -198.5t-94 -214.5q-87 -145 -174 -164q-42 -6 -73 13q-29 17 -45 58q-45 100 27 237q33 70 101.5 132t115 94t84.5 55t71 53q8 26 18 79q-13 -16 -16 -20zM974 -146l16 72q-18 -14 -38 -24t-57 -34.5t-101 -82 t-93 -118.5q-57 -111 -25 -187q9 -21 20 -29q14 -7 29 -5q64 16 135 135q42 69 114 273z" />
<glyph unicode="z" horiz-adv-x="1307" d="M-67 170l414 534q172 221 277 223t227 -26q99 -22 212 -32t239 57q24 16 41 -12q12 -24 -8 -37l-793 -744q56 18 93 23q140 18 243 -63q110 -84 206 -49h2q46 16 88.5 56t83.5 91l110 139q18 24 44 6q23 -20 4 -43l-110 -141q-45 -57 -94.5 -100.5t-104.5 -62.5 q0 -2 -2 -2l-1 -1q-130 -44 -263 60q-86 65 -198 50q-125 -20 -272 -122q-27 -15 -43 8q-15 23 6 41l851 797q-96 -22 -182.5 -9.5t-163.5 30.5q-107 24 -197 23.5t-245 -195.5q0 -2 -2 -2l-415 -534q-20 -27 -42 -6q-26 19 -5 43z" />
<glyph unicode="{" horiz-adv-x="600" d="M46 469q141 120 174.5 242.5t45.5 246.5q12 130 48.5 262.5t192.5 264.5q21 23 43 -2t-4 -44q-142 -122 -175 -243.5t-45 -244.5q-11 -128 -45 -255t-175 -256q88 -131 69.5 -258t-57.5 -254q-39 -121 -56 -242t73 -240q19 -23 -6 -41q-23 -18 -42 6q-103 136 -86.5 270 t57.5 266q39 120 56.5 241t-72.5 238q-20 24 4 43z" />
<glyph unicode="|" horiz-adv-x="506" d="M476 1456l-416 -2032q-9 -34 -37 -25q-28 7 -23 35l415 2034q8 28 38 25q29 -8 23 -37z" />
<glyph unicode="}" horiz-adv-x="604" d="M511 422q-142 -122 -175 -243.5t-45 -243.5q-13 -132 -49 -263.5t-192 -266.5q-23 -19 -44 4q-15 21 4 44q141 120 174.5 242.5t46.5 245.5q10 125 44 252.5t176 257.5q-90 129 -71 256.5t60 256.5q37 121 54.5 242t-72.5 238q-21 25 6 43q23 21 43 -6q105 -138 87 -271 t-60 -265q-39 -122 -55.5 -243t72.5 -239q19 -22 -4 -41z" />
<glyph unicode="~" horiz-adv-x="738" d="M78 366q45 83 81 129q42 56 77 81q82 55 133 -16q14 -22 24 -50.5t19 -57.5q17 -65 32 -83q7 -10 20 2q26 19 61 74q40 69 70 129q16 26 42 13q26 -18 12 -42q-35 -67 -72 -131q-39 -64 -75 -91q-64 -47 -108 8q-15 18 -24 46t-18 58q-21 68 -33 89q-17 21 -48 2 q-25 -17 -62 -68q-38 -48 -77 -121q-12 -27 -41 -12q-23 12 -13 41z" />
<glyph unicode="&#xa7;" horiz-adv-x="767" d="M393 906q-80 52 -152 14q-25 -11 -48 -39q-18 -26 -21 -63q-8 -113 150 -247q1 0 2.5 -1t3.5 -1q76 -57 154 -16q25 9 48 39q16 23 20 60q8 115 -157 254zM58 162q28 -70 80.5 -101.5t110.5 -29.5q80 0 148 50q67 51 81 125q10 62 -25 138t-139 157q-117 90 -162 173 t-40 149q2 50 31 93q30 40 71 60q32 15 77 19q-132 139 -106 278q17 100 106 164q81 63 183 63q74 0 142.5 -40.5t104.5 -130.5q10 -30 -17 -39q-29 -13 -39 16q-29 70 -81.5 101.5t-109.5 31.5q-81 -4 -148 -52q-70 -53 -81 -124q-11 -63 24 -137.5t140 -155.5 q117 -90 161.5 -173.5t40.5 -148.5q-3 -53 -31 -91q-23 -36 -71 -61q-35 -18 -79 -18q133 -142 108 -283q-18 -95 -106 -164q-84 -58 -183 -61q-75 0 -143 39.5t-104 131.5q-9 29 17 40q28 12 39 -19z" />
<glyph unicode="&#xa8;" horiz-adv-x="343" d="M171 1385l-79 -262q-13 -29 -39 -19q-29 8 -21 38l81 259q9 28 40 21q31 -10 18 -37zM300 1385l-79 -262q-13 -29 -39 -19q-29 8 -21 38l81 259q9 28 39 21q31 -9 19 -37z" />
<glyph unicode="&#xab;" horiz-adv-x="877" d="M27 351l473 235q28 15 42 -13q9 -31 -15 -41l-425 -212l344 -233q24 -15 9 -44q-19 -21 -44 -8l-386 262q-32 27 2 54zM334 351l473 235q28 15 42 -13q9 -31 -15 -41l-425 -212l344 -233q24 -15 9 -44q-19 -21 -44 -8l-386 262q-28 29 2 54z" />
<glyph unicode="&#xb0;" horiz-adv-x="586" d="M335 1303q17 5 31 6t28 -1q55 -7 85 -64q22 -45 25 -106q1 -21 -0.5 -44.5t-4.5 -46t-7 -42t-8 -34.5q-8 -23 -19 -48.5t-24 -50.5t-29 -48.5t-35 -42.5q-69 -72 -153 -72q-23 0 -48 7q-26 8 -49 27t-37 48q-22 49 -22 110q0 55 15 105q12 45 41 95.5t64 95.5 q70 84 146 106h1zM141 991q-6 -21 -9.5 -43.5t-3.5 -46.5q0 -53 16 -84q17 -35 50 -45q6 -2 14 -3t16 -1q57 0 109 55q32 35 55 81.5t38 85.5q8 26 14 65.5t4 79.5q-3 52 -18 82v-1q-17 29 -41 32q-16 3 -35 -3q-31 -9 -60.5 -32t-55.5 -55q-34 -39 -58 -84t-35 -84v1z" />
<glyph unicode="&#xb1;" horiz-adv-x="682" d="M57 136q-29 0 -29 29q0 31 29 31h476q31 0 31 -31q0 -29 -31 -29h-476zM297 281l52 193h-200q-29 0 -29 29q0 31 29 31h216l56 207q8 30 38 22q28 -8 20 -38l-52 -191h198q31 0 31 -31q0 -29 -31 -29h-214l-56 -209q-8 -28 -36 -20q-30 8 -22 36z" />
<glyph unicode="&#xb2;" horiz-adv-x="574" d="M468 781q-32 14 -64 20.5t-61 5.5q-59 -8 -124 -52l-8 -2l-3 -2h-11l-7 3q-2 2 -3 2q-2 0 -6.5 0.5t-6.5 0.5v11q-1 1 -3 2t-2 2v19l1 18h8q44 44 92 92.5t97 98t97 97.5t91 92v-1q32 33 51.5 64t27.5 62q8 24 8 39q0 11 -7 30q-10 28 -32 44q-11 6 -26.5 10t-32.5 4 q-9 0 -19 -2q-39 -2 -69.5 -15t-50.5 -34q-37 -47 -33 -114q2 -35 -32 -36q-15 0 -24.5 9t-11.5 23q-2 45 11 89t39 74q27 30 68.5 50t92.5 24h29q56 0 94 -25q23 -14 39.5 -34.5t24.5 -44.5q8 -26 8 -53q0 -15 -2 -29t-6 -28q-11 -36 -37.5 -77.5t-61.5 -76.5v1 q-35 -36 -68.5 -70.5t-68.5 -69.5v1q-31 -32 -63 -64t-64 -65q39 2 79 -6t79 -28v1q71 -33 110 -32q15 1 27 9t22 26q19 32 47 14q27 -17 13 -47q-18 -26 -46.5 -46.5t-60.5 -22.5q-59 -3 -141 40v-1z" />
<glyph unicode="&#xb3;" horiz-adv-x="525" d="M577 1045q-8 -100 -53.5 -167t-108.5 -100q-28 -15 -56.5 -23.5t-57.5 -9.5q-29 -2 -57.5 2.5t-53.5 15.5q-50 22 -79 62.5t-34 99.5q-2 33 29 36q16 2 27 -5t13 -27q8 -76 73 -105q28 -15 78 -12q49 3 84 25q47 26 82.5 83t46.5 134q0 25 -6 54t-17 46q-3 -2 -7.5 -4 t-8.5 -4h1q-19 -11 -39.5 -20t-40.5 -14q-18 -3 -34 -3q-26 0 -45 8q-60 24 -59 84v6q5 44 46 60v-1q17 9 38.5 13t44.5 2h5q27 -3 50 -10t46 -20q11 17 17.5 37.5t6.5 44.5q0 6 -0.5 15.5t-2.5 17.5q-4 14 -12.5 28t-20.5 24q-16 14 -33 20t-38 8q-23 3 -44.5 -0.5 t-40.5 -11.5v1q-25 -13 -44.5 -31.5t-32.5 -43.5h1q-5 -17 -17.5 -21.5t-29.5 6.5h1q-34 17 -15 46v-1q17 33 45.5 60t63.5 44q26 13 57 18t63 3q64 -6 108 -44q20 -17 34.5 -41t20.5 -53q5 -25 5 -49q0 -36 -9.5 -66.5t-29.5 -59.5q23 -29 32.5 -70.5t7.5 -83.5v-3z M380 1213q-36 2 -49 -6q-4 -3 -7 -9q2 -14 11 -16q10 -3 21 -4t22 2q27 4 54 20q-11 5 -24.5 8t-27.5 5z" />
<glyph unicode="&#xb4;" horiz-adv-x="474" d="M440 1408q-58 -112 -158 -174q-99 -66 -249 -81q-30 -4 -33 27q-1 29 27 33q132 14 224 73q83 50 133 149q14 27 42 15q26 -12 14 -42z" />
<glyph unicode="&#xb6;" horiz-adv-x="906" d="M605 1163q-172 4 -348.5 -14t-194.5 -113q-10 -45 13 -78.5t61 -53.5q52 -28 114 -31q16 52 35.5 112.5t41.5 133.5q3 10 10 15q23 20 43 -3q105 -124 79 -215q-14 -46 -54.5 -71.5t-93.5 -31.5q-5 -1 -8.5 -1.5t-6.5 -0.5l-73 -232q-32 -104 -69 -221.5t-93 -299.5 q-10 -30 -39 -21q-28 9 -19 39q18 61 64 208t98 314q16 51 32 102.5t34 112.5q-68 6 -123 36q-56 29 -87.5 79.5t-18.5 119.5l1 2q15 74 92.5 111t182.5 51.5t220.5 13t209.5 -4.5q94 -5 132 -3q31 0 31 -31q1 -30 -29 -30q-26 -2 -60.5 -1t-75.5 4l-39 1l-313 -1119 q-9 -31 -38 -22q-30 8 -21 39zM368 1046l-53 -170q72 14 86 57q12 44 -33 113z" />
<glyph unicode="&#xb8;" horiz-adv-x="244" d="M221 6l-4 -18q-1 -5 -2 -8.5t-2 -8.5q-5 -19 -12 -45.5t-11 -43.5q17 16 22 20t9 6q25 14 42 14q18 0 32 -18q25 -34 25 -81q0 -20 -4 -40t-15 -54q-17 -45 -50 -103.5t-79 -127.5q-8 -11 -19 -13.5t-23 5.5q-10 8 -11.5 19.5t3.5 22.5q45 66 76 121.5t47 95.5 q5 14 8.5 29t3.5 26q0 32 -25 41q-42 -20 -63 -20t-43 24q-5 10 -4.5 24.5t6.5 31.5q7 19 13.5 39.5t13.5 42.5v-1q5 9 6 20h60z" />
<glyph unicode="&#xb9;" horiz-adv-x="321" d="M324 782q-8 -34 -41 -26q-35 9 -26 42l154 572q-31 -26 -62 -52.5t-61 -52.5q-11 -10 -21.5 -19t-21.5 -18h1q-24 -24 -50 4q-8 11 -5.5 25.5t16.5 28.5l244 210h-1q11 11 32 9q37 -14 25 -44v1z" />
<glyph unicode="&#xbb;" horiz-adv-x="877" d="M824 272l-473 -235q-28 -15 -42 13q-9 31 15 41l425 212l-344 233q-24 15 -9 44q19 21 44 8l386 -262q32 -27 -2 -54zM517 272l-473 -235q-28 -15 -42 13q-9 31 15 41l425 212l-344 233q-24 15 -9 44q19 21 44 8l386 -262q28 -29 -2 -54z" />
<glyph unicode="&#xbc;" horiz-adv-x="994" d="M537 250h165q9 45 18 89t20 89q11 47 21 92.5t20 90.5q2 16 12.5 24.5t27.5 3.5q36 -9 26 -42v1q-10 -48 -19.5 -93t-19.5 -91q-8 -42 -16.5 -80.5t-17.5 -83.5h138q34 0 34 -35t-34 -35h-155q-9 -43 -18.5 -86.5t-18.5 -86.5q-9 -35 -41 -27q-33 9 -27 42q10 42 18 78.5 t17 79.5h-203q-18 0 -25.5 9t-7.5 26v4q0 4 0.5 5.5t2.5 5.5l-1 -1q56 121 114 248t113 248q19 30 50 19q31 -19 14 -47l1 1zM1068 1470l-982 -1441q-21 -28 -43 -8q-23 17 -8 41l981 1443q18 22 45 8q23 -19 7 -43zM371 782q-8 -34 -41 -26q-35 9 -26 42l154 572 q-31 -26 -62 -52.5t-61 -52.5q-11 -10 -21.5 -19t-21.5 -18h1q-24 -24 -50 4q-8 11 -5.5 25.5t16.5 28.5l244 210h-1q11 11 32 9q37 -14 25 -44v1z" />
<glyph unicode="&#xbd;" horiz-adv-x="994" d="M696 -8q-32 14 -64 20.5t-61 5.5q-59 -8 -124 -52q-7 -3 -12.5 -7.5t-12.5 -4.5q-12 0 -22 12t-10 25q0 8 4 13t12 16q44 44 92 92.5t97 98t97 97.5t91 92v-1q32 33 51.5 64t27.5 62q8 24 8 39q0 11 -7 30q-10 28 -32 44q-11 6 -26.5 10t-32.5 4q-9 0 -19 -2 q-39 -2 -69.5 -15t-50.5 -34q-37 -47 -33 -114q2 -35 -32 -36q-15 0 -24.5 9t-11.5 23q-2 45 11 89t39 74q27 30 68.5 50t92.5 24h29q56 0 94 -25q23 -14 39.5 -34.5t24.5 -44.5q8 -26 8 -53q0 -15 -2 -29t-6 -28q-11 -36 -37.5 -77.5t-61.5 -76.5v1q-31 -30 -49.5 -49 t-32.5 -33.5t-26 -27.5t-29 -30v1q-31 -32 -63 -64t-64 -65q39 2 79 -6t79 -28v1q71 -33 110 -32q15 1 27 9t22 26q19 32 47 14q27 -17 13 -47q-18 -26 -46.5 -46.5t-60.5 -22.5q-59 -3 -141 40v-1zM1068 1470l-982 -1441q-21 -28 -43 -8q-23 17 -8 41l981 1443q18 22 45 8 q23 -19 7 -43zM371 782q-8 -34 -41 -26q-35 9 -26 42l154 572q-31 -26 -62 -52.5t-61 -52.5q-11 -10 -21.5 -19t-21.5 -18h1q-24 -24 -50 4q-8 11 -5.5 25.5t16.5 28.5l244 210h-1q11 11 32 9q37 -14 25 -44v1z" />
<glyph unicode="&#xbe;" horiz-adv-x="1070" d="M613 250h165q9 45 18 89t20 89q11 47 21 92.5t20 90.5q2 16 12.5 24.5t27.5 3.5q36 -9 26 -42v1q-10 -48 -19.5 -93t-19.5 -91q-8 -42 -16.5 -80.5t-17.5 -83.5h138q34 0 34 -35t-34 -35h-155q-9 -43 -18.5 -86.5t-18.5 -86.5q-9 -35 -41 -27q-33 9 -27 42q10 42 18 78.5 t17 79.5h-203q-18 0 -25.5 9t-7.5 26v4q0 4 0.5 5.5t2.5 5.5l-1 -1q56 121 114 248t113 248q19 30 50 19q31 -19 14 -47l1 1zM1144 1470l-982 -1441q-21 -28 -43 -8q-23 17 -8 41l981 1443q18 22 45 8q23 -19 7 -43zM598 1034q-8 -100 -53.5 -167t-108.5 -100 q-58 -31 -114 -33q-29 -2 -57.5 2.5t-53.5 15.5q-50 22 -79 62.5t-34 99.5q-2 33 29 36q16 2 27 -5t13 -27q8 -76 73 -105q28 -15 78 -12q49 3 84 25q47 26 82.5 83t46.5 134q0 25 -6 54t-17 46q-3 -2 -7.5 -4t-8.5 -4h1q-19 -11 -39.5 -20t-40.5 -14q-18 -3 -34 -3 q-26 0 -45 8q-60 24 -59 84v6q2 22 14 37t32 23v-1q17 9 38.5 13t44.5 2h5q27 -3 50 -10t46 -20q11 17 17.5 37.5t6.5 44.5q0 6 -0.5 15.5t-2.5 17.5q-4 14 -12.5 28t-20.5 24q-28 25 -71 28q-23 3 -45 -0.5t-40 -11.5v1q-25 -13 -44.5 -31.5t-32.5 -43.5h1 q-5 -17 -17.5 -21.5t-29.5 6.5h1q-34 17 -15 46v-1q17 33 45.5 60t63.5 44q26 13 57 18t63 3q64 -6 108 -44q20 -17 34.5 -41t20.5 -53q5 -25 5 -49q0 -36 -9.5 -66.5t-29.5 -59.5q23 -29 32.5 -70.5t7.5 -83.5v-3zM401 1202q-17 1 -29.5 0t-19.5 -6q-3 -3 -7 -10 q0 -13 11 -15q10 -3 21 -4t22 2q28 4 53 20q-11 5 -24 8t-27 5z" />
<glyph unicode="&#xc0;" d="M823 199q-40 24 -57 40q-153 -199 -301 -248q-128 -47 -242 1.5t-215 154.5q-19 22 0 44q22 17 44 -2q88 -94 186 -137t206 -4q138 48 281 234q-67 82 -67 171q0 52 21 93q24 43 69 65q70 32 174 -9q30 59 59.5 119.5t59.5 121.5q133 276 246 460.5t260 196.5h9 q29 -10 23 -38l-262 -1072q176 115 303 279q19 21 42 4q24 -18 6 -42q-80 -102 -177 -185.5t-195 -142.5l-75 -304q-8 -30 -37 -23q-19 3 -23 26q-13 125 -33 218q-199 -80 -305 -21zM1167 303q7 3 36 19q10 4 20 9.5t21 11.5l264 1086q-105 -39 -201 -207t-210 -406 q-30 -61 -60 -121.5t-61 -119.5q21 -14 25 -16q87 -61 146 -193q4 -16 9.5 -31t10.5 -32zM1111 278q-8 28 -23 65q-50 118 -120 164l-21 14q-78 -141 -143 -232q17 -17 48 -36q80 -45 259 25zM762 334q63 92 131 214q-74 29 -120 7q-26 -11 -40 -38t-14 -64q3 -68 43 -119z M1201 168l22 96q-6 -5 -39 -21q10 -42 17 -75zM1386 1872q26 -101 71 -152q44 -55 110 -66q29 -8 23 -35q-4 -33 -36 -25q-86 17 -143 87q-57 67 -85 174q-5 31 23 38q29 7 37 -21z" />
<glyph unicode="&#xc1;" d="M823 199q-40 24 -57 40q-153 -199 -301 -248q-128 -47 -242 1.5t-215 154.5q-19 22 0 44q22 17 44 -2q88 -94 186 -137t206 -4q138 48 281 234q-67 82 -67 171q0 52 21 93q24 43 69 65q70 32 174 -9q30 59 59.5 119.5t59.5 121.5q133 276 246 460.5t260 196.5h9 q29 -10 23 -38l-262 -1072q176 115 303 279q19 21 42 4q24 -18 6 -42q-80 -102 -177 -185.5t-195 -142.5l-75 -304q-8 -30 -37 -23q-19 3 -23 26q-13 125 -33 218q-199 -80 -305 -21zM1167 303q7 3 36 19q10 4 20 9.5t21 11.5l264 1086q-105 -39 -201 -207t-210 -406 q-30 -61 -60 -121.5t-61 -119.5q21 -14 25 -16q87 -61 146 -193q4 -16 9.5 -31t10.5 -32zM1111 278q-8 28 -23 65q-50 118 -120 164l-21 14q-78 -141 -143 -232q17 -17 48 -36q80 -45 259 25zM762 334q63 92 131 214q-74 29 -120 7q-26 -11 -40 -38t-14 -64q3 -68 43 -119z M1201 168l22 96q-6 -5 -39 -21q10 -42 17 -75zM1878 1885q-58 -112 -158 -174q-99 -66 -249 -81q-30 -4 -33 27q-1 29 27 33q132 14 224 73q83 50 133 149q14 27 42 15q26 -12 14 -42z" />
<glyph unicode="&#xc2;" d="M823 199q-40 24 -57 40q-153 -199 -301 -248q-128 -47 -242 1.5t-215 154.5q-19 22 0 44q22 17 44 -2q88 -94 186 -137t206 -4q138 48 281 234q-67 82 -67 171q0 52 21 93q24 43 69 65q70 32 174 -9q30 59 59.5 119.5t59.5 121.5q133 276 246 460.5t260 196.5h9 q29 -10 23 -38l-262 -1072q176 115 303 279q19 21 42 4q24 -18 6 -42q-80 -102 -177 -185.5t-195 -142.5l-75 -304q-8 -30 -37 -23q-19 3 -23 26q-13 125 -33 218q-199 -80 -305 -21zM1167 303q7 3 36 19q10 4 20 9.5t21 11.5l264 1086q-105 -39 -201 -207t-210 -406 q-30 -61 -60 -121.5t-61 -119.5q21 -14 25 -16q87 -61 146 -193q4 -16 9.5 -31t10.5 -32zM1111 278q-8 28 -23 65q-50 118 -120 164l-21 14q-78 -141 -143 -232q17 -17 48 -36q80 -45 259 25zM762 334q63 92 131 214q-74 29 -120 7q-26 -11 -40 -38t-14 -64q3 -68 43 -119z M1201 168l22 96q-6 -5 -39 -21q10 -42 17 -75zM1298 1606l349 293q26 19 44 -4q6 -6 6 -12l108 -289q9 -29 -19 -40q-28 -12 -39 19l-93 251l-316 -265q-24 -21 -44 4q-15 24 4 43z" />
<glyph unicode="&#xc3;" d="M823 199q-40 24 -57 40q-153 -199 -301 -248q-128 -47 -242 1.5t-215 154.5q-19 22 0 44q22 17 44 -2q88 -94 186 -137t206 -4q138 48 281 234q-67 82 -67 171q0 52 21 93q24 43 69 65q70 32 174 -9q30 59 59.5 119.5t59.5 121.5q133 276 246 460.5t260 196.5h9 q29 -10 23 -38l-262 -1072q176 115 303 279q19 21 42 4q24 -18 6 -42q-80 -102 -177 -185.5t-195 -142.5l-75 -304q-8 -30 -37 -23q-19 3 -23 26q-13 125 -33 218q-199 -80 -305 -21zM1167 303q7 3 36 19q10 4 20 9.5t21 11.5l264 1086q-105 -39 -201 -207t-210 -406 q-30 -61 -60 -121.5t-61 -119.5q21 -14 25 -16q87 -61 146 -193q4 -16 9.5 -31t10.5 -32zM1111 278q-8 28 -23 65q-50 118 -120 164l-21 14q-78 -141 -143 -232q17 -17 48 -36q80 -45 259 25zM762 334q63 92 131 214q-74 29 -120 7q-26 -11 -40 -38t-14 -64q3 -68 43 -119z M1201 168l22 96q-6 -5 -39 -21q10 -42 17 -75zM1274 1680q45 83 81 129q42 56 77 81q82 55 133 -16q14 -22 24 -50.5t19 -57.5q17 -65 32 -83q7 -10 20 2q26 19 61 74q40 69 70 129q16 26 42 13q26 -18 12 -42q-35 -67 -72 -131q-39 -64 -75 -91q-64 -47 -108 8 q-15 18 -24 46t-18 58q-21 68 -33 89q-17 21 -48 2q-25 -17 -62 -68q-38 -48 -77 -121q-12 -27 -41 -12q-23 12 -13 41z" />
<glyph unicode="&#xc4;" d="M823 199q-40 24 -57 40q-153 -199 -301 -248q-128 -47 -242 1.5t-215 154.5q-19 22 0 44q22 17 44 -2q88 -94 186 -137t206 -4q138 48 281 234q-67 82 -67 171q0 52 21 93q24 43 69 65q70 32 174 -9q30 59 59.5 119.5t59.5 121.5q133 276 246 460.5t260 196.5h9 q29 -10 23 -38l-262 -1072q176 115 303 279q19 21 42 4q24 -18 6 -42q-80 -102 -177 -185.5t-195 -142.5l-75 -304q-8 -30 -37 -23q-19 3 -23 26q-13 125 -33 218q-199 -80 -305 -21zM1167 303q7 3 36 19q10 4 20 9.5t21 11.5l264 1086q-105 -39 -201 -207t-210 -406 q-30 -61 -60 -121.5t-61 -119.5q21 -14 25 -16q87 -61 146 -193q4 -16 9.5 -31t10.5 -32zM1111 278q-8 28 -23 65q-50 118 -120 164l-21 14q-78 -141 -143 -232q17 -17 48 -36q80 -45 259 25zM762 334q63 92 131 214q-74 29 -120 7q-26 -11 -40 -38t-14 -64q3 -68 43 -119z M1201 168l22 96q-6 -5 -39 -21q10 -42 17 -75zM1600 1901l-79 -262q-13 -29 -39 -19q-29 8 -21 38l81 259q9 28 40 21q31 -10 18 -37zM1729 1901l-79 -262q-13 -29 -39 -19q-29 8 -21 38l81 259q9 28 39 21q31 -9 19 -37z" />
<glyph unicode="&#xc5;" d="M823 199q-40 24 -57 40q-153 -199 -301 -248q-128 -47 -242 1.5t-215 154.5q-19 22 0 44q22 17 44 -2q88 -94 186 -137t206 -4q138 48 281 234q-67 82 -67 171q0 52 21 93q24 43 69 65q70 32 174 -9q30 59 59.5 119.5t59.5 121.5q133 276 246 460.5t260 196.5h9 q29 -10 23 -38l-262 -1072q176 115 303 279q19 21 42 4q24 -18 6 -42q-80 -102 -177 -185.5t-195 -142.5l-75 -304q-8 -30 -37 -23q-19 3 -23 26q-13 125 -33 218q-199 -80 -305 -21zM1167 303q7 3 36 19q10 4 20 9.5t21 11.5l264 1086q-105 -39 -201 -207t-210 -406 q-30 -61 -60 -121.5t-61 -119.5q21 -14 25 -16q87 -61 146 -193q4 -16 9.5 -31t10.5 -32zM1111 278q-8 28 -23 65q-50 118 -120 164l-21 14q-78 -141 -143 -232q17 -17 48 -36q80 -45 259 25zM762 334q63 92 131 214q-74 29 -120 7q-26 -11 -40 -38t-14 -64q3 -68 43 -119z M1201 168l22 96q-6 -5 -39 -21q10 -42 17 -75zM1622 1980q27 0 50 -6q47 -16 72 -50q27 -36 27 -85q0 -28 -8 -50q-22 -72 -89 -123t-141 -51q-20 0 -52 8q-46 12 -71 50q-27 32 -27 83q0 24 6 50q21 72 89.5 123t143.5 51zM1655 1914q-10 4 -33 4q-55 0 -106.5 -38 t-66.5 -91q-6 -18 -6 -33q0 -27 15 -48q18 -22 41 -27q18 -4 34 -4q54 0 105 37.5t67 91.5q6 18 6 33q0 25 -14 48q-21 21 -42 27z" />
<glyph unicode="&#xc6;" horiz-adv-x="2443" d="M823 199q-40 24 -57 40q-153 -199 -301 -248q-128 -47 -242 1.5t-215 154.5q-19 22 0 44q22 17 44 -2q88 -94 186 -137t206 -4q138 48 281 234q-67 82 -67 171q0 52 21 93q24 43 69 65q70 32 174 -9q30 59 59.5 119.5t59.5 121.5q133 276 246 460.5t260 196.5h9 q29 -10 23 -38l-262 -1072q176 115 303 279q19 21 42 4q24 -18 6 -42q-80 -102 -177 -185.5t-195 -142.5l-75 -304q-8 -30 -37 -23q-19 3 -23 26q-13 125 -33 218q-199 -80 -305 -21zM1167 303q7 3 36 19q10 4 20 9.5t21 11.5l264 1086q-105 -39 -201 -207t-210 -406 q-30 -61 -60 -121.5t-61 -119.5q21 -14 25 -16q87 -61 146 -193q4 -16 9.5 -31t10.5 -32zM1111 278q-8 28 -23 65q-50 118 -120 164l-21 14q-78 -141 -143 -232q17 -17 48 -36q80 -45 259 25zM762 334q63 92 131 214q-74 29 -120 7q-26 -11 -40 -38t-14 -64q3 -68 43 -119z M1201 168l22 96q-6 -5 -39 -21q10 -42 17 -75zM2519 1327q-10 21 -35 46q-26 18 -63 33q-121 41 -232 29q-107 -10 -179 -72q-24 -22 -33 -32q-73 -75 -87 -153q-15 -75 33 -139q67 43 114 64q73 30 146.5 34t138.5 -36q45 -29 62 -65q10 -20 10 -49q-4 -29 -16 -46 q-23 -39 -75 -62q-90 -44 -199 -19q-117 28 -190 98q-86 -68 -143 -140q-133 -174 -133 -363q-1 -187 127 -322q21 -24 41 -37q120 -94 275 -79q151 12 257 114q9 9 18.5 19.5t19.5 21.5l68 90q22 20 44 4q23 -19 6 -44l-71 -89q-12 -17 -43 -46q-115 -111 -293 -130 q-182 -16 -318 91q-17 11 -48 41q-144 154 -143 366q0 214 145 401q28 33 66.5 72t83.5 75q-61 82 -44 185q19 99 104 187q9 7 17.5 16t17.5 17q89 74 214 87q124 15 260 -33q44 -15 81 -43q39 -33 52 -67q10 -30 -17 -39q-26 -17 -39 14zM2288 1049q-48 30 -107.5 26 t-118.5 -28q-56 -26 -98 -54q63 -53 152 -73q93 -20 162 13q34 18 48 39q6 9 6 19q2 6 -2 18q-8 18 -42 40z" />
<glyph unicode="&#xc7;" horiz-adv-x="880" d="M60 1190q0 -81 31 -135q54 -93 196 -118q20 -3 41.5 -6.5t43.5 -4.5q59 132 143 239q130 172 303 272q156 91 279 52q53 -16 83 -54q33 -43 33 -93q3 -110 -120 -227q-84 -78 -215.5 -139.5t-270.5 -88.5q-109 -21 -196 -21q-11 -28 -21.5 -55.5t-19.5 -54.5 q-27 -86 -58 -216.5t-25 -250.5q4 -111 58 -188.5t193 -71.5q83 6 152 42q73 39 122 99l77 98q19 23 44 6q23 -20 4 -43l-77 -98q-61 -76 -141 -116q-88 -43 -179 -47q-174 -9 -241 85t-73 232q-6 127 25.5 262.5t60.5 225.5q20 62 33 93q-30 0 -71 9q-167 32 -235 147 q-40 68 -39 166q0 31 31 31q29 0 29 -31zM850 1385q-164 -95 -287 -257q-69 -89 -123 -202q56 2 154 21q132 26 256 83t199 129q104 98 104 183q-3 31 -21 54q-18 22 -52 35q-99 28 -230 -46zM443 6l-4 -18q-1 -5 -2 -8.5t-2 -8.5q-5 -19 -12 -45.5t-11 -43.5q17 16 22 20 t9 6q25 14 42 14q18 0 32 -18q25 -34 25 -81q0 -20 -4 -40t-15 -54q-17 -45 -50 -103.5t-79 -127.5q-8 -11 -19 -13.5t-23 5.5q-10 8 -11.5 19.5t3.5 22.5q45 66 76 121.5t47 95.5q5 14 8.5 29t3.5 26q0 32 -25 41q-42 -20 -63 -20t-43 24q-5 10 -4.5 24.5t6.5 31.5 q7 19 13.5 39.5t13.5 42.5v-1q5 9 6 20h60z" />
<glyph unicode="&#xc8;" horiz-adv-x="867" d="M941 1327q-10 21 -35 46q-26 18 -63 33q-121 41 -232 29q-107 -10 -179 -72q-24 -22 -33 -32q-73 -75 -87 -153q-15 -75 33 -139q67 43 114 64q73 30 146.5 34t138.5 -36q45 -29 62 -65q10 -20 10 -49q-4 -29 -16 -46q-23 -39 -75 -62q-90 -44 -199 -19q-117 28 -190 98 q-86 -68 -143 -140q-133 -174 -133 -363q-1 -187 127 -322q21 -24 41 -37q120 -94 275 -79q151 12 257 114q9 9 18.5 19.5t19.5 21.5l68 90q22 20 44 4q23 -19 6 -44l-71 -89q-12 -17 -43 -46q-115 -111 -293 -130q-182 -16 -318 91q-17 11 -48 41q-144 154 -143 366 q0 214 145 401q28 33 66.5 72t83.5 75q-61 82 -44 185q19 99 104 187q9 7 17.5 16t17.5 17q89 74 214 87q124 15 260 -33q44 -15 81 -43q39 -33 52 -67q10 -30 -17 -39q-26 -17 -39 14zM710 1049q-48 30 -107.5 26t-118.5 -28q-56 -26 -98 -54q63 -53 152 -73q93 -20 162 13 q34 18 48 39q6 9 6 19q2 6 -2 18q-8 18 -42 40zM637 1936q26 -101 71 -152q44 -55 110 -66q29 -8 23 -35q-4 -33 -36 -25q-86 17 -143 87q-57 67 -85 174q-5 31 23 38q29 7 37 -21z" />
<glyph unicode="&#xc9;" horiz-adv-x="867" d="M941 1327q-10 21 -35 46q-26 18 -63 33q-121 41 -232 29q-107 -10 -179 -72q-24 -22 -33 -32q-73 -75 -87 -153q-15 -75 33 -139q67 43 114 64q73 30 146.5 34t138.5 -36q45 -29 62 -65q10 -20 10 -49q-4 -29 -16 -46q-23 -39 -75 -62q-90 -44 -199 -19q-117 28 -190 98 q-86 -68 -143 -140q-133 -174 -133 -363q-1 -187 127 -322q21 -24 41 -37q120 -94 275 -79q151 12 257 114q9 9 18.5 19.5t19.5 21.5l68 90q22 20 44 4q23 -19 6 -44l-71 -89q-12 -17 -43 -46q-115 -111 -293 -130q-182 -16 -318 91q-17 11 -48 41q-144 154 -143 366 q0 214 145 401q28 33 66.5 72t83.5 75q-61 82 -44 185q19 99 104 187q9 7 17.5 16t17.5 17q89 74 214 87q124 15 260 -33q44 -15 81 -43q39 -33 52 -67q10 -30 -17 -39q-26 -17 -39 14zM710 1049q-48 30 -107.5 26t-118.5 -28q-56 -26 -98 -54q63 -53 152 -73q93 -20 162 13 q34 18 48 39q6 9 6 19q2 6 -2 18q-8 18 -42 40zM1081 1945q-58 -112 -158 -174q-99 -66 -249 -81q-30 -4 -33 27q-1 29 27 33q132 14 224 73q83 50 133 149q14 27 42 15q26 -12 14 -42z" />
<glyph unicode="&#xca;" horiz-adv-x="867" d="M941 1327q-10 21 -35 46q-26 18 -63 33q-121 41 -232 29q-107 -10 -179 -72q-24 -22 -33 -32q-73 -75 -87 -153q-15 -75 33 -139q67 43 114 64q73 30 146.5 34t138.5 -36q45 -29 62 -65q10 -20 10 -49q-4 -29 -16 -46q-23 -39 -75 -62q-90 -44 -199 -19q-117 28 -190 98 q-86 -68 -143 -140q-133 -174 -133 -363q-1 -187 127 -322q21 -24 41 -37q120 -94 275 -79q151 12 257 114q9 9 18.5 19.5t19.5 21.5l68 90q22 20 44 4q23 -19 6 -44l-71 -89q-12 -17 -43 -46q-115 -111 -293 -130q-182 -16 -318 91q-17 11 -48 41q-144 154 -143 366 q0 214 145 401q28 33 66.5 72t83.5 75q-61 82 -44 185q19 99 104 187q9 7 17.5 16t17.5 17q89 74 214 87q124 15 260 -33q44 -15 81 -43q39 -33 52 -67q10 -30 -17 -39q-26 -17 -39 14zM710 1049q-48 30 -107.5 26t-118.5 -28q-56 -26 -98 -54q63 -53 152 -73q93 -20 162 13 q34 18 48 39q6 9 6 19q2 6 -2 18q-8 18 -42 40zM489 1687l349 293q26 19 44 -4q6 -6 6 -12l108 -289q9 -29 -19 -40q-28 -12 -39 19l-93 251l-316 -265q-24 -21 -44 4q-15 24 4 43z" />
<glyph unicode="&#xcb;" horiz-adv-x="867" d="M941 1327q-10 21 -35 46q-26 18 -63 33q-121 41 -232 29q-107 -10 -179 -72q-24 -22 -33 -32q-73 -75 -87 -153q-15 -75 33 -139q67 43 114 64q73 30 146.5 34t138.5 -36q45 -29 62 -65q10 -20 10 -49q-4 -29 -16 -46q-23 -39 -75 -62q-90 -44 -199 -19q-117 28 -190 98 q-86 -68 -143 -140q-133 -174 -133 -363q-1 -187 127 -322q21 -24 41 -37q120 -94 275 -79q151 12 257 114q9 9 18.5 19.5t19.5 21.5l68 90q22 20 44 4q23 -19 6 -44l-71 -89q-12 -17 -43 -46q-115 -111 -293 -130q-182 -16 -318 91q-17 11 -48 41q-144 154 -143 366 q0 214 145 401q28 33 66.5 72t83.5 75q-61 82 -44 185q19 99 104 187q9 7 17.5 16t17.5 17q89 74 214 87q124 15 260 -33q44 -15 81 -43q39 -33 52 -67q10 -30 -17 -39q-26 -17 -39 14zM710 1049q-48 30 -107.5 26t-118.5 -28q-56 -26 -98 -54q63 -53 152 -73q93 -20 162 13 q34 18 48 39q6 9 6 19q2 6 -2 18q-8 18 -42 40zM760 1944l-79 -262q-13 -29 -39 -19q-29 8 -21 38l81 259q9 28 40 21q31 -10 18 -37zM889 1944l-79 -262q-13 -29 -39 -19q-29 8 -21 38l81 259q9 28 39 21q31 -9 19 -37z" />
<glyph unicode="&#xcc;" horiz-adv-x="941" d="M1134 1404q-13 -2 -24 -4.5t-22 -3.5q-76 -13 -155 -13q-83 0 -137 13.5t-96 28.5q-55 18 -108.5 21.5t-155.5 -48.5q-30 -15 -56.5 -35t-49.5 -38q-26 -22 -37 -29q-24 -15 -42 6q-19 27 7 44q9 6 16.5 13.5t16.5 13.5q26 20 54.5 41t63.5 40q120 60 183 55t129 -26 q39 -15 88 -27t124 -10q65 0 145 10q72 12 141 35q28 13 38 -18q5 -20 -9 -34q-119 -103 -200 -353.5t-117 -397.5q-46 -181 -110 -375.5t-241 -293.5q-172 -92 -360 -24q-11 3 -21 6.5t-20 6.5q-57 28 -94 56q-44 31 -79 73q-14 21 4 44q22 17 44 -4q30 -37 66 -65 q42 -28 84 -48q24 -8 37 -12q160 -59 309 21q162 90 220.5 277.5t99.5 351.5q37 143 106 361.5t158 340.5zM668 1888q26 -101 71 -152q44 -55 110 -66q29 -8 23 -35q-4 -33 -36 -25q-86 17 -143 87q-57 67 -85 174q-5 31 23 38q29 7 37 -21z" />
<glyph unicode="&#xcd;" horiz-adv-x="941" d="M1134 1404q-13 -2 -24 -4.5t-22 -3.5q-76 -13 -155 -13q-83 0 -137 13.5t-96 28.5q-55 18 -108.5 21.5t-155.5 -48.5q-30 -15 -56.5 -35t-49.5 -38q-26 -22 -37 -29q-24 -15 -42 6q-19 27 7 44q9 6 16.5 13.5t16.5 13.5q26 20 54.5 41t63.5 40q120 60 183 55t129 -26 q39 -15 88 -27t124 -10q65 0 145 10q72 12 141 35q28 13 38 -18q5 -20 -9 -34q-119 -103 -200 -353.5t-117 -397.5q-46 -181 -110 -375.5t-241 -293.5q-172 -92 -360 -24q-11 3 -21 6.5t-20 6.5q-57 28 -94 56q-44 31 -79 73q-14 21 4 44q22 17 44 -4q30 -37 66 -65 q42 -28 84 -48q24 -8 37 -12q160 -59 309 21q162 90 220.5 277.5t99.5 351.5q37 143 106 361.5t158 340.5zM1194 1912q-58 -112 -158 -174q-99 -66 -249 -81q-30 -4 -33 27q-1 29 27 33q132 14 224 73q83 50 133 149q14 27 42 15q26 -12 14 -42z" />
<glyph unicode="&#xce;" horiz-adv-x="941" d="M1134 1404q-13 -2 -24 -4.5t-22 -3.5q-76 -13 -155 -13q-83 0 -137 13.5t-96 28.5q-55 18 -108.5 21.5t-155.5 -48.5q-30 -15 -56.5 -35t-49.5 -38q-26 -22 -37 -29q-24 -15 -42 6q-19 27 7 44q9 6 16.5 13.5t16.5 13.5q26 20 54.5 41t63.5 40q120 60 183 55t129 -26 q39 -15 88 -27t124 -10q65 0 145 10q72 12 141 35q28 13 38 -18q5 -20 -9 -34q-119 -103 -200 -353.5t-117 -397.5q-46 -181 -110 -375.5t-241 -293.5q-172 -92 -360 -24q-11 3 -21 6.5t-20 6.5q-57 28 -94 56q-44 31 -79 73q-14 21 4 44q22 17 44 -4q30 -37 66 -65 q42 -28 84 -48q24 -8 37 -12q160 -59 309 21q162 90 220.5 277.5t99.5 351.5q37 143 106 361.5t158 340.5zM650 1687l349 293q26 19 44 -4q6 -6 6 -12l108 -289q9 -29 -19 -40q-28 -12 -39 19l-93 251l-316 -265q-24 -21 -44 4q-15 24 4 43z" />
<glyph unicode="&#xcf;" horiz-adv-x="941" d="M1134 1404q-13 -2 -24 -4.5t-22 -3.5q-76 -13 -155 -13q-83 0 -137 13.5t-96 28.5q-55 18 -108.5 21.5t-155.5 -48.5q-30 -15 -56.5 -35t-49.5 -38q-26 -22 -37 -29q-24 -15 -42 6q-19 27 7 44q9 6 16.5 13.5t16.5 13.5q26 20 54.5 41t63.5 40q120 60 183 55t129 -26 q39 -15 88 -27t124 -10q65 0 145 10q72 12 141 35q28 13 38 -18q5 -20 -9 -34q-119 -103 -200 -353.5t-117 -397.5q-46 -181 -110 -375.5t-241 -293.5q-172 -92 -360 -24q-11 3 -21 6.5t-20 6.5q-57 28 -94 56q-44 31 -79 73q-14 21 4 44q22 17 44 -4q30 -37 66 -65 q42 -28 84 -48q24 -8 37 -12q160 -59 309 21q162 90 220.5 277.5t99.5 351.5q37 143 106 361.5t158 340.5zM938 1922l-79 -262q-13 -29 -39 -19q-29 8 -21 38l81 259q9 28 40 21q31 -10 18 -37zM1067 1922l-79 -262q-13 -29 -39 -19q-29 8 -21 38l81 259q9 28 39 21 q31 -9 19 -37z" />
<glyph unicode="&#xd1;" horiz-adv-x="1855" d="M1957 1147q-184 -282 -348.5 -577.5t-326.5 -587.5q-17 -25 -42 -12q-29 16 -12 40q77 276 158.5 551.5t171.5 549.5q-119 -213 -263.5 -423.5t-320.5 -378.5q-84 -82 -183 -147q-84 -60 -182.5 -108.5t-197.5 -67.5q-102 -20 -196.5 -2.5t-168.5 95.5q-22 20 -42 50 q-13 26 8 43q27 16 44 -8q13 -23 33 -44q62 -64 142 -78t170 4t183 64.5t174 101.5q101 70 175 141q234 225 420 532t327 598q12 26 40 15q23 -18 16 -36v-2q-102 -301 -195.5 -603.5t-180.5 -607.5q129 235 263.5 470.5t281.5 460.5q129 197 317 272q103 40 207.5 40 t200.5 -28q30 -12 18 -39q-7 -30 -37 -19q-86 24 -180 25t-186 -35q-172 -70 -288 -249zM1771 1680q45 83 81 129q42 56 77 81q82 55 133 -16q14 -22 24 -50.5t19 -57.5q17 -65 32 -83q7 -10 20 2q26 19 61 74q40 69 70 129q16 26 42 13q26 -18 12 -42q-35 -67 -72 -131 q-39 -64 -75 -91q-64 -47 -108 8q-15 18 -24 46t-18 58q-21 68 -33 89q-17 21 -48 2q-25 -17 -62 -68q-38 -48 -77 -121q-12 -27 -41 -12q-23 12 -13 41z" />
<glyph unicode="&#xd2;" horiz-adv-x="1215" d="M1248 1211q-33 -15 -79 -27q1 -8 3 -14.5t4 -12.5q48 -256 -50 -521q-103 -276 -316 -474q-109 -102 -224 -152q-120 -49 -229 -38q-118 16 -205 109q-57 57 -100 156q-51 118 -52.5 249.5t33.5 261.5q42 147 122.5 282.5t178.5 234.5q91 93 202 152q109 58 239 81 q30 7 35 -25v-15q26 32 73 40q12 2 39 2q84 -10 152 -108q24 -33 43 -73t34 -77q36 10 72 25q57 23 106 75q41 50 65 126q6 28 37 21q28 -7 21 -37q-25 -88 -77 -150q-50 -59 -127 -91zM785 1437q-119 -18 -222 -74q-98 -53 -185 -140q-94 -95 -170 -223.5t-115 -268.5 q-34 -120 -33 -241t48 -228q34 -80 87 -139q73 -80 171 -92q92 -9 197 35q103 46 206 140q204 191 299 450q93 253 47 488l-6 27h-4q-104 -14 -181 7q-99 23 -133 106q-9 21 -12 45q-4 34 -2 50q2 33 21 65q-1 -1 -13 -7zM839 1340q3 -21 8 -34q24 -55 94 -70q63 -16 147 -4 q-24 68 -64 124q-54 75 -108 81q-13 3 -25 0q-22 -4 -35 -20q-16 -16 -19 -44q0 -23 2 -33zM995 1883q26 -101 71 -152q44 -55 110 -66q29 -8 23 -35q-4 -33 -36 -25q-86 17 -143 87q-57 67 -85 174q-5 31 23 38q29 7 37 -21z" />
<glyph unicode="&#xd3;" horiz-adv-x="1215" d="M1248 1211q-33 -15 -79 -27q1 -8 3 -14.5t4 -12.5q48 -256 -50 -521q-103 -276 -316 -474q-109 -102 -224 -152q-120 -49 -229 -38q-118 16 -205 109q-57 57 -100 156q-51 118 -52.5 249.5t33.5 261.5q42 147 122.5 282.5t178.5 234.5q91 93 202 152q109 58 239 81 q30 7 35 -25v-15q26 32 73 40q12 2 39 2q84 -10 152 -108q24 -33 43 -73t34 -77q36 10 72 25q57 23 106 75q41 50 65 126q6 28 37 21q28 -7 21 -37q-25 -88 -77 -150q-50 -59 -127 -91zM785 1437q-119 -18 -222 -74q-98 -53 -185 -140q-94 -95 -170 -223.5t-115 -268.5 q-34 -120 -33 -241t48 -228q34 -80 87 -139q73 -80 171 -92q92 -9 197 35q103 46 206 140q204 191 299 450q93 253 47 488l-6 27h-4q-104 -14 -181 7q-99 23 -133 106q-9 21 -12 45q-4 34 -2 50q2 33 21 65q-1 -1 -13 -7zM839 1340q3 -21 8 -34q24 -55 94 -70q63 -16 147 -4 q-24 68 -64 124q-54 75 -108 81q-13 3 -25 0q-22 -4 -35 -20q-16 -16 -19 -44q0 -23 2 -33zM1495 1874q-58 -112 -158 -174q-99 -66 -249 -81q-30 -4 -33 27q-1 29 27 33q132 14 224 73q83 50 133 149q14 27 42 15q26 -12 14 -42z" />
<glyph unicode="&#xd4;" horiz-adv-x="1215" d="M1248 1211q-33 -15 -79 -27q1 -8 3 -14.5t4 -12.5q48 -256 -50 -521q-103 -276 -316 -474q-109 -102 -224 -152q-120 -49 -229 -38q-118 16 -205 109q-57 57 -100 156q-51 118 -52.5 249.5t33.5 261.5q42 147 122.5 282.5t178.5 234.5q91 93 202 152q109 58 239 81 q30 7 35 -25v-15q26 32 73 40q12 2 39 2q84 -10 152 -108q24 -33 43 -73t34 -77q36 10 72 25q57 23 106 75q41 50 65 126q6 28 37 21q28 -7 21 -37q-25 -88 -77 -150q-50 -59 -127 -91zM785 1437q-119 -18 -222 -74q-98 -53 -185 -140q-94 -95 -170 -223.5t-115 -268.5 q-34 -120 -33 -241t48 -228q34 -80 87 -139q73 -80 171 -92q92 -9 197 35q103 46 206 140q204 191 299 450q93 253 47 488l-6 27h-4q-104 -14 -181 7q-99 23 -133 106q-9 21 -12 45q-4 34 -2 50q2 33 21 65q-1 -1 -13 -7zM839 1340q3 -21 8 -34q24 -55 94 -70q63 -16 147 -4 q-24 68 -64 124q-54 75 -108 81q-13 3 -25 0q-22 -4 -35 -20q-16 -16 -19 -44q0 -23 2 -33zM798 1682l349 293q26 19 44 -4q6 -6 6 -12l108 -289q9 -29 -19 -40q-28 -12 -39 19l-93 251l-316 -265q-24 -21 -44 4q-15 24 4 43z" />
<glyph unicode="&#xd5;" horiz-adv-x="1215" d="M1248 1211q-33 -15 -79 -27q1 -8 3 -14.5t4 -12.5q48 -256 -50 -521q-103 -276 -316 -474q-109 -102 -224 -152q-120 -49 -229 -38q-118 16 -205 109q-57 57 -100 156q-51 118 -52.5 249.5t33.5 261.5q42 147 122.5 282.5t178.5 234.5q91 93 202 152q109 58 239 81 q30 7 35 -25v-15q26 32 73 40q12 2 39 2q84 -10 152 -108q24 -33 43 -73t34 -77q36 10 72 25q57 23 106 75q41 50 65 126q6 28 37 21q28 -7 21 -37q-25 -88 -77 -150q-50 -59 -127 -91zM785 1437q-119 -18 -222 -74q-98 -53 -185 -140q-94 -95 -170 -223.5t-115 -268.5 q-34 -120 -33 -241t48 -228q34 -80 87 -139q73 -80 171 -92q92 -9 197 35q103 46 206 140q204 191 299 450q93 253 47 488l-6 27h-4q-104 -14 -181 7q-99 23 -133 106q-9 21 -12 45q-4 34 -2 50q2 33 21 65q-1 -1 -13 -7zM839 1340q3 -21 8 -34q24 -55 94 -70q63 -16 147 -4 q-24 68 -64 124q-54 75 -108 81q-13 3 -25 0q-22 -4 -35 -20q-16 -16 -19 -44q0 -23 2 -33zM731 1696q45 83 81 129q42 56 77 81q82 55 133 -16q14 -22 24 -50.5t19 -57.5q17 -65 32 -83q7 -10 20 2q26 19 61 74q40 69 70 129q16 26 42 13q26 -18 12 -42q-35 -67 -72 -131 q-39 -64 -75 -91q-64 -47 -108 8q-15 18 -24 46t-18 58q-21 68 -33 89q-17 21 -48 2q-25 -17 -62 -68q-38 -48 -77 -121q-12 -27 -41 -12q-23 12 -13 41z" />
<glyph unicode="&#xd6;" horiz-adv-x="1215" d="M1248 1211q-33 -15 -79 -27q1 -8 3 -14.5t4 -12.5q48 -256 -50 -521q-103 -276 -316 -474q-109 -102 -224 -152q-120 -49 -229 -38q-118 16 -205 109q-57 57 -100 156q-51 118 -52.5 249.5t33.5 261.5q42 147 122.5 282.5t178.5 234.5q91 93 202 152q109 58 239 81 q30 7 35 -25v-15q26 32 73 40q12 2 39 2q84 -10 152 -108q24 -33 43 -73t34 -77q36 10 72 25q57 23 106 75q41 50 65 126q6 28 37 21q28 -7 21 -37q-25 -88 -77 -150q-50 -59 -127 -91zM785 1437q-119 -18 -222 -74q-98 -53 -185 -140q-94 -95 -170 -223.5t-115 -268.5 q-34 -120 -33 -241t48 -228q34 -80 87 -139q73 -80 171 -92q92 -9 197 35q103 46 206 140q204 191 299 450q93 253 47 488l-6 27h-4q-104 -14 -181 7q-99 23 -133 106q-9 21 -12 45q-4 34 -2 50q2 33 21 65q-1 -1 -13 -7zM839 1340q3 -21 8 -34q24 -55 94 -70q63 -16 147 -4 q-24 68 -64 124q-54 75 -108 81q-13 3 -25 0q-22 -4 -35 -20q-16 -16 -19 -44q0 -23 2 -33zM1020 1900l-79 -262q-13 -29 -39 -19q-29 8 -21 38l81 259q9 28 40 21q31 -10 18 -37zM1149 1900l-79 -262q-13 -29 -39 -19q-29 8 -21 38l81 259q9 28 39 21q31 -9 19 -37z" />
<glyph unicode="&#xd7;" horiz-adv-x="550" d="M33 170l193 244l-150 254q-12 26 12 41q25 15 43 -11l135 -233l184 233q19 21 42 4q23 -18 6 -44l-199 -250l142 -242q18 -28 -9 -40q-27 -18 -42 11l-131 221l-179 -225q-20 -27 -42 -6q-26 19 -5 43z" />
<glyph unicode="&#xd8;" horiz-adv-x="1215" d="M1248 1211q-33 -15 -79 -27q1 -8 3 -14.5t4 -12.5q48 -256 -50 -521q-103 -276 -316 -474q-109 -102 -224 -152q-120 -49 -229 -38q-118 16 -205 109q-57 57 -100 156q-51 118 -52.5 249.5t33.5 261.5q42 147 122.5 282.5t178.5 234.5q91 93 202 152q109 58 239 81 q30 7 35 -25v-15q26 32 73 40q12 2 39 2q84 -10 152 -108q24 -33 43 -73t34 -77q36 10 72 25q57 23 106 75q41 50 65 126q6 28 37 21q28 -7 21 -37q-25 -88 -77 -150q-50 -59 -127 -91zM785 1437q-119 -18 -222 -74q-98 -53 -185 -140q-94 -95 -170 -223.5t-115 -268.5 q-34 -120 -33 -241t48 -228q34 -80 87 -139q73 -80 171 -92q92 -9 197 35q103 46 206 140q204 191 299 450q93 253 47 488l-6 27h-4q-104 -14 -181 7q-99 23 -133 106q-9 21 -12 45q-4 34 -2 50q2 33 21 65q-1 -1 -13 -7zM839 1340q3 -21 8 -34q24 -55 94 -70q63 -16 147 -4 q-24 68 -64 124q-54 75 -108 81q-13 3 -25 0q-22 -4 -35 -20q-16 -16 -19 -44q0 -23 2 -33zM1123 1470l-982 -1441q-21 -28 -43 -8q-23 17 -8 41l981 1443q18 22 45 8q23 -19 7 -43z" />
<glyph unicode="&#xd9;" horiz-adv-x="1375" d="M1273 1477q11 31 40 21q28 -11 20 -38l-289 -1001q-13 -32 -18 -48q-4 -8 -6 -14q3 3 -4 -11q-24 -62 -34 -110q-13 -62 -6 -122q14 -60 33 -88q27 -32 63 -35q44 -4 89 21q78 34 143 120l54 67q18 23 44 6q22 -19 4 -44l-52 -68q-77 -94 -166 -136q-67 -30 -120 -25 q-66 7 -106 57q-35 48 -46 116q-5 43 -2 73q-42 -48 -85.5 -83t-80.5 -62q-16 -13 -27 -19q-82 -62 -164 -80q-60 -10 -100 0q-58 18 -87 57q-29 41 -40 94q-13 62 -4 135q8 60 40 151v2h2l133 385v4q60 149 95 282q29 126 27 204q-3 75 -29 114q-20 31 -58 35 q-33 5 -87 -16q-110 -46 -187 -152q-53 -67 -106 -170q-56 -107 -98 -206q-12 -30 -39 -16q-26 9 -17 41q53 126 100 210q61 116 110 178q86 117 212 171q67 29 120 21q65 -9 100 -61q36 -52 39 -147q3 -101 -29 -220q-15 -64 -40 -137t-55 -154l-2 -2l-133 -384v-3 q-29 -73 -36 -139q-10 -68 2 -114q10 -45 30 -68q22 -31 51 -36q27 -8 73 0q71 16 141 69q5 4 12 9t15 12q60 43 133 110.5t117 186.5q1 1 1.5 2.5t2.5 3.5q3 11 21 58zM885 1925q26 -101 71 -152q44 -55 110 -66q29 -8 23 -35q-4 -33 -36 -25q-86 17 -143 87 q-57 67 -85 174q-5 31 23 38q29 7 37 -21z" />
<glyph unicode="&#xda;" horiz-adv-x="1375" d="M1273 1477q11 31 40 21q28 -11 20 -38l-289 -1001q-13 -32 -18 -48q-4 -8 -6 -14q3 3 -4 -11q-24 -62 -34 -110q-13 -62 -6 -122q14 -60 33 -88q27 -32 63 -35q44 -4 89 21q78 34 143 120l54 67q18 23 44 6q22 -19 4 -44l-52 -68q-77 -94 -166 -136q-67 -30 -120 -25 q-66 7 -106 57q-35 48 -46 116q-5 43 -2 73q-42 -48 -85.5 -83t-80.5 -62q-16 -13 -27 -19q-82 -62 -164 -80q-60 -10 -100 0q-58 18 -87 57q-29 41 -40 94q-13 62 -4 135q8 60 40 151v2h2l133 385v4q60 149 95 282q29 126 27 204q-3 75 -29 114q-20 31 -58 35 q-33 5 -87 -16q-110 -46 -187 -152q-53 -67 -106 -170q-56 -107 -98 -206q-12 -30 -39 -16q-26 9 -17 41q53 126 100 210q61 116 110 178q86 117 212 171q67 29 120 21q65 -9 100 -61q36 -52 39 -147q3 -101 -29 -220q-15 -64 -40 -137t-55 -154l-2 -2l-133 -384v-3 q-29 -73 -36 -139q-10 -68 2 -114q10 -45 30 -68q22 -31 51 -36q27 -8 73 0q71 16 141 69q5 4 12 9t15 12q60 43 133 110.5t117 186.5q1 1 1.5 2.5t2.5 3.5q3 11 21 58zM1274 1928q-58 -112 -158 -174q-99 -66 -249 -81q-30 -4 -33 27q-1 29 27 33q132 14 224 73 q83 50 133 149q14 27 42 15q26 -12 14 -42z" />
<glyph unicode="&#xdb;" horiz-adv-x="1375" d="M1273 1477q11 31 40 21q28 -11 20 -38l-289 -1001q-13 -32 -18 -48q-4 -8 -6 -14q3 3 -4 -11q-24 -62 -34 -110q-13 -62 -6 -122q14 -60 33 -88q27 -32 63 -35q44 -4 89 21q78 34 143 120l54 67q18 23 44 6q22 -19 4 -44l-52 -68q-77 -94 -166 -136q-67 -30 -120 -25 q-66 7 -106 57q-35 48 -46 116q-5 43 -2 73q-42 -48 -85.5 -83t-80.5 -62q-16 -13 -27 -19q-82 -62 -164 -80q-60 -10 -100 0q-58 18 -87 57q-29 41 -40 94q-13 62 -4 135q8 60 40 151v2h2l133 385v4q60 149 95 282q29 126 27 204q-3 75 -29 114q-20 31 -58 35 q-33 5 -87 -16q-110 -46 -187 -152q-53 -67 -106 -170q-56 -107 -98 -206q-12 -30 -39 -16q-26 9 -17 41q53 126 100 210q61 116 110 178q86 117 212 171q67 29 120 21q65 -9 100 -61q36 -52 39 -147q3 -101 -29 -220q-15 -64 -40 -137t-55 -154l-2 -2l-133 -384v-3 q-29 -73 -36 -139q-10 -68 2 -114q10 -45 30 -68q22 -31 51 -36q27 -8 73 0q71 16 141 69q5 4 12 9t15 12q60 43 133 110.5t117 186.5q1 1 1.5 2.5t2.5 3.5q3 11 21 58zM699 1699l349 293q26 19 44 -4q6 -6 6 -12l108 -289q9 -29 -19 -40q-28 -12 -39 19l-93 251l-316 -265 q-24 -21 -44 4q-15 24 4 43z" />
<glyph unicode="&#xdc;" horiz-adv-x="1375" d="M1273 1477q11 31 40 21q28 -11 20 -38l-289 -1001q-13 -32 -18 -48q-4 -8 -6 -14q3 3 -4 -11q-24 -62 -34 -110q-13 -62 -6 -122q14 -60 33 -88q27 -32 63 -35q44 -4 89 21q78 34 143 120l54 67q18 23 44 6q22 -19 4 -44l-52 -68q-77 -94 -166 -136q-67 -30 -120 -25 q-66 7 -106 57q-35 48 -46 116q-5 43 -2 73q-42 -48 -85.5 -83t-80.5 -62q-16 -13 -27 -19q-82 -62 -164 -80q-60 -10 -100 0q-58 18 -87 57q-29 41 -40 94q-13 62 -4 135q8 60 40 151v2h2l133 385v4q60 149 95 282q29 126 27 204q-3 75 -29 114q-20 31 -58 35 q-33 5 -87 -16q-110 -46 -187 -152q-53 -67 -106 -170q-56 -107 -98 -206q-12 -30 -39 -16q-26 9 -17 41q53 126 100 210q61 116 110 178q86 117 212 171q67 29 120 21q65 -9 100 -61q36 -52 39 -147q3 -101 -29 -220q-15 -64 -40 -137t-55 -154l-2 -2l-133 -384v-3 q-29 -73 -36 -139q-10 -68 2 -114q10 -45 30 -68q22 -31 51 -36q27 -8 73 0q71 16 141 69q5 4 12 9t15 12q60 43 133 110.5t117 186.5q1 1 1.5 2.5t2.5 3.5q3 11 21 58zM1014 1922l-79 -262q-13 -29 -39 -19q-29 8 -21 38l81 259q9 28 40 21q31 -10 18 -37zM1143 1922 l-79 -262q-13 -29 -39 -19q-29 8 -21 38l81 259q9 28 39 21q31 -9 19 -37z" />
<glyph unicode="&#xdd;" horiz-adv-x="1148" d="M1095 84l-6 -29q110 56 182 132l77 98q17 23 44 6q22 -21 4 -44l-77 -97q-66 -79 -253 -187q-20 -64 -63.5 -194.5t-96.5 -218.5q-87 -145 -174 -164q-42 -6 -73 13q-29 17 -45 58q-45 100 27 237q33 70 101.5 132t115 94t84.5 55t71 53q9 30 43.5 213.5t56.5 288.5 q-57 -130 -114 -218q-61 -94 -156 -172.5t-185 -112.5q-82 -30 -141 -19q-72 18 -106 83q-50 96 -8 304q18 88 47 176.5t59 176.5q42 118 77.5 234t44.5 229q9 115 -31 176q-25 38 -66 48q-48 9 -100 -8q-124 -42 -212 -168q-47 -67 -85 -156q-42 -92 -77 -220 q-12 -32 -39 -21q-26 7 -21 37q35 125 81 227q46 106 91 168q103 143 243 191q72 23 131 10q64 -15 106 -74q51 -80 40 -214q-10 -119 -46.5 -238.5t-78.5 -239.5q-30 -87 -58.5 -174.5t-45.5 -172.5q-38 -185 2 -264q20 -40 65 -49q40 -10 106 14q82 31 168 103.5 t143 158.5q109 166 200 463q49 162 87 324.5t77 327.5q7 30 35 23q30 -8 23 -37q-54 -227 -101 -456q-44 -217 -173 -906zM854 -419q42 69 78 170.5t52 174.5q-18 -14 -38 -24t-57 -34.5t-101 -82t-93 -118.5q-57 -111 -25 -187q9 -21 20 -29q14 -7 29 -5q64 16 135 135z M1244 1971q-58 -112 -158 -174q-99 -66 -249 -81q-30 -4 -33 27q-1 29 27 33q132 14 224 73q83 50 133 149q14 27 42 15q26 -12 14 -42z" />
<glyph unicode="&#xdf;" horiz-adv-x="1346" d="M-65 170l295 373l98 126q1 3 2.5 6t3.5 6q45 51 118 139.5t150 99.5q48 6 92 -19q40 -24 66 -81q5 -11 8 -24q44 166 83.5 294.5t70.5 191.5q65 138 138 181t170 39h4q96 -3 168 -96q65 -85 60 -197q0 -12 -4 -46q-2 0 -2 -1v-1q-12 -60 -32.5 -109t-65.5 -88 q-51 -45 -128 -65q79 -37 130 -103q77 -110 81 -268q0 -63 -4 -94q-23 -214 -122 -336q-100 -119 -241 -126h-25q-83 3 -141 43q-64 47 -67 132q0 32 31 32t31 -32q0 -54 42 -83q44 -33 116 -33q124 3 206 104q85 109 110 305q4 58 4 86q-4 142 -70 232q-71 93 -200 108 q-34 4 -54 2q-33 0 -33 29q-4 28 27 34q187 13 268 81q54 46 77 157v2q3 11 3.5 20.5t2.5 19.5q2 92 -48 158q-55 69 -122 72h-5q-78 3 -136.5 -33.5t-114.5 -150.5q-70 -149 -121.5 -363t-88.5 -379q-15 -64 -48 -210.5t-70 -308.5t-70 -309t-46 -212q-10 -29 -38 -24 q-30 8 -23 37q16 73 50.5 229t72.5 328t72.5 327t52.5 226q16 124 -15 198q-16 36 -42 54q-27 13 -51 8q-54 -6 -124 -91q-51 -61 -82 -98q-1 -5 -5 -11l-67 -84l-64 -82q-3 -4 -6 -6l-281 -353q-20 -27 -42 -6q-26 19 -5 43z" />
<glyph unicode="&#xe0;" horiz-adv-x="1295" d="M-66 170q441 576 508 609q45 37 119 75.5t151 53.5q136 24 211 -50q27 -25 40 -62q3 -8 4 -12l37 113q11 28 40 19q31 -8 19 -37l-185 -551q-39 -151 -2 -237q15 -33 39 -45q24 -15 56 -4q73 15 164 130l42 50q19 25 41 6q25 -21 7 -43l-42 -52q-99 -127 -195 -151 q-61 -12 -102 9q-43 23 -66 75q-21 51 -21 117q-38 -47 -81 -81q-39 -30 -83.5 -57.5t-91.5 -44.5q-78 -30 -149 -22q-82 10 -133 74q-24 29 -44 81q-49 129 -25 265l-211 -265q-20 -27 -42 -6q-26 19 -5 43zM934 688q-21 6 -21 29q0 34 -8 60q-11 25 -25 37q-50 52 -156 33 q-69 -12 -136 -47t-109 -69q-44 -36 -80 -73l-1 -1l-72 -90q-36 -56 -57 -116q-51 -153 4 -297q18 -43 36 -65q38 -45 93 -52q48 -6 121 19q78 30 157 94q47 38 81 85q40 57 57 112h2zM575 1405q26 -101 71 -152q44 -55 110 -66q29 -8 23 -35q-4 -33 -36 -25q-86 17 -143 87 q-57 67 -85 174q-5 31 23 38q29 7 37 -21z" />
<glyph unicode="&#xe1;" horiz-adv-x="1295" d="M-66 170q441 576 508 609q45 37 119 75.5t151 53.5q136 24 211 -50q27 -25 40 -62q3 -8 4 -12l37 113q11 28 40 19q31 -8 19 -37l-185 -551q-39 -151 -2 -237q15 -33 39 -45q24 -15 56 -4q73 15 164 130l42 50q19 25 41 6q25 -21 7 -43l-42 -52q-99 -127 -195 -151 q-61 -12 -102 9q-43 23 -66 75q-21 51 -21 117q-38 -47 -81 -81q-39 -30 -83.5 -57.5t-91.5 -44.5q-78 -30 -149 -22q-82 10 -133 74q-24 29 -44 81q-49 129 -25 265l-211 -265q-20 -27 -42 -6q-26 19 -5 43zM934 688q-21 6 -21 29q0 34 -8 60q-11 25 -25 37q-50 52 -156 33 q-69 -12 -136 -47t-109 -69q-44 -36 -80 -73l-1 -1l-72 -90q-36 -56 -57 -116q-51 -153 4 -297q18 -43 36 -65q38 -45 93 -52q48 -6 121 19q78 30 157 94q47 38 81 85q40 57 57 112h2zM1169 1408q-58 -112 -158 -174q-99 -66 -249 -81q-30 -4 -33 27q-1 29 27 33 q132 14 224 73q83 50 133 149q14 27 42 15q26 -12 14 -42z" />
<glyph unicode="&#xe2;" horiz-adv-x="1295" d="M-66 170q441 576 508 609q45 37 119 75.5t151 53.5q136 24 211 -50q27 -25 40 -62q3 -8 4 -12l37 113q11 28 40 19q31 -8 19 -37l-185 -551q-39 -151 -2 -237q15 -33 39 -45q24 -15 56 -4q73 15 164 130l42 50q19 25 41 6q25 -21 7 -43l-42 -52q-99 -127 -195 -151 q-61 -12 -102 9q-43 23 -66 75q-21 51 -21 117q-38 -47 -81 -81q-39 -30 -83.5 -57.5t-91.5 -44.5q-78 -30 -149 -22q-82 10 -133 74q-24 29 -44 81q-49 129 -25 265l-211 -265q-20 -27 -42 -6q-26 19 -5 43zM934 688q-21 6 -21 29q0 34 -8 60q-11 25 -25 37q-50 52 -156 33 q-69 -12 -136 -47t-109 -69q-44 -36 -80 -73l-1 -1l-72 -90q-36 -56 -57 -116q-51 -153 4 -297q18 -43 36 -65q38 -45 93 -52q48 -6 121 19q78 30 157 94q47 38 81 85q40 57 57 112h2zM570 1129l349 293q26 19 44 -4q6 -6 6 -12l108 -289q9 -29 -19 -40q-28 -12 -39 19 l-93 251l-316 -265q-24 -21 -44 4q-15 24 4 43z" />
<glyph unicode="&#xe3;" horiz-adv-x="1295" d="M-66 170q441 576 508 609q45 37 119 75.5t151 53.5q136 24 211 -50q27 -25 40 -62q3 -8 4 -12l37 113q11 28 40 19q31 -8 19 -37l-185 -551q-39 -151 -2 -237q15 -33 39 -45q24 -15 56 -4q73 15 164 130l42 50q19 25 41 6q25 -21 7 -43l-42 -52q-99 -127 -195 -151 q-61 -12 -102 9q-43 23 -66 75q-21 51 -21 117q-38 -47 -81 -81q-39 -30 -83.5 -57.5t-91.5 -44.5q-78 -30 -149 -22q-82 10 -133 74q-24 29 -44 81q-49 129 -25 265l-211 -265q-20 -27 -42 -6q-26 19 -5 43zM934 688q-21 6 -21 29q0 34 -8 60q-11 25 -25 37q-50 52 -156 33 q-69 -12 -136 -47t-109 -69q-44 -36 -80 -73l-1 -1l-72 -90q-36 -56 -57 -116q-51 -153 4 -297q18 -43 36 -65q38 -45 93 -52q48 -6 121 19q78 30 157 94q47 38 81 85q40 57 57 112h2zM509 1170q45 83 81 129q42 56 77 81q82 55 133 -16q14 -22 24 -50.5t19 -57.5 q17 -65 32 -83q7 -10 20 2q26 19 61 74q40 69 70 129q16 26 42 13q26 -18 12 -42q-35 -67 -72 -131q-39 -64 -75 -91q-64 -47 -108 8q-15 18 -24 46t-18 58q-21 68 -33 89q-17 21 -48 2q-25 -17 -62 -68q-38 -48 -77 -121q-12 -27 -41 -12q-23 12 -13 41z" />
<glyph unicode="&#xe4;" horiz-adv-x="1295" d="M-66 170q441 576 508 609q45 37 119 75.5t151 53.5q136 24 211 -50q27 -25 40 -62q3 -8 4 -12l37 113q11 28 40 19q31 -8 19 -37l-185 -551q-39 -151 -2 -237q15 -33 39 -45q24 -15 56 -4q73 15 164 130l42 50q19 25 41 6q25 -21 7 -43l-42 -52q-99 -127 -195 -151 q-61 -12 -102 9q-43 23 -66 75q-21 51 -21 117q-38 -47 -81 -81q-39 -30 -83.5 -57.5t-91.5 -44.5q-78 -30 -149 -22q-82 10 -133 74q-24 29 -44 81q-49 129 -25 265l-211 -265q-20 -27 -42 -6q-26 19 -5 43zM934 688q-21 6 -21 29q0 34 -8 60q-11 25 -25 37q-50 52 -156 33 q-69 -12 -136 -47t-109 -69q-44 -36 -80 -73l-1 -1l-72 -90q-36 -56 -57 -116q-51 -153 4 -297q18 -43 36 -65q38 -45 93 -52q48 -6 121 19q78 30 157 94q47 38 81 85q40 57 57 112h2zM851 1385l-79 -262q-13 -29 -39 -19q-29 8 -21 38l81 259q9 28 40 21q31 -10 18 -37z M980 1385l-79 -262q-13 -29 -39 -19q-29 8 -21 38l81 259q9 28 39 21q31 -9 19 -37z" />
<glyph unicode="&#xe5;" horiz-adv-x="1295" d="M-66 170q441 576 508 609q45 37 119 75.5t151 53.5q136 24 211 -50q27 -25 40 -62q3 -8 4 -12l37 113q11 28 40 19q31 -8 19 -37l-185 -551q-39 -151 -2 -237q15 -33 39 -45q24 -15 56 -4q73 15 164 130l42 50q19 25 41 6q25 -21 7 -43l-42 -52q-99 -127 -195 -151 q-61 -12 -102 9q-43 23 -66 75q-21 51 -21 117q-38 -47 -81 -81q-39 -30 -83.5 -57.5t-91.5 -44.5q-78 -30 -149 -22q-82 10 -133 74q-24 29 -44 81q-49 129 -25 265l-211 -265q-20 -27 -42 -6q-26 19 -5 43zM934 688q-21 6 -21 29q0 34 -8 60q-11 25 -25 37q-50 52 -156 33 q-69 -12 -136 -47t-109 -69q-44 -36 -80 -73l-1 -1l-72 -90q-36 -56 -57 -116q-51 -153 4 -297q18 -43 36 -65q38 -45 93 -52q48 -6 121 19q78 30 157 94q47 38 81 85q40 57 57 112h2zM887 1471q27 0 50 -6q47 -16 72 -50q27 -36 27 -85q0 -28 -8 -50q-22 -72 -89 -123 t-141 -51q-20 0 -52 8q-46 12 -71 50q-27 32 -27 83q0 24 6 50q21 72 89.5 123t143.5 51zM920 1405q-10 4 -33 4q-55 0 -106.5 -38t-66.5 -91q-6 -18 -6 -33q0 -27 15 -48q18 -22 41 -27q18 -4 34 -4q54 0 105 37.5t67 91.5q6 18 6 33q0 25 -14 48q-21 21 -42 27z" />
<glyph unicode="&#xe6;" horiz-adv-x="1607" d="M-69 170l402 509l9 12q121 153 174 200q55 49 157 49q175 0 252.5 -87.5t86.5 -156.5q5 -18 10 -37q50 121 138 200q90 82 209 72h2q54 -8 90 -34q37 -28 58 -79q15 -46 10 -97q-10 -78 -90.5 -152.5t-197.5 -89.5q-100 -13 -209 -26q-2 -18 -4 -35q-6 -98 21 -185 q14 -71 74 -136.5t207 -65.5q81 0 125.5 40.5t77.5 84.5l56 77q17 23 43 5q22 -20 5 -44q-53 -72 -54 -76q-41 -51 -96 -99.5t-157 -48.5q-175 0 -252.5 87.5t-86.5 156.5q-6 18 -11 36q-49 -120 -137 -200q-90 -81 -209 -71h-2q-54 8 -90 34q-37 28 -58 79q-15 46 -10 97 q10 78 65 159t191 118q127 34 245 41q3 90 -21 170q-14 71 -74 136.5t-207 65.5q-81 0 -126 -41q-41 -37 -148 -174q-1 -3 -3 -6l-418 -525q-20 -27 -42 -6q-26 19 -5 43zM969 446q-92 -10 -196 -33q-119 -26 -175.5 -98.5t-63.5 -131.5q-3 -41 8 -71q11 -31 36 -49 q27 -18 60 -21q96 -11 170.5 59t118.5 178q27 67 40 142zM1218 533q94 11 169 73t82 121q3 41 -8 71q-11 31 -36 49q-27 18 -60 21q-96 11 -170.5 -59t-118.5 -178q-23 -55 -35 -115q103 9 177 17z" />
<glyph unicode="&#xe7;" horiz-adv-x="972" d="M-68 170q520 710 673 719q56 24 104 27q82 9 145 -23q67 -37 98 -110q15 -50 18 -81q3 -30 -27 -33q-30 -4 -33 27q-4 34 -16 64q-24 56 -69 77q-47 25 -110 19q-48 -7 -87 -23q-126 -52 -227 -176t-126 -252h-3q0 -5 -1 -10t-1 -11q-19 -121 50 -222q67 -101 187 -129 q4 0 9 -1t10 -1q91 -13 212 31q119 47 168 110l39 53q18 22 42 4q23 -19 6 -42l-39 -54q-63 -78 -195 -127q-136 -48 -241 -36q-18 4 -23 4q-144 31 -227 155q-77 119 -58 266q0 6 4 22l3 15l-238 -299q-20 -27 -42 -6q-26 19 -5 43zM582 6l-4 -18q-1 -5 -2 -8.5t-2 -8.5 q-5 -19 -12 -45.5t-11 -43.5q17 16 22 20t9 6q25 14 42 14q18 0 32 -18q25 -34 25 -81q0 -20 -4 -40t-15 -54q-17 -45 -50 -103.5t-79 -127.5q-8 -11 -19 -13.5t-23 5.5q-10 8 -11.5 19.5t3.5 22.5q45 66 76 121.5t47 95.5q5 14 8.5 29t3.5 26q0 32 -25 41q-42 -20 -63 -20 t-43 24q-5 10 -4.5 24.5t6.5 31.5q7 19 13.5 39.5t13.5 42.5v-1q5 9 6 20h60z" />
<glyph unicode="&#xe8;" horiz-adv-x="518" d="M-454 142q115 145 292 239q0 22 5 53q11 125 52 220q50 124 140 205.5t209 71.5h2q54 -8 90 -34q37 -28 58 -79q15 -46 10 -97q-10 -78 -71 -144q-125 -121 -298 -175q-63 -20 -131 -66q5 -54 20 -103q9 -23 14 -35q4 -10 38 -65q82 -102 229 -102q81 0 125.5 40.5 t128.5 157.5q17 23 43 5q22 -20 5 -44q-10 -11 -50 -67t-95 -104.5t-157 -48.5q-175 0 -272 117l-34 52q-18 29 -33 75q-14 52 -28 94q-149 -85 -248 -210l-1 1q-20 -12 -40 4q-19 19 -3 39zM3 460q203 77 268.5 142.5t72.5 124.5q3 41 -8 71q-11 31 -36 49q-27 18 -60 21 q-96 11 -170.5 -59t-118.5 -178q-38 -93 -47 -201q-1 -10 -2 -19q50 30 101 49zM186 1405q26 -101 71 -152q44 -55 110 -66q29 -8 23 -35q-4 -33 -36 -25q-86 17 -143 87q-57 67 -85 174q-5 31 23 38q29 7 37 -21z" />
<glyph unicode="&#xe9;" horiz-adv-x="518" d="M-454 142q115 145 292 239q0 22 5 53q11 125 52 220q50 124 140 205.5t209 71.5h2q54 -8 90 -34q37 -28 58 -79q15 -46 10 -97q-10 -78 -71 -144q-125 -121 -298 -175q-63 -20 -131 -66q5 -54 20 -103q9 -23 14 -35q4 -10 38 -65q82 -102 229 -102q81 0 125.5 40.5 t128.5 157.5q17 23 43 5q22 -20 5 -44q-10 -11 -50 -67t-95 -104.5t-157 -48.5q-175 0 -272 117l-34 52q-18 29 -33 75q-14 52 -28 94q-149 -85 -248 -210l-1 1q-20 -12 -40 4q-19 19 -3 39zM3 460q203 77 268.5 142.5t72.5 124.5q3 41 -8 71q-11 31 -36 49q-27 18 -60 21 q-96 11 -170.5 -59t-118.5 -178q-38 -93 -47 -201q-1 -10 -2 -19q50 30 101 49zM473 1408q-58 -112 -158 -174q-99 -66 -249 -81q-30 -4 -33 27q-1 29 27 33q132 14 224 73q83 50 133 149q14 27 42 15q26 -12 14 -42z" />
<glyph unicode="&#xea;" horiz-adv-x="518" d="M-454 142q115 145 292 239q0 22 5 53q11 125 52 220q50 124 140 205.5t209 71.5h2q54 -8 90 -34q37 -28 58 -79q15 -46 10 -97q-10 -78 -71 -144q-125 -121 -298 -175q-63 -20 -131 -66q5 -54 20 -103q9 -23 14 -35q4 -10 38 -65q82 -102 229 -102q81 0 125.5 40.5 t128.5 157.5q17 23 43 5q22 -20 5 -44q-10 -11 -50 -67t-95 -104.5t-157 -48.5q-175 0 -272 117l-34 52q-18 29 -33 75q-14 52 -28 94q-149 -85 -248 -210l-1 1q-20 -12 -40 4q-19 19 -3 39zM3 460q203 77 268.5 142.5t72.5 124.5q3 41 -8 71q-11 31 -36 49q-27 18 -60 21 q-96 11 -170.5 -59t-118.5 -178q-38 -93 -47 -201q-1 -10 -2 -19q50 30 101 49zM10 1129l349 293q26 19 44 -4q6 -6 6 -12l108 -289q9 -29 -19 -40q-28 -12 -39 19l-93 251l-316 -265q-24 -21 -44 4q-15 24 4 43z" />
<glyph unicode="&#xeb;" horiz-adv-x="518" d="M-454 142q115 145 292 239q0 22 5 53q11 125 52 220q50 124 140 205.5t209 71.5h2q54 -8 90 -34q37 -28 58 -79q15 -46 10 -97q-10 -78 -71 -144q-125 -121 -298 -175q-63 -20 -131 -66q5 -54 20 -103q9 -23 14 -35q4 -10 38 -65q82 -102 229 -102q81 0 125.5 40.5 t128.5 157.5q17 23 43 5q22 -20 5 -44q-10 -11 -50 -67t-95 -104.5t-157 -48.5q-175 0 -272 117l-34 52q-18 29 -33 75q-14 52 -28 94q-149 -85 -248 -210l-1 1q-20 -12 -40 4q-19 19 -3 39zM3 460q203 77 268.5 142.5t72.5 124.5q3 41 -8 71q-11 31 -36 49q-27 18 -60 21 q-96 11 -170.5 -59t-118.5 -178q-38 -93 -47 -201q-1 -10 -2 -19q50 30 101 49zM262 1385l-79 -262q-13 -29 -39 -19q-29 8 -21 38l81 259q9 28 40 21q31 -10 18 -37zM391 1385l-79 -262q-13 -29 -39 -19q-29 8 -21 38l81 259q9 28 39 21q31 -9 19 -37z" />
<glyph unicode="&#xec;" horiz-adv-x="682" d="M-59 170l581 736l8 8q10 7 23 4q8 -3 17 -12h2v-2q6 -12 4 -23l-131 -493q-52 -194 -29 -297q10 -37 23 -45q12 -9 29 -2q52 18 143 126l79 98q17 21 44 4q23 -20 4 -44l-79 -95q-99 -121 -170 -147q-57 -15 -90 14q-33 27 -41 79q-15 57 -6.5 144.5t33.5 181.5l93 349 l-490 -621q-20 -27 -42 -6q-26 19 -5 43zM400 1405q26 -101 71 -152q44 -55 110 -66q29 -8 23 -35q-4 -33 -36 -25q-86 17 -143 87q-57 67 -85 174q-5 31 23 38q29 7 37 -21z" />
<glyph unicode="&#xed;" horiz-adv-x="682" d="M-59 170l581 736l8 8q10 7 23 4q8 -3 17 -12h2v-2q6 -12 4 -23l-131 -493q-52 -194 -29 -297q10 -37 23 -45q12 -9 29 -2q52 18 143 126l79 98q17 21 44 4q23 -20 4 -44l-79 -95q-99 -121 -170 -147q-57 -15 -90 14q-33 27 -41 79q-15 57 -6.5 144.5t33.5 181.5l93 349 l-490 -621q-20 -27 -42 -6q-26 19 -5 43zM876 1408q-58 -112 -158 -174q-99 -66 -249 -81q-30 -4 -33 27q-1 29 27 33q132 14 224 73q83 50 133 149q14 27 42 15q26 -12 14 -42z" />
<glyph unicode="&#xee;" horiz-adv-x="682" d="M-59 170l581 736l8 8q10 7 23 4q8 -3 17 -12h2v-2q6 -12 4 -23l-131 -493q-52 -194 -29 -297q10 -37 23 -45q12 -9 29 -2q52 18 143 126l79 98q17 21 44 4q23 -20 4 -44l-79 -95q-99 -121 -170 -147q-57 -15 -90 14q-33 27 -41 79q-15 57 -6.5 144.5t33.5 181.5l93 349 l-490 -621q-20 -27 -42 -6q-26 19 -5 43zM305 1129l349 293q26 19 44 -4q6 -6 6 -12l108 -289q9 -29 -19 -40q-28 -12 -39 19l-93 251l-316 -265q-24 -21 -44 4q-15 24 4 43z" />
<glyph unicode="&#xef;" horiz-adv-x="682" d="M-59 170l581 736l8 8q10 7 23 4q8 -3 17 -12h2v-2q6 -12 4 -23l-131 -493q-52 -194 -29 -297q10 -37 23 -45q12 -9 29 -2q52 18 143 126l79 98q17 21 44 4q23 -20 4 -44l-79 -95q-99 -121 -170 -147q-57 -15 -90 14q-33 27 -41 79q-15 57 -6.5 144.5t33.5 181.5l93 349 l-490 -621q-20 -27 -42 -6q-26 19 -5 43zM621 1385l-79 -262q-13 -29 -39 -19q-29 8 -21 38l81 259q9 28 40 21q31 -10 18 -37zM750 1385l-79 -262q-13 -29 -39 -19q-29 8 -21 38l81 259q9 28 39 21q31 -9 19 -37z" />
<glyph unicode="&#xf1;" horiz-adv-x="1521" d="M-66 170q547 688 661 731q66 22 115 3q51 -21 76 -84q26 -71 15 -193q154 217 295 272q74 29 131 9q57 -21 87 -83q58 -123 -2 -343q-81 -302 -60 -409q5 -33 18 -42q10 -5 36 4q71 34 170 162l54 69q18 25 44 6q22 -19 6 -44l-56 -68q-112 -144 -193 -180q-54 -20 -90 0 q-38 20 -49 82q-25 123 62 436q52 202 6 300q-18 39 -54 54q-39 10 -87 -9q-71 -28 -158.5 -116t-182.5 -247l-110 -487q-4 -30 -35 -23q-31 8 -23 36l108 490l2 2q44 205 8 300q-15 39 -41 49q-27 12 -71 -4q-100 -39 -635 -710q-20 -27 -42 -6q-26 19 -5 43zM816 1170 q45 83 81 129q42 56 77 81q82 55 133 -16q14 -22 24 -50.5t19 -57.5q17 -65 32 -83q7 -10 20 2q26 19 61 74q40 69 70 129q16 26 42 13q26 -18 12 -42q-35 -67 -72 -131q-39 -64 -75 -91q-64 -47 -108 8q-15 18 -24 46t-18 58q-21 68 -33 89q-17 21 -48 2q-25 -17 -62 -68 q-38 -48 -77 -121q-12 -27 -41 -12q-23 12 -13 41z" />
<glyph unicode="&#xf2;" horiz-adv-x="1252" d="M-70 170q439 560 456 584q122 177 301 177q78 0 119 -21q56 -28 62 -92q0 -30 -29 -33q-30 0 -33 29q-3 28 -27 42q-26 12 -92 12q-149 0 -251 -149q-113 -161 -127 -405q-2 -13 -2 -36q0 -118 58 -182q52 -59 146 -65q6 0 10.5 -1t10.5 -1q136 3 226 96q94 94 152 288 q32 120 29 243q-74 98 -61 194q5 27 30 27q12 0 16 -3h2q36 -9 56 -66q14 -46 17 -110q0 -5 1 -10t1 -9q22 -29 58 -50q39 -22 114 -16t117 60l48 60q18 26 41 6q26 -18 7 -41l-46 -60q-58 -76 -153.5 -85.5t-156.5 22.5l-16 10q-8 5 -15 11q-7 -107 -31 -199 q-61 -211 -166 -316q-111 -111 -268 -111h-27q-124 10 -187 86q-73 82 -73 222v38q6 103 28 192l-298 -375q-20 -27 -42 -6q-26 19 -5 43zM553 1405q26 -101 71 -152q44 -55 110 -66q29 -8 23 -35q-4 -33 -36 -25q-86 17 -143 87q-57 67 -85 174q-5 31 23 38q29 7 37 -21z " />
<glyph unicode="&#xf3;" horiz-adv-x="1252" d="M-70 170q439 560 456 584q122 177 301 177q78 0 119 -21q56 -28 62 -92q0 -30 -29 -33q-30 0 -33 29q-3 28 -27 42q-26 12 -92 12q-149 0 -251 -149q-113 -161 -127 -405q-2 -13 -2 -36q0 -118 58 -182q52 -59 146 -65q6 0 10.5 -1t10.5 -1q136 3 226 96q94 94 152 288 q32 120 29 243q-74 98 -61 194q5 27 30 27q12 0 16 -3h2q36 -9 56 -66q14 -46 17 -110q0 -5 1 -10t1 -9q22 -29 58 -50q39 -22 114 -16t117 60l48 60q18 26 41 6q26 -18 7 -41l-46 -60q-58 -76 -153.5 -85.5t-156.5 22.5l-16 10q-8 5 -15 11q-7 -107 -31 -199 q-61 -211 -166 -316q-111 -111 -268 -111h-27q-124 10 -187 86q-73 82 -73 222v38q6 103 28 192l-298 -375q-20 -27 -42 -6q-26 19 -5 43zM1037 1408q-58 -112 -158 -174q-99 -66 -249 -81q-30 -4 -33 27q-1 29 27 33q132 14 224 73q83 50 133 149q14 27 42 15 q26 -12 14 -42z" />
<glyph unicode="&#xf4;" horiz-adv-x="1252" d="M-70 170q439 560 456 584q122 177 301 177q78 0 119 -21q56 -28 62 -92q0 -30 -29 -33q-30 0 -33 29q-3 28 -27 42q-26 12 -92 12q-149 0 -251 -149q-113 -161 -127 -405q-2 -13 -2 -36q0 -118 58 -182q52 -59 146 -65q6 0 10.5 -1t10.5 -1q136 3 226 96q94 94 152 288 q32 120 29 243q-74 98 -61 194q5 27 30 27q12 0 16 -3h2q36 -9 56 -66q14 -46 17 -110q0 -5 1 -10t1 -9q22 -29 58 -50q39 -22 114 -16t117 60l48 60q18 26 41 6q26 -18 7 -41l-46 -60q-58 -76 -153.5 -85.5t-156.5 22.5l-16 10q-8 5 -15 11q-7 -107 -31 -199 q-61 -211 -166 -316q-111 -111 -268 -111h-27q-124 10 -187 86q-73 82 -73 222v38q6 103 28 192l-298 -375q-20 -27 -42 -6q-26 19 -5 43zM507 1129l349 293q26 19 44 -4q6 -6 6 -12l108 -289q9 -29 -19 -40q-28 -12 -39 19l-93 251l-316 -265q-24 -21 -44 4q-15 24 4 43z " />
<glyph unicode="&#xf5;" horiz-adv-x="1252" d="M-70 170q439 560 456 584q122 177 301 177q78 0 119 -21q56 -28 62 -92q0 -30 -29 -33q-30 0 -33 29q-3 28 -27 42q-26 12 -92 12q-149 0 -251 -149q-113 -161 -127 -405q-2 -13 -2 -36q0 -118 58 -182q52 -59 146 -65q6 0 10.5 -1t10.5 -1q136 3 226 96q94 94 152 288 q32 120 29 243q-74 98 -61 194q5 27 30 27q12 0 16 -3h2q36 -9 56 -66q14 -46 17 -110q0 -5 1 -10t1 -9q22 -29 58 -50q39 -22 114 -16t117 60l48 60q18 26 41 6q26 -18 7 -41l-46 -60q-58 -76 -153.5 -85.5t-156.5 22.5l-16 10q-8 5 -15 11q-7 -107 -31 -199 q-61 -211 -166 -316q-111 -111 -268 -111h-27q-124 10 -187 86q-73 82 -73 222v38q6 103 28 192l-298 -375q-20 -27 -42 -6q-26 19 -5 43zM476 1170q45 83 81 129q42 56 77 81q82 55 133 -16q14 -22 24 -50.5t19 -57.5q17 -65 32 -83q7 -10 20 2q26 19 61 74q40 69 70 129 q16 26 42 13q26 -18 12 -42q-35 -67 -72 -131q-39 -64 -75 -91q-64 -47 -108 8q-15 18 -24 46t-18 58q-21 68 -33 89q-17 21 -48 2q-25 -17 -62 -68q-38 -48 -77 -121q-12 -27 -41 -12q-23 12 -13 41z" />
<glyph unicode="&#xf6;" horiz-adv-x="1252" d="M-70 170q439 560 456 584q122 177 301 177q78 0 119 -21q56 -28 62 -92q0 -30 -29 -33q-30 0 -33 29q-3 28 -27 42q-26 12 -92 12q-149 0 -251 -149q-113 -161 -127 -405q-2 -13 -2 -36q0 -118 58 -182q52 -59 146 -65q6 0 10.5 -1t10.5 -1q136 3 226 96q94 94 152 288 q32 120 29 243q-74 98 -61 194q5 27 30 27q12 0 16 -3h2q36 -9 56 -66q14 -46 17 -110q0 -5 1 -10t1 -9q22 -29 58 -50q39 -22 114 -16t117 60l48 60q18 26 41 6q26 -18 7 -41l-46 -60q-58 -76 -153.5 -85.5t-156.5 22.5l-16 10q-8 5 -15 11q-7 -107 -31 -199 q-61 -211 -166 -316q-111 -111 -268 -111h-27q-124 10 -187 86q-73 82 -73 222v38q6 103 28 192l-298 -375q-20 -27 -42 -6q-26 19 -5 43zM778 1385l-79 -262q-13 -29 -39 -19q-29 8 -21 38l81 259q9 28 40 21q31 -10 18 -37zM907 1385l-79 -262q-13 -29 -39 -19 q-29 8 -21 38l81 259q9 28 39 21q31 -9 19 -37z" />
<glyph unicode="&#xf7;" horiz-adv-x="562" d="M29 534h476q31 0 31 -31q0 -29 -31 -29h-476q-29 0 -29 29q0 31 29 31zM336 743l-27 -146q-5 -34 -35 -24q-29 3 -25 35l27 145q3 28 35 25q28 -4 25 -35zM284 390l-25 -148q-8 -30 -35 -23q-30 5 -25 36l25 145q6 28 37 25q29 -8 23 -35z" />
<glyph unicode="&#xf8;" horiz-adv-x="1252" d="M1014 920l-654 -965q-21 -28 -43 -8q-23 17 -8 41l653 967q18 22 45 8q23 -19 7 -43zM-70 170q439 560 456 584q122 177 301 177q78 0 119 -21q56 -28 62 -92q0 -30 -29 -33q-30 0 -33 29q-3 28 -27 42q-26 12 -92 12q-149 0 -251 -149q-113 -161 -127 -405 q-2 -13 -2 -36q0 -118 58 -182q52 -59 146 -65q6 0 10.5 -1t10.5 -1q136 3 226 96q94 94 152 288q32 120 29 243q-74 98 -61 194q5 27 30 27q12 0 16 -3h2q36 -9 56 -66q14 -46 17 -110q0 -5 1 -10t1 -9q22 -29 58 -50q39 -22 114 -16t117 60l48 60q18 26 41 6q26 -18 7 -41 l-46 -60q-58 -76 -153.5 -85.5t-156.5 22.5l-16 10q-8 5 -15 11q-7 -107 -31 -199q-61 -211 -166 -316q-111 -111 -268 -111h-27q-124 10 -187 86q-73 82 -73 222v38q6 103 28 192l-298 -375q-20 -27 -42 -6q-26 19 -5 43z" />
<glyph unicode="&#xf9;" horiz-adv-x="1343" d="M-65 170l572 727q14 18 32 13q28 -4 25 -36l-98 -484q-41 -209 8 -305q20 -44 54 -52q39 -11 85 13q145 62 329 361l108 488q6 29 35 23q28 -7 25 -37l-110 -491v-2q-46 -208 -11 -299q15 -37 42 -50q30 -10 71 5q107 39 247 222q19 23 43 6q21 -17 7 -44 q-152 -196 -277 -242q-68 -21 -114 -2q-52 23 -75 85q-29 72 -16 189q-152 -214 -277 -267q-73 -33 -130 -15q-60 20 -92 82q-58 119 -12 345l72 357l-496 -627q-20 -27 -42 -6q-26 19 -5 43zM599 1405q26 -101 71 -152q44 -55 110 -66q29 -8 23 -35q-4 -33 -36 -25 q-86 17 -143 87q-57 67 -85 174q-5 31 23 38q29 7 37 -21z" />
<glyph unicode="&#xfa;" horiz-adv-x="1343" d="M-65 170l572 727q14 18 32 13q28 -4 25 -36l-98 -484q-41 -209 8 -305q20 -44 54 -52q39 -11 85 13q145 62 329 361l108 488q6 29 35 23q28 -7 25 -37l-110 -491v-2q-46 -208 -11 -299q15 -37 42 -50q30 -10 71 5q107 39 247 222q19 23 43 6q21 -17 7 -44 q-152 -196 -277 -242q-68 -21 -114 -2q-52 23 -75 85q-29 72 -16 189q-152 -214 -277 -267q-73 -33 -130 -15q-60 20 -92 82q-58 119 -12 345l72 357l-496 -627q-20 -27 -42 -6q-26 19 -5 43zM1267 1408q-58 -112 -158 -174q-99 -66 -249 -81q-30 -4 -33 27q-1 29 27 33 q132 14 224 73q83 50 133 149q14 27 42 15q26 -12 14 -42z" />
<glyph unicode="&#xfb;" horiz-adv-x="1343" d="M-65 170l572 727q14 18 32 13q28 -4 25 -36l-98 -484q-41 -209 8 -305q20 -44 54 -52q39 -11 85 13q145 62 329 361l108 488q6 29 35 23q28 -7 25 -37l-110 -491v-2q-46 -208 -11 -299q15 -37 42 -50q30 -10 71 5q107 39 247 222q19 23 43 6q21 -17 7 -44 q-152 -196 -277 -242q-68 -21 -114 -2q-52 23 -75 85q-29 72 -16 189q-152 -214 -277 -267q-73 -33 -130 -15q-60 20 -92 82q-58 119 -12 345l72 357l-496 -627q-20 -27 -42 -6q-26 19 -5 43zM580 1129l349 293q26 19 44 -4q6 -6 6 -12l108 -289q9 -29 -19 -40 q-28 -12 -39 19l-93 251l-316 -265q-24 -21 -44 4q-15 24 4 43z" />
<glyph unicode="&#xfc;" horiz-adv-x="1343" d="M-65 170l572 727q14 18 32 13q28 -4 25 -36l-98 -484q-41 -209 8 -305q20 -44 54 -52q39 -11 85 13q145 62 329 361l108 488q6 29 35 23q28 -7 25 -37l-110 -491v-2q-46 -208 -11 -299q15 -37 42 -50q30 -10 71 5q107 39 247 222q19 23 43 6q21 -17 7 -44 q-152 -196 -277 -242q-68 -21 -114 -2q-52 23 -75 85q-29 72 -16 189q-152 -214 -277 -267q-73 -33 -130 -15q-60 20 -92 82q-58 119 -12 345l72 357l-496 -627q-20 -27 -42 -6q-26 19 -5 43zM848 1385l-79 -262q-13 -29 -39 -19q-29 8 -21 38l81 259q9 28 40 21 q31 -10 18 -37zM977 1385l-79 -262q-13 -29 -39 -19q-29 8 -21 38l81 259q9 28 39 21q31 -9 19 -37z" />
<glyph unicode="&#xfd;" horiz-adv-x="1352" d="M1021 87q-106 -117 -227 -117q-103 2 -141 50t-36 123q1 59 20 126t40 130q23 65 34 110q44 201 8 295q-12 35 -39 48q-26 10 -69 -2q-141 -28 -633 -717q-20 -27 -42 -6q-26 19 -5 43q489 701 659 736q61 23 112 4q51 -23 75 -85q42 -106 -6 -329q-10 -41 -35 -116 q-21 -60 -39 -123t-20 -114q0 -112 119 -112q92 -3 179 98q52 57 88.5 131.5t52.5 138.5l2 2q20 97 50 216q18 76 35 146.5t33 131.5q7 30 38 23q29 -8 20 -37q-14 -55 -31 -127.5t-35 -151.5q-25 -105 -52 -218q-25 -104 -81 -329q110 56 182 132l77 98q17 23 44 6 q22 -21 4 -44l-77 -97q-66 -79 -253 -187q-20 -64 -66 -198.5t-94 -214.5q-87 -145 -174 -164q-42 -6 -73 13q-29 17 -45 58q-45 100 27 237q33 70 101.5 132t115 94t84.5 55t71 53q8 26 18 79q-13 -16 -16 -20zM974 -146l16 72q-18 -14 -38 -24t-57 -34.5t-101 -82 t-93 -118.5q-57 -111 -25 -187q9 -21 20 -29q14 -7 29 -5q64 16 135 135q42 69 114 273zM1306 1408q-58 -112 -158 -174q-99 -66 -249 -81q-30 -4 -33 27q-1 29 27 33q132 14 224 73q83 50 133 149q14 27 42 15q26 -12 14 -42z" />
<glyph unicode="&#xff;" horiz-adv-x="1352" d="M1021 87q-106 -117 -227 -117q-103 2 -141 50t-36 123q1 59 20 126t40 130q23 65 34 110q44 201 8 295q-12 35 -39 48q-26 10 -69 -2q-141 -28 -633 -717q-20 -27 -42 -6q-26 19 -5 43q489 701 659 736q61 23 112 4q51 -23 75 -85q42 -106 -6 -329q-10 -41 -35 -116 q-21 -60 -39 -123t-20 -114q0 -112 119 -112q92 -3 179 98q52 57 88.5 131.5t52.5 138.5l2 2q20 97 50 216q18 76 35 146.5t33 131.5q7 30 38 23q29 -8 20 -37q-14 -55 -31 -127.5t-35 -151.5q-25 -105 -52 -218q-25 -104 -81 -329q110 56 182 132l77 98q17 23 44 6 q22 -21 4 -44l-77 -97q-66 -79 -253 -187q-20 -64 -66 -198.5t-94 -214.5q-87 -145 -174 -164q-42 -6 -73 13q-29 17 -45 58q-45 100 27 237q33 70 101.5 132t115 94t84.5 55t71 53q8 26 18 79q-13 -16 -16 -20zM974 -146l16 72q-18 -14 -38 -24t-57 -34.5t-101 -82 t-93 -118.5q-57 -111 -25 -187q9 -21 20 -29q14 -7 29 -5q64 16 135 135q42 69 114 273zM1054 1385l-79 -262q-13 -29 -39 -19q-29 8 -21 38l81 259q9 28 40 21q31 -10 18 -37zM1183 1385l-79 -262q-13 -29 -39 -19q-29 8 -21 38l81 259q9 28 39 21q31 -9 19 -37z" />
<glyph unicode="&#x152;" horiz-adv-x="1863" d="M1248 1211q-33 -15 -79 -27q1 -8 3 -14.5t4 -12.5q48 -256 -50 -521q-103 -276 -316 -474q-109 -102 -224 -152q-120 -49 -229 -38q-118 16 -205 109q-57 57 -100 156q-51 118 -52.5 249.5t33.5 261.5q42 147 122.5 282.5t178.5 234.5q91 93 202 152q109 58 239 81 q30 7 35 -25v-15q26 32 73 40q12 2 39 2q84 -10 152 -108q24 -33 43 -73t34 -77q36 10 72 25q57 23 106 75q41 50 65 126q6 28 37 21q28 -7 21 -37q-25 -88 -77 -150q-50 -59 -127 -91zM785 1437q-119 -18 -222 -74q-98 -53 -185 -140q-94 -95 -170 -223.5t-115 -268.5 q-34 -120 -33 -241t48 -228q34 -80 87 -139q73 -80 171 -92q92 -9 197 35q103 46 206 140q204 191 299 450q93 253 47 488l-6 27h-4q-104 -14 -181 7q-99 23 -133 106q-9 21 -12 45q-4 34 -2 50q2 33 21 65q-1 -1 -13 -7zM839 1340q3 -21 8 -34q24 -55 94 -70q63 -16 147 -4 q-24 68 -64 124q-54 75 -108 81q-13 3 -25 0q-22 -4 -35 -20q-16 -16 -19 -44q0 -23 2 -33zM1941 1327q-10 21 -35 46q-26 18 -63 33q-121 41 -232 29q-107 -10 -179 -72q-24 -22 -33 -32q-73 -75 -87 -153q-15 -75 33 -139q67 43 114 64q73 30 146.5 34t138.5 -36 q45 -29 62 -65q10 -20 10 -49q-4 -29 -16 -46q-23 -39 -75 -62q-90 -44 -199 -19q-117 28 -190 98q-86 -68 -143 -140q-133 -174 -133 -363q-1 -187 127 -322q21 -24 41 -37q120 -94 275 -79q151 12 257 114q9 9 18.5 19.5t19.5 21.5l68 90q22 20 44 4q23 -19 6 -44l-71 -89 q-12 -17 -43 -46q-115 -111 -293 -130q-182 -16 -318 91q-17 11 -48 41q-144 154 -143 366q0 214 145 401q28 33 66.5 72t83.5 75q-61 82 -44 185q19 99 104 187q9 7 17.5 16t17.5 17q89 74 214 87q124 15 260 -33q44 -15 81 -43q39 -33 52 -67q10 -30 -17 -39 q-26 -17 -39 14zM1710 1049q-48 30 -107.5 26t-118.5 -28q-56 -26 -98 -54q63 -53 152 -73q93 -20 162 13q34 18 48 39q6 9 6 19q2 6 -2 18q-8 18 -42 40z" />
<glyph unicode="&#x153;" horiz-adv-x="1672" d="M-68 170q429 573 517.5 664.5t233.5 96.5q78 0 119 -21q56 -28 62 -92q0 -30 -29 -33q-30 0 -33 29q-3 28 -27 42q-26 12 -92 12q-146 -15 -219 -102.5t-110.5 -173.5t-48.5 -278q-2 -13 -2 -36q0 -118 58 -182q52 -59 146 -65q6 0 10.5 -1t10.5 -1q136 3 226 96 q94 94 152 288q41 195 38 318q-74 98 -61 194q5 27 30 27q12 0 16 -3h2q36 -9 56 -66q14 -46 17 -110q0 -5 1 -10t1 -9q14 -32 28 -55q2 -4 5 -9q6 8 13 16q104 128 249 187q56 24 104 27q82 9 145 -23q67 -37 98 -110q16 -50 18 -79v-2q11 -116 -32 -190t-111 -111 q-59 -29 -129 -35q-71 -5 -135 16q-73 21 -130 77t-90 115q-51 -82 -68 -169h-3q0 -5 -1 -10t-1 -11q-19 -121 50 -222q67 -101 187 -129q4 0 9 -1t10 -1q91 -13 212 31q119 47 168 110l57 70q18 22 42 4q23 -19 6 -42l-57 -71q-63 -78 -195 -127q-136 -48 -241 -36 q-18 4 -23 4q-144 31 -227 155q-37 57 -52 120q-49 -107 -114 -172q-111 -111 -268 -111h-27q-124 10 -187 86q-73 82 -73 222v38q5 96 25 180l-289 -363q-20 -27 -42 -6q-26 19 -5 43zM1109 586l49 -58q47 -64 118 -84q55 -15 114 -12q57 3 104 29q127 64 112 239 q-3 34 -16 64q-24 56 -69 77q-47 25 -110 19q-48 -7 -87 -23q-126 -52 -227 -170q3 5 -21 -29z" />
<glyph unicode="&#x160;" horiz-adv-x="1159" d="M997 1325q-43 54 -123 85q-78 30 -180 27q-162 -6 -233 -122q-32 -55 -35 -117q-4 -63 23 -122q29 -64 95 -114t173 -67q241 -39 332 -197q55 -96 46 -210q-11 -112 -73 -216q-64 -109 -177.5 -192t-256.5 -104q-162 -24 -314 41q-147 64 -268 216q-15 24 4 43 q24 20 44 -4q110 -139 245 -199q131 -59 281 -38q129 20 230.5 94.5t159.5 173.5q56 96 62 189q10 93 -35 175q-79 133 -291 168q-122 20 -200 79.5t-111 134.5q-36 76 -32 152q8 83 46 145q84 143 283 154q110 3 205 -34q90 -33 148 -103q19 -26 -6 -44q-23 -18 -42 6z M1121 1948l-349 -293q-26 -19 -44 4q-6 6 -6 12l-108 289q-9 29 19 40q28 12 39 -19l93 -251l316 265q24 21 44 -4q15 -24 -4 -43z" />
<glyph unicode="&#x161;" horiz-adv-x="841" d="M-69 170l571 720q8 13 28 13q12 0 18 -5.5t8 -13.5q37 -174 112.5 -255.5t138.5 -219.5q37 -77 37 -149q2 -88 -41 -154q-43 -65 -121 -104q-72 -29 -152 -32q-108 -3 -195 45q-80 47 -114 141q-5 29 21 39q29 8 37 -18q26 -72 87 -108q69 -42 164 -38q64 0 127 27 q63 30 94 81q33 47 33 121q-3 53 -31 124q-57 121 -127.5 199.5t-113.5 222.5l-534 -673q-20 -27 -42 -6q-26 19 -5 43zM916 1373l-349 -293q-26 -19 -44 4q-6 6 -6 12l-108 289q-9 29 19 40q28 12 39 -19l93 -251l316 265q24 21 44 -4q15 -24 -4 -43z" />
<glyph unicode="&#x178;" horiz-adv-x="1148" d="M1095 84l-6 -29q110 56 182 132l77 98q17 23 44 6q22 -21 4 -44l-77 -97q-66 -79 -253 -187q-20 -64 -63.5 -194.5t-96.5 -218.5q-87 -145 -174 -164q-42 -6 -73 13q-29 17 -45 58q-45 100 27 237q33 70 101.5 132t115 94t84.5 55t71 53q9 30 43.5 213.5t56.5 288.5 q-57 -130 -114 -218q-61 -94 -156 -172.5t-185 -112.5q-82 -30 -141 -19q-72 18 -106 83q-50 96 -8 304q18 88 47 176.5t59 176.5q42 118 77.5 234t44.5 229q9 115 -31 176q-25 38 -66 48q-48 9 -100 -8q-124 -42 -212 -168q-47 -67 -85 -156q-42 -92 -77 -220 q-12 -32 -39 -21q-26 7 -21 37q35 125 81 227q46 106 91 168q103 143 243 191q72 23 131 10q64 -15 106 -74q51 -80 40 -214q-10 -119 -46.5 -238.5t-78.5 -239.5q-30 -87 -58.5 -174.5t-45.5 -172.5q-38 -185 2 -264q20 -40 65 -49q40 -10 106 14q82 31 168 103.5 t143 158.5q109 166 200 463q49 162 87 324.5t77 327.5q7 30 35 23q30 -8 23 -37q-54 -227 -101 -456q-44 -217 -173 -906zM854 -419q42 69 78 170.5t52 174.5q-18 -14 -38 -24t-57 -34.5t-101 -82t-93 -118.5q-57 -111 -25 -187q9 -21 20 -29q14 -7 29 -5q64 16 135 135z M1046 1960l-79 -262q-13 -29 -39 -19q-29 8 -21 38l81 259q9 28 40 21q31 -10 18 -37zM1175 1960l-79 -262q-13 -29 -39 -19q-29 8 -21 38l81 259q9 28 39 21q31 -9 19 -37z" />
<glyph unicode="&#x17d;" horiz-adv-x="1402" d="M710 868l299 -2l337 494q-5 -2 -10 -3.5t-9 -2.5q-78 -26 -151 -23q-60 3 -111.5 16.5t-102.5 31.5q-57 18 -115.5 34.5t-129.5 15.5q-80 -3 -160 -35q-79 -36 -137 -102q-21 -24 -44 -2q-23 20 -2 43q71 77 158 115q78 37 185 41q77 1 140 -15.5t123 -36.5 q48 -15 96 -28.5t102 -14.5q67 -4 131 18q63 23 120 71h2v2h4v2h4v2h19v-2h4v-2q4 0 6 -2v-2h3v-2h2v-2h2v-4h2v-5h2v-18h-2v-4h-2q0 -5 -2 -5l-391 -575l245 -2q31 0 31 -31q0 -29 -31 -29l-284 2l-351 -517h-2q-18 -27 -59 -77q21 -11 63 -31q18 -12 37 -21.5t38 -20.5 q65 -38 131.5 -70t140.5 -38q78 -9 155 29q81 37 137 112l69 83q17 25 42 7q23 -19 6 -44l-67 -85q-70 -88 -160 -129q-92 -42 -187 -34q-84 8 -156.5 42t-142.5 73q-17 11 -35.5 20.5t-36.5 21.5l-38 18l-37 19q-53 -56 -102 -93q-92 -70 -195 -91q-170 -32 -249 24 q-36 23 -42 58q-8 38 13 71q46 86 213 131q126 33 254 2q39 -8 91 -29q46 54 69 87l326 482l-258 2q-31 0 -31 31q0 29 31 29zM530 189q-42 12 -63 19q-115 24 -222 -4q-143 -39 -179 -100q-6 -17 -6 -29q4 -12 19 -21q54 -42 201 -15q87 17 171 79q50 42 79 71zM1432 1948 l-349 -293q-26 -19 -44 4q-6 6 -6 12l-108 289q-9 29 19 40q28 12 39 -19l93 -251l316 265q24 21 44 -4q15 -24 -4 -43z" />
<glyph unicode="&#x17e;" horiz-adv-x="1307" d="M-67 170l414 534q172 221 277 223t227 -26q99 -22 212 -32t239 57q24 16 41 -12q12 -24 -8 -37l-793 -744q56 18 93 23q140 18 243 -63q110 -84 206 -49h2q46 16 88.5 56t83.5 91l110 139q18 24 44 6q23 -20 4 -43l-110 -141q-45 -57 -94.5 -100.5t-104.5 -62.5 q0 -2 -2 -2l-1 -1q-130 -44 -263 60q-86 65 -198 50q-125 -20 -272 -122q-27 -15 -43 8q-15 23 6 41l851 797q-96 -22 -182.5 -9.5t-163.5 30.5q-107 24 -197 23.5t-245 -195.5q0 -2 -2 -2l-415 -534q-20 -27 -42 -6q-26 19 -5 43zM1284 1373l-349 -293q-26 -19 -44 4 q-6 6 -6 12l-108 289q-9 29 19 40q28 12 39 -19l93 -251l316 265q24 21 44 -4q15 -24 -4 -43z" />
<glyph unicode="&#x17f;" horiz-adv-x="401" d="M-62 170q462 596 486 626q33 121 71.5 243t87.5 248t88 167q42 48 122 48q32 0 50 -11q20 -15 27 -31q9 -13 9 -39q0 -64 -65 -175q-47 -78 -96 -151t-103 -148q-33 -44 -66.5 -89t-70.5 -92q-12 -41 -68.5 -268t-86.5 -336q6 6 11.5 13.5t11.5 13.5l60 77q20 25 44 6 q23 -18 4 -44l-60 -76q-43 -55 -104 -113q-42 -151 -88 -280t-93 -209q-85 -142 -174 -162q-39 -7 -75 13q-30 19 -46 56q-37 103 27 239q34 69 103 131.5t149 125.5q36 30 72 59t71 61q37 133 135 544v1l-386 -485q-20 -27 -42 -6q-26 19 -5 43zM-102 -331 q-60 -113 -25 -187q4 -17 20 -29q13 -7 29 -5q64 13 135 133q37 65 74.5 165t73.5 220q-19 -15 -37.5 -30t-35.5 -31q-77 -60 -141 -117.5t-93 -118.5zM607 1179q-55 -166 -82 -248q11 12 40 54q115 153 195 292q58 100 58 144q0 8 -4 12q0 1 -1 2l-1 2q-8 4 -19 4 q-53 0 -79 -29q-31 -35 -107 -233z" />
<glyph unicode="&#x2c6;" horiz-adv-x="552" d="M10 1129l349 293q26 19 44 -4q6 -6 6 -12l108 -289q9 -29 -19 -40q-28 -12 -39 19l-93 251l-316 -265q-24 -21 -44 4q-15 24 4 43z" />
<glyph unicode="&#x2c7;" horiz-adv-x="552" d="M507 1373l-349 -293q-26 -19 -44 4q-6 6 -6 12l-108 289q-9 29 19 40q28 12 39 -19l93 -251l316 265q24 21 44 -4q15 -24 -4 -43z" />
<glyph unicode="&#x2da;" horiz-adv-x="407" d="M323 1471q27 0 50 -6q47 -16 72 -50q27 -36 27 -85q0 -28 -8 -50q-22 -72 -89 -123t-141 -51q-20 0 -52 8q-46 12 -71 50q-27 32 -27 83q0 24 6 50q21 72 89.5 123t143.5 51zM356 1405q-10 4 -33 4q-55 0 -106.5 -38t-66.5 -91q-6 -18 -6 -33q0 -27 15 -48q18 -22 41 -27 q18 -4 34 -4q54 0 105 37.5t67 91.5q6 18 6 33q0 25 -14 48q-21 21 -42 27z" />
<glyph unicode="&#x2dc;" horiz-adv-x="616" d="M2 1170q45 83 81 129q42 56 77 81q82 55 133 -16q14 -22 24 -50.5t19 -57.5q17 -65 32 -83q7 -10 20 2q26 19 61 74q40 69 70 129q16 26 42 13q26 -18 12 -42q-35 -67 -72 -131q-39 -64 -75 -91q-64 -47 -108 8q-15 18 -24 46t-18 58q-21 68 -33 89q-17 21 -48 2 q-25 -17 -62 -68q-38 -48 -77 -121q-12 -27 -41 -12q-23 12 -13 41z" />
<glyph unicode="&#x2013;" horiz-adv-x="962" d="M87 534h803q31 0 31 -31q0 -29 -31 -29h-803q-29 0 -29 29q0 31 29 31z" />
<glyph unicode="&#x2014;" horiz-adv-x="752" d="M67 534h587q31 0 31 -31q0 -29 -31 -29h-587q-29 0 -29 29q0 31 29 31z" />
<glyph unicode="&#x2018;" horiz-adv-x="538" d="M528 1439l-58 -328q-6 -29 -36 -25q-29 3 -25 36l58 328q5 28 36 25q28 -8 25 -36z" />
<glyph unicode="&#x2019;" horiz-adv-x="542" d="M541 1439l-58 -328q-6 -29 -36 -25q-29 3 -25 36l58 328q5 28 36 25q28 -8 25 -36z" />
<glyph unicode="&#x201a;" horiz-adv-x="222" d="M118 183l-58 -327q-4 -28 -35 -25q-29 8 -25 35l58 327q3 28 35 25q28 -7 25 -35z" />
<glyph unicode="&#x201c;" horiz-adv-x="612" d="M622 1439l-58 -328q-6 -29 -36 -25q-29 3 -25 36l58 328q5 28 36 25q28 -8 25 -36zM505 1439l-58 -328q-4 -29 -35 -25q-30 3 -25 36l58 328q3 28 35 25q28 -7 25 -36z" />
<glyph unicode="&#x201d;" horiz-adv-x="568" d="M627 1439l-58 -328q-6 -29 -36 -25q-29 3 -25 36l58 328q5 28 36 25q28 -8 25 -36zM510 1439l-58 -328q-4 -29 -35 -25q-30 3 -25 36l58 328q3 28 35 25q28 -7 25 -36z" />
<glyph unicode="&#x201e;" horiz-adv-x="355" d="M235 183l-58 -327q-6 -28 -36 -25q-29 8 -25 35l58 327q5 28 36 25q28 -8 25 -35zM118 183l-58 -327q-4 -28 -35 -25q-29 8 -25 35l58 327q3 28 35 25q28 -7 25 -35z" />
<glyph unicode="&#x2020;" horiz-adv-x="354" d="M-67 170l417 528q19 21 42 4q23 -18 6 -44l-418 -525q-20 -27 -42 -6q-26 19 -5 43z" />
<glyph unicode="&#x2022;" horiz-adv-x="655" d="M227 634q11 42 28 79.5t36.5 65t40.5 43.5t40 16t31.5 -16t18 -43.5t2.5 -65t-14 -79.5q-12 -42 -29 -79t-37 -64.5t-41 -43.5t-40 -16t-31.5 16t-17.5 43.5t-2 64.5t15 79z" />
<glyph unicode="&#x2026;" horiz-adv-x="969" d="M313 183l-25 -148q-8 -30 -35 -23q-30 5 -25 36l25 145q6 28 37 25q29 -8 23 -35zM636 183l-25 -148q-8 -30 -35 -23q-30 5 -25 36l25 145q6 28 37 25q29 -8 23 -35zM959 183l-25 -148q-8 -30 -35 -23q-30 5 -25 36l25 145q6 28 37 25q29 -8 23 -35z" />
<glyph unicode="&#x2030;" horiz-adv-x="1451" d="M335 1303q17 5 31 6t28 -1q55 -7 85 -64q22 -45 25 -106q1 -21 -0.5 -44.5t-4.5 -46t-7 -42t-8 -34.5q-8 -23 -19 -48.5t-24 -50.5t-29 -48.5t-35 -42.5q-69 -72 -153 -72q-23 0 -48 7q-26 8 -49 27t-37 48q-22 49 -22 110q0 55 15 105q12 45 41 95.5t64 95.5 q70 84 146 106h1zM141 991q-6 -21 -9.5 -43.5t-3.5 -46.5q0 -53 16 -84q17 -35 50 -45q6 -2 14 -3t16 -1q57 0 109 55q32 35 55 81.5t38 85.5q8 26 14 65.5t4 79.5q-3 52 -18 82v-1q-17 29 -41 32q-16 3 -35 -3q-31 -9 -60.5 -32t-55.5 -55q-34 -39 -58 -84t-35 -84v1z M891 1318l-696 -1340q-18 -31 -42 -13q-25 14 -13 39l695 1343q16 24 44 13q25 -16 12 -42zM1244 579q17 5 31 6t28 -1q55 -7 85 -64q22 -45 25 -106q1 -21 -0.5 -44.5t-4.5 -46t-7 -42t-8 -34.5q-8 -23 -19 -48.5t-24 -50.5t-29 -48.5t-35 -42.5q-69 -72 -153 -72 q-23 0 -48 7q-26 8 -49 27t-37 48q-22 49 -22 110q0 55 15 105q12 45 41 95.5t64 95.5q70 84 146 106h1zM1050 267q-6 -21 -9.5 -43.5t-3.5 -46.5q0 -53 16 -84q17 -35 50 -45q6 -2 14 -3t16 -1q57 0 109 55q32 35 55 81.5t38 85.5q8 26 14 65.5t4 79.5q-3 52 -18 82v-1 q-17 29 -41 32q-16 3 -35 -3q-31 -9 -60.5 -32t-55.5 -55q-34 -39 -58 -84t-35 -84v1zM769 579q17 5 31 6t28 -1q55 -7 85 -64q22 -45 25 -106q1 -21 -0.5 -44.5t-4.5 -46t-7 -42t-8 -34.5q-8 -23 -19 -48.5t-24 -50.5t-29 -48.5t-35 -42.5q-69 -72 -153 -72q-23 0 -48 7 q-26 8 -49 27t-37 48q-22 49 -22 110q0 55 15 105q12 45 41 95.5t64 95.5q70 84 146 106h1zM575 267q-6 -21 -9.5 -43.5t-3.5 -46.5q0 -53 16 -84q17 -35 50 -45q6 -2 14 -3t16 -1q57 0 109 55q32 35 55 81.5t38 85.5q8 26 14 65.5t4 79.5q-3 52 -18 82v-1q-17 29 -41 32 q-16 3 -35 -3q-31 -9 -60.5 -32t-55.5 -55q-34 -39 -58 -84t-35 -84v1z" />
<glyph unicode="&#x2039;" horiz-adv-x="572" d="M27 351l473 235q28 15 42 -13q9 -31 -15 -41l-425 -212l344 -233q24 -15 9 -44q-19 -21 -44 -8l-386 262q-32 27 2 54z" />
<glyph unicode="&#x203a;" horiz-adv-x="572" d="M517 272l-473 -235q-28 -15 -42 13q-9 31 15 41l425 212l-344 233q-24 15 -9 44q19 21 44 8l386 -262q32 -27 -2 -54z" />
<glyph unicode="&#x20ac;" horiz-adv-x="1158" d="M58 699h113q12 41 23 76q19 60 32 91h-124q-29 0 -29 29q0 31 29 31h152q59 132 143 239q130 172 303 272q156 91 279 52q53 -16 83 -54q33 -43 33 -93q3 -110 -120 -227q-27 -25 -47.5 -2t3.5 46q104 98 104 183q-3 31 -21 54q-18 22 -52 35q-99 28 -230 -46 q-164 -95 -287 -257q-69 -89 -123 -202h431q31 0 31 -31q0 -29 -31 -29h-460q-11 -28 -21.5 -55.5t-19.5 -54.5t-17 -57h299q31 0 31 -31q0 -29 -31 -29h-316q-12 -46 -24 -100q-31 -130 -25 -250q4 -111 58 -188.5t193 -71.5q83 6 152 42q73 39 122 99l77 98q19 23 44 6 q23 -20 4 -43l-77 -98q-61 -76 -141 -116q-88 -43 -179 -47q-174 -9 -241 85t-73 232q-6 127 25 262q11 48 22 90h-97q-29 0 -29 29q0 31 29 31z" />
<glyph unicode="&#x25fc;" horiz-adv-x="920" d="M0 920h920v-920h-920v920z" />
<glyph unicode="&#xa75b;" horiz-adv-x="920" d="M-67 170l444 578l-5 4q-19 21 -35 50.5t-26 64.5q-9 33 -9 65q0 37 14 77q25 71 57.5 98t67.5 21q16 -5 30.5 -12t25.5 -18t21 -32.5t17 -54.5q5 -25 5 -45q0 -41 -17 -84q-15 -34 -29.5 -63.5t-32.5 -58.5q24 -14 57 -20.5t75 -5.5q57 16 104.5 42t83.5 58 q38 33 61 53.5t31 28.5h-1q18 10 29 10q16 0 27 -17q13 -17 -15 -48q-67 -59 -140.5 -162.5t-141.5 -240.5q-54 -109 -83 -191.5t-29 -130.5q0 -17 7.5 -38.5t13.5 -31.5q12 -19 26 -28t30.5 -11.5t35 0t38.5 6.5q21 5 52 26t63.5 48.5t62 55.5t46.5 47q16 25 41 7 q26 -17 8 -41q-5 -7 -22.5 -23.5t-38.5 -35.5l-42 -38t-33 -30t-30 -25t-40.5 -26t-48.5 -20t-54 -9q-68 -4 -110.5 22.5t-55.5 84.5h1q-9 21 -9 47q0 150 226 581l-6 5q-38 -29 -88 -35q-51 -2 -92.5 7t-70.5 27l-3 2l-446 -577q-20 -27 -42 -6q-26 19 -5 43zM416 802 q16 21 28 46t22 51q20 57 11 103q-5 24 -12.5 38t-17 19.5t-19.5 4t-19 -7.5q-8 -8 -17 -24.5t-17 -37.5q-9 -26 -9 -57q0 -25 6 -50q13 -58 36 -85h8z" />
<glyph unicode="&#xe5d2;" horiz-adv-x="2051" d="M-69 170q531 682 660 731q66 22 115 3q51 -21 76 -84q26 -72 15 -191q153 213 283 270q73 31 130 13q60 -20 92 -85q35 -76 27 -202q159 220 297 274q74 29 131 9q57 -21 87 -83q57 -121 -2 -343q-81 -302 -60 -409q5 -33 18 -42q10 -5 36 4q68 33 170 162l66 83 q18 25 42 7q26 -22 6 -44l-66 -83q-112 -144 -193 -180q-54 -20 -90 0q-37 20 -50 82q-24 127 63 436q52 202 6 300q-20 40 -54 54q-39 10 -87 -9q-71 -28 -158.5 -116t-182.5 -247l-110 -487q-4 -30 -35 -23q-31 8 -23 36l108 490l2 2q42 202 -4 304q-19 38 -54 52 q-38 9 -88 -11q-152 -67 -330 -363l-110 -487q-4 -30 -35 -23q-31 8 -23 36l108 490l2 2q44 205 8 300q-15 39 -41 49q-27 12 -71 -4q-99 -38 -634 -710q-20 -27 -42 -6q-26 19 -5 43zM701 1178h1178q31 0 31 -31q0 -29 -31 -29h-1178q-29 0 -29 29q0 31 29 31z" />
<glyph unicode="&#xe5dc;" horiz-adv-x="1521" d="M-66 170q547 688 661 731q66 22 115 3q51 -21 76 -84q26 -71 15 -193q154 217 295 272q74 29 131 9q57 -21 87 -83q58 -123 -2 -343q-81 -302 -60 -409q5 -33 18 -42q10 -5 36 4q71 34 170 162l54 69q18 25 44 6q22 -19 6 -44l-56 -68q-112 -144 -193 -180q-54 -20 -90 0 q-38 20 -49 82q-25 123 62 436q52 202 6 300q-18 39 -54 54q-39 10 -87 -9q-71 -28 -158.5 -116t-182.5 -247l-110 -487q-4 -30 -35 -23q-31 8 -23 36l108 490l2 2q44 205 8 300q-15 39 -41 49q-27 12 -71 -4q-100 -39 -635 -710q-20 -27 -42 -6q-26 19 -5 43zM701 1178h681 q31 0 31 -31q0 -29 -31 -29h-681q-29 0 -29 29q0 31 29 31z" />
<glyph unicode="&#xeba1;" horiz-adv-x="1555" d="M-62 170q462 596 486 626q33 121 71.5 243t87.5 248t88 167q42 48 122 48q32 0 50 -11q20 -15 27 -31q9 -13 9 -39q0 -64 -65 -175q-47 -78 -96 -151t-103 -148q-33 -44 -66.5 -89t-70.5 -92q-12 -41 -68.5 -268t-86.5 -336q6 6 11.5 13.5t11.5 13.5q431 545 471 596 q35 120 76 244.5t92 256.5q46 125 87 168q42 48 123 48q31 0 50 -11q18 -13 27 -31q8 -14 8 -39q0 -64 -65 -175q-45 -78 -94.5 -151t-102.5 -148q-71 -95 -145 -191q-19 -61 -35.5 -121.5t-31.5 -119.5q26 59 56 108q73 131 161.5 213.5t198.5 94.5q144 14 168 -142v-2 q17 -122 -46 -355q-68 -262 -45 -363q5 -31 16 -36q6 -7 27 4q58 26 141 133l63 79q18 23 43 4q23 -19 4 -43l-62 -77q-95 -122 -166 -151q-46 -21 -81 0q-33 18 -46 74q-23 114 48 391q57 230 44 332v2q-17 95 -102 87q-93 -9 -170 -83.5t-144 -192.5q-110 -186 -245 -601 q-8 -30 -37 -19q-26 7 -21 36q15 57 74.5 292t86.5 327q-435 -544 -482 -588q-42 -151 -88 -280t-93 -209q-85 -142 -174 -162q-39 -7 -75 13q-30 19 -46 56q-37 103 27 239q34 69 103 131.5t149 125.5q36 30 72 59t71 61q37 133 135 544v1l-386 -485q-20 -27 -42 -6 q-26 19 -5 43zM-102 -331q-60 -113 -25 -187q4 -17 20 -29q13 -7 29 -5q64 13 135 133q37 65 74.5 165t73.5 220q-19 -15 -37.5 -30t-35.5 -31q-77 -60 -141 -117.5t-93 -118.5zM923 922q24 31 45 63q112 153 196 292q56 99 56 144q0 10 -2 12q-6 4 -5 4q-8 4 -18 4 q-54 0 -77 -29q-33 -33 -77 -147q-67 -180 -118 -343zM607 1179q-55 -166 -82 -248q11 12 40 54q115 153 195 292q58 100 58 144q0 8 -4 12q0 1 -1 2l-1 2q-8 4 -19 4q-53 0 -79 -29q-31 -35 -107 -233z" />
<glyph unicode="&#xeba2;" horiz-adv-x="1083" d="M-62 170q462 596 486 626q33 121 71.5 243t87.5 248t88 167q42 48 122 48q32 0 50 -11q20 -15 27 -31q9 -13 9 -39q0 -64 -65 -175q-47 -78 -96 -151t-103 -148q-33 -44 -66.5 -89t-70.5 -92q-12 -41 -68.5 -268t-86.5 -336q6 6 11.5 13.5t11.5 13.5l60 77q11 13 23 14 l494 626l8 8q10 7 23 4q8 -3 17 -12h2v-2q6 -12 4 -23l-131 -493q-52 -194 -29 -297q10 -37 23 -45q12 -9 29 -2q52 18 143 126l79 98q17 21 44 4q23 -20 4 -44l-79 -95q-99 -121 -170 -147q-57 -15 -90 14q-33 27 -41 79q-15 57 -6.5 144.5t33.5 181.5l93 349l-490 -621 q-11 -15 -23 -15q-34 -39 -76 -79q-42 -151 -88 -280t-93 -209q-85 -142 -174 -162q-39 -7 -75 13q-30 19 -46 56q-37 103 27 239q34 69 103 131.5t149 125.5q36 30 72 59t71 61q37 133 135 544v1l-386 -485q-20 -27 -42 -6q-26 19 -5 43zM-102 -331q-60 -113 -25 -187 q4 -17 20 -29q13 -7 29 -5q64 13 135 133q37 65 74.5 165t73.5 220q-19 -15 -37.5 -30t-35.5 -31q-77 -60 -141 -117.5t-93 -118.5zM607 1179q-55 -166 -82 -248q11 12 40 54q115 153 195 292q58 100 58 144q0 8 -4 12q0 1 -1 2l-1 2q-8 4 -19 4q-53 0 -79 -29 q-31 -35 -107 -233zM1077 1309l-75 -279q-9 -29 -38 -21q-31 9 -22 38l76 276q8 29 38 23q31 -8 21 -37z" />
<glyph unicode="&#xeba3;" horiz-adv-x="1101" d="M-62 170q462 596 486 626q33 121 71.5 243t87.5 248t88 167q42 48 122 48q32 0 50 -11q20 -15 27 -31q9 -13 9 -39q0 -64 -65 -175q-47 -78 -96 -151t-103 -148q-33 -44 -66.5 -89t-70.5 -92q-12 -41 -68.5 -268t-86.5 -336q6 6 11.5 13.5t11.5 13.5l60 77q8 10 17 13 l412 517q33 121 71.5 243t86.5 247q50 127 89 168q42 48 122 48q32 0 50 -11q20 -15 27 -31q9 -13 9 -39q0 -64 -65 -175q-47 -78 -96 -151t-103 -148q-33 -44 -66.5 -89t-70.5 -92q-12 -41 -22.5 -80t-21.5 -79q-19 -65 -37 -128l-36 -126q-53 -179 -18 -272q15 -36 39 -46 q25 -12 65 0q109 38 247 231q19 23 43 6q27 -17 7 -41q-147 -210 -279 -253q-63 -18 -108 2q-50 23 -70 78q-42 111 16 314q18 63 35.5 125.5t35.5 125.5l6 17l-6 -6l-402 -501q-8 -10 -16 -14q-34 -39 -77 -80q-42 -151 -88 -280t-93 -209q-85 -142 -174 -162 q-39 -7 -75 13q-30 19 -46 56q-37 103 27 239q34 69 103 131.5t149 125.5q36 30 72 59t71 61q37 133 135 544v1l-386 -485q-20 -27 -42 -6q-26 19 -5 43zM-102 -331q-60 -113 -25 -187q4 -17 20 -29q13 -7 29 -5q64 13 135 133q37 65 74.5 165t73.5 220q-19 -15 -37.5 -30 t-35.5 -31q-77 -60 -141 -117.5t-93 -118.5zM1051 1265q-33 -86 -60.5 -169t-54.5 -165q11 12 40 54q115 153 195 292q58 100 58 144q0 8 -4 12q0 1 -1 2l-1 2q-8 4 -19 4q-53 0 -79 -29q-31 -35 -74 -147zM607 1179q-55 -166 -82 -248q11 12 40 54q115 153 195 292 q58 100 58 144q0 8 -4 12q0 1 -1 2l-1 2q-8 4 -19 4q-53 0 -79 -29q-31 -35 -107 -233z" />
<glyph unicode="&#xeba6;" horiz-adv-x="802" d="M-62 170q462 596 486 626q33 121 71.5 243t87.5 248t88 167q42 48 122 48q32 0 50 -11q20 -15 27 -31q9 -13 9 -39q0 -64 -65 -175q-47 -78 -96 -151t-103 -148q-33 -44 -66.5 -89t-70.5 -92q-12 -41 -155 -604q6 6 11.5 13.5t237 300.5t253.5 320q33 121 71.5 243 t87.5 248t88 167q42 48 122 48q32 0 50 -11q20 -15 27 -31q9 -13 9 -39q0 -64 -65 -175q-47 -78 -96 -151t-103 -148q-33 -44 -66.5 -89t-70.5 -92q-12 -41 -68.5 -268t-86.5 -336q6 6 11.5 13.5t11.5 13.5l60 77q20 25 44 6q23 -18 4 -44l-60 -76q-43 -55 -104 -113 q-42 -151 -88 -280t-93 -209q-85 -142 -174 -162q-39 -7 -75 13q-30 19 -46 56q-37 103 27 239q34 69 103 131.5t149 125.5q36 30 72 59t71 61q37 133 135 544v1q-440 -539 -482 -579q-42 -151 -88 -280t-93 -209q-85 -142 -174 -162q-39 -7 -75 13q-30 19 -46 56 q-37 103 27 239q34 69 103 131.5t149 125.5q36 30 72 59t71 61q37 133 135 544v1l-386 -485q-20 -27 -42 -6q-26 19 -5 43zM299 -331q-60 -113 -25 -187q4 -17 20 -29q13 -7 29 -5q64 13 135 133q37 65 74.5 165t73.5 220q-19 -15 -37.5 -30t-35.5 -31q-77 -60 -141 -117.5 t-93 -118.5zM-102 -331q-60 -113 -25 -187q4 -17 20 -29q13 -7 29 -5q64 13 135 133q37 65 74.5 165t73.5 220q-19 -15 -37.5 -30t-35.5 -31q-77 -60 -141 -117.5t-93 -118.5zM1008 1179q-55 -166 -82 -248q11 12 40 54q115 153 195 292q58 100 58 144q0 8 -4 12q0 1 -1 2 l-1 2q-8 4 -19 4q-53 0 -79 -29q-31 -35 -107 -233zM607 1179q-55 -166 -82 -248q11 12 40 54q115 153 195 292q58 100 58 144q0 8 -4 12q0 1 -1 2l-1 2q-8 4 -19 4q-53 0 -79 -29q-31 -35 -107 -233z" />
<glyph unicode="&#xeba7;" horiz-adv-x="1484" d="M-62 170q462 596 486 626q33 121 71.5 243t87.5 248t88 167q42 48 122 48q32 0 50 -11q20 -15 27 -31q9 -13 9 -39q0 -64 -65 -175q-47 -78 -96 -151t-103 -148q-33 -44 -66.5 -89t-70.5 -92q-12 -41 -155 -604q6 6 243 306.5t259 327.5q33 121 71.5 243t87.5 248t88 167 q42 48 122 48q32 0 50 -11q20 -15 27 -31q9 -13 9 -39q0 -64 -65 -175q-47 -78 -96 -151t-103 -148q-33 -44 -66.5 -89t-70.5 -92q-12 -41 -155 -604q6 6 11.5 13.5t588.5 730.5l8 8q10 7 23 4q8 -3 17 -12h2v-2q6 -12 4 -23l-131 -493q-52 -194 -29 -297q10 -37 23 -45 q12 -9 29 -2q52 18 143 126l79 98q17 21 44 4q23 -20 4 -44l-79 -95q-99 -121 -170 -147q-57 -15 -90 14q-33 27 -41 79q-15 57 -6.5 144.5t33.5 181.5l93 349q-547 -675 -589 -715q-42 -151 -88 -280t-93 -209q-85 -142 -174 -162q-39 -7 -75 13q-30 19 -46 56 q-37 103 27 239q34 69 103 131.5t149 125.5q36 30 72 59t71 61q37 133 135 544v1q-440 -539 -482 -579q-42 -151 -88 -280t-93 -209q-85 -142 -174 -162q-39 -7 -75 13q-30 19 -46 56q-37 103 27 239q34 69 103 131.5t149 125.5q36 30 72 59t71 61q37 133 135 544v1 l-386 -485q-20 -27 -42 -6q-26 19 -5 43zM299 -331q-60 -113 -25 -187q4 -17 20 -29q13 -7 29 -5q64 13 135 133q37 65 74.5 165t73.5 220q-19 -15 -37.5 -30t-35.5 -31q-77 -60 -141 -117.5t-93 -118.5zM-102 -331q-60 -113 -25 -187q4 -17 20 -29q13 -7 29 -5 q64 13 135 133q37 65 74.5 165t73.5 220q-19 -15 -37.5 -30t-35.5 -31q-77 -60 -141 -117.5t-93 -118.5zM607 1179q-55 -166 -82 -248q11 12 40 54q115 153 195 292q58 100 58 144q0 8 -4 12q0 1 -1 2l-1 2q-8 4 -19 4q-53 0 -79 -29q-31 -35 -107 -233zM1008 1179 q-55 -166 -82 -248q11 12 40 54q115 153 195 292q58 100 58 144q0 8 -4 12q0 1 -1 2l-1 2q-8 4 -19 4q-53 0 -79 -29q-31 -35 -107 -233zM1478 1309l-75 -279q-9 -29 -38 -21q-31 9 -22 38l76 276q8 29 38 23q31 -8 21 -37z" />
<glyph unicode="&#xeba8;" horiz-adv-x="1502" d="M-62 170q462 596 486 626q33 121 71.5 243t87.5 248t88 167q42 48 122 48q32 0 50 -11q20 -15 27 -31q9 -13 9 -39q0 -64 -65 -175q-47 -78 -96 -151t-103 -148q-33 -44 -66.5 -89t-70.5 -92q-12 -41 -155 -604q6 6 11.5 13.5t237 300.5t253.5 320q33 121 71.5 243 t87.5 248t88 167q42 48 122 48q32 0 50 -11q20 -15 27 -31q9 -13 9 -39q0 -64 -65 -175q-47 -78 -96 -151t-103 -148q-33 -44 -66.5 -89t-70.5 -92q-12 -41 -155 -604q6 6 11.5 13.5t500.5 620.5q33 121 71.5 243t86.5 247q50 127 89 168q42 48 122 48q32 0 50 -11 q20 -15 27 -31q9 -13 9 -39q0 -64 -65 -175q-47 -78 -96 -151t-103 -148q-33 -44 -66.5 -89t-70.5 -92q-12 -41 -22.5 -80t-21.5 -79q-19 -65 -37 -128l-36 -126q-53 -179 -18 -272q15 -36 39 -46q25 -12 65 0q109 38 247 231q19 23 43 6q27 -17 7 -41q-147 -210 -279 -253 q-63 -18 -108 2q-50 23 -70 78q-42 111 16 314q18 63 35.5 125.5t35.5 125.5l6 17l-6 -6q-452 -554 -495 -595q-42 -151 -88 -280t-93 -209q-85 -142 -174 -162q-39 -7 -75 13q-30 19 -46 56q-37 103 27 239q34 69 103 131.5t149 125.5q36 30 72 59t71 61q37 133 135 544v1 q-440 -539 -482 -579q-42 -151 -88 -280t-93 -209q-85 -142 -174 -162q-39 -7 -75 13q-30 19 -46 56q-37 103 27 239q34 69 103 131.5t149 125.5q36 30 72 59t71 61q37 133 135 544v1l-386 -485q-20 -27 -42 -6q-26 19 -5 43zM299 -331q-60 -113 -25 -187q4 -17 20 -29 q13 -7 29 -5q64 13 135 133q37 65 74.5 165t73.5 220q-19 -15 -37.5 -30t-35.5 -31q-77 -60 -141 -117.5t-93 -118.5zM-102 -331q-60 -113 -25 -187q4 -17 20 -29q13 -7 29 -5q64 13 135 133q37 65 74.5 165t73.5 220q-19 -15 -37.5 -30t-35.5 -31q-77 -60 -141 -117.5 t-93 -118.5zM1452 1265q-33 -86 -60.5 -169t-54.5 -165q11 12 40 54q115 153 195 292q58 100 58 144q0 8 -4 12q0 1 -1 2l-1 2q-8 4 -19 4q-53 0 -79 -29q-31 -35 -74 -147zM607 1179q-55 -166 -82 -248q11 12 40 54q115 153 195 292q58 100 58 144q0 8 -4 12q0 1 -1 2l-1 2 q-8 4 -19 4q-53 0 -79 -29q-31 -35 -107 -233zM1008 1179q-55 -166 -82 -248q11 12 40 54q115 153 195 292q58 100 58 144q0 8 -4 12q0 1 -1 2l-1 2q-8 4 -19 4q-53 0 -79 -29q-31 -35 -107 -233z" />
<glyph unicode="&#xeec4;" horiz-adv-x="2310" d="M-68 170q520 710 673 719q56 24 104 27q82 9 145 -23q67 -37 98 -110q15 -50 18 -81q3 -30 -27 -33q-30 -4 -33 27q-4 34 -16 64q-24 56 -69 77q-47 25 -110 19q-48 -7 -87 -23q-126 -52 -227 -176t-126 -252h-3q0 -5 -1 -10t-1 -11q-19 -121 50 -222q67 -101 187 -129 q4 0 9 -1t10 -1q91 -13 212 31q119 47 168 110l39 53q7 9 15 11q406 511 435 549q35 120 76 244.5t92 256.5q46 125 87 168q42 48 123 48q31 0 50 -11q18 -13 27 -31q8 -14 8 -39q0 -64 -65 -175q-45 -78 -94.5 -151t-102.5 -148q-71 -95 -145 -191q-24 -80 -46 -158.5 t-42 -157.5q3 8 7.5 15.5t7.5 13.5q102 220 222 329q79 69 169 87q81 15 149 -17q69 -34 104 -102q38 -67 33 -159q-7 -130 -143 -202q-78 -44 -191 -58q36 -35 59.5 -83t44.5 -96q16 -38 32.5 -70.5t35.5 -49.5q28 -25 78.5 -2.5t145.5 128.5q71 92 73 94q21 23 44 2 q23 -20 2 -42q-67 -87 -73 -95q-119 -132 -191 -152.5t-118 21.5q-29 23 -48 61t-37 82q-29 66 -66 126t-107 63h-27q-28 -4 -31 27q-4 30 27 34q12 2 37 2q173 5 281 62q104 53 112 152q3 76 -25 128q-29 51 -79 73q-48 24 -112 15q-76 -19 -137 -75q-111 -99 -210 -310 q-47 -98 -90.5 -212.5t-83.5 -236.5q-7 -21 -30 -21q-6 -2 -16 -2q-28 7 -23 36q15 57 31 121t33 128q24 93 47.5 187t50.5 187l-396 -496q-5 -7 -10 -11q-63 -71 -186 -116q-136 -48 -241 -36q-18 4 -23 4q-144 31 -227 155q-77 119 -58 266q0 6 4 22l3 15l-238 -299 q-20 -27 -42 -6q-26 19 -5 43zM1501 922q24 31 45 63q112 153 196 292q56 99 56 144q0 4 -1 7t-1 5q-6 4 -5 4q-8 4 -18 4q-54 0 -77 -29q-33 -33 -77 -147q-67 -180 -118 -343z" />
<glyph unicode="&#xeec9;" horiz-adv-x="1002" d="M213 523q51 193 119 384t162 379q63 126 116 170q57 48 139 42q36 -7 46 -13q47 -25 54 -85q6 -53 -12 -112q-28 -97 -86 -175l-481 -617q-30 -111 -57 -221.5t-51 -220.5q21 -15 39 -19q44 -10 96 9q84 29 756 862q17 24 43 6q17 -13 11 -33q-15 -55 -32 -126.5 t-35 -150.5q-25 -105 -51.5 -217.5t-56.5 -222.5q6 6 11.5 13.5t11.5 13.5l60 77q20 25 44 6q23 -18 4 -44l-60 -76q-43 -55 -104 -113q-42 -151 -88 -280t-93 -209q-85 -142 -174 -162q-39 -7 -75 13q-30 19 -46 56q-37 103 27 239q34 69 103 131.5t149 125.5q36 30 72 59 t71 61q37 133 71 274.5t64 269.5q9 34 17 68t16 67q-605 -734 -696 -766q-70 -23 -133 -8q-18 3 -35 15l-19 -83q-27 -125 -54 -247t-58 -242q-8 -31 -37 -22q-31 8 -23 37q31 120 58 241.5t54 244.5q6 28 12.5 57t12.5 56l-10 15q-40 54 -42 141q0 31 29 31q31 0 31 -29 q2 -34 13 -68q14 62 28 125t30 126l-189 -243q-18 -26 -44 -6q-11 8 -10 27q0 9 6 18zM704 1153q51 65 74 151q13 52 11 88q-4 29 -23 39q-5 2 -21 6q-58 3 -95 -27q-49 -42 -102 -151q-74 -150 -131.5 -301.5t-103.5 -305.5zM507 -331q-60 -113 -25 -187q4 -17 20 -29 q13 -7 29 -5q64 13 135 133q37 65 74.5 165t73.5 220q-19 -15 -37.5 -30t-35.5 -31q-77 -60 -141 -117.5t-93 -118.5zM1211 1296l-75 -276q-8 -31 -37 -23q-31 10 -23 39l77 277q7 28 37 20q31 -8 21 -37z" />
<glyph unicode="&#xeecb;" horiz-adv-x="1226" d="M740 939h218q0 3 1 6t1 6l119 524q7 28 37 25q29 -9 23 -38l-118 -523h191q31 0 31 -31t-31 -31h-206l-116 -514q-45 -200 -13 -288q13 -36 38 -44q25 -10 64 6q109 41 251 229q18 23 44 6q22 -18 6 -44q-155 -200 -278 -246q-60 -23 -108 -8q-50 19 -75 80 q-38 108 13 324l62 274q-60 -102 -273 -368t-304 -298q-70 -23 -133 -8q-18 3 -35 15l-19 -83q-27 -125 -54 -247t-58 -242q-8 -31 -37 -22q-31 8 -23 37q31 120 58 241.5t54 244.5q6 28 12.5 57t12.5 56l-10 15q-40 54 -42 141q0 31 29 31q31 0 31 -29q2 -34 13 -68 q14 62 28 125t30 126l-189 -243q-18 -26 -44 -6q-11 8 -10 27q0 9 6 18l276 351q51 193 119 384t162 379q63 126 116 170q57 48 139 42q36 -7 46 -13q47 -25 54 -85q6 -53 -12 -112q-28 -97 -86 -175l-481 -617q-30 -111 -57 -221.5t-51 -220.5q21 -15 39 -19q44 -10 96 9 q84 29 291 293t266 369q48 81 84 171h-198q-29 0 -29 31t29 31zM704 1153q51 65 74 151q13 52 11 88q-4 29 -23 39q-5 2 -21 6q-58 3 -95 -27q-49 -42 -102 -151q-74 -150 -131.5 -301.5t-103.5 -305.5z" />
<glyph unicode="&#xeece;" horiz-adv-x="1763" d="M750 523q51 193 119 384t162 379q63 126 116 170q57 48 139 42q36 -7 46 -13q47 -25 54 -85q6 -53 -12 -112q-28 -97 -86 -175l-481 -617q-30 -111 -57 -221.5t-51 -220.5q21 -15 39 -19q44 -10 96 9q84 29 291 293t266 369q48 81 84 171h-198q-29 0 -29 31t29 31h218 q0 3 1 6t1 6l119 524q7 28 37 25q29 -9 23 -38l-118 -523h191q31 0 31 -31t-31 -31h-206l-116 -514q-45 -200 -13 -288q13 -36 38 -44q25 -10 64 6q109 41 251 229q18 23 44 6q22 -18 6 -44q-155 -200 -278 -246q-60 -23 -108 -8q-50 19 -75 80q-38 108 13 324l62 274 q-60 -102 -273 -368t-304 -298q-70 -23 -133 -8q-18 3 -35 15l-19 -83q-27 -125 -54 -247t-58 -242q-8 -31 -37 -22q-31 8 -23 37q31 120 58 241.5t54 244.5q6 28 12.5 57t12.5 56l-10 15q-40 54 -42 141q0 31 29 31q31 0 31 -29q2 -34 13 -68q14 62 28 125t30 126 q-303 -358 -394 -390q-70 -23 -133 -8q-18 3 -35 15l-19 -83q-27 -125 -54 -247t-58 -242q-8 -31 -37 -22q-31 8 -23 37q31 120 58 241.5t54 244.5q6 28 12.5 57t12.5 56l-10 15q-40 54 -42 141q0 31 29 31q31 0 31 -29q2 -34 13 -68q14 62 28 125t30 126l-189 -243 q-18 -26 -44 -6q-11 8 -10 27q0 9 6 18l276 351q51 193 119 384t162 379q63 126 116 170q57 48 139 42q36 -7 46 -13q47 -25 54 -85q6 -53 -12 -112q-28 -97 -86 -175l-481 -617q-30 -111 -57 -221.5t-51 -220.5q21 -15 39 -19q44 -10 96 9q84 29 453 479zM1241 1153 q51 65 74 151q13 52 11 88q-4 29 -23 39q-5 2 -21 6q-58 3 -95 -27q-49 -42 -102 -151q-74 -150 -131.5 -301.5t-103.5 -305.5zM704 1153q51 65 74 151q13 52 11 88q-4 29 -23 39q-5 2 -21 6q-58 3 -95 -27q-49 -42 -102 -151q-74 -150 -131.5 -301.5t-103.5 -305.5z" />
<glyph unicode="&#xeed9;" horiz-adv-x="1378" d="M892 939h218q0 3 1 6t1 6l119 524q7 28 37 25q29 -9 23 -38l-118 -523h191q31 0 31 -31t-31 -31h-206l-116 -514q-45 -200 -13 -288q13 -36 38 -44q25 -10 64 6q109 41 251 229q18 23 44 6q22 -18 6 -44q-155 -200 -278 -246q-60 -23 -108 -8q-50 19 -75 80 q-38 108 13 324l62 274q-60 -102 -120.5 -187t-218.5 -268.5t-242 -214.5q-60 -23 -108 -8q-50 19 -75 80q-38 108 13 324l62 274q-60 -102 -120.5 -187t-91.5 -122l-164 -210q-18 -26 -44 -6q-21 19 -4 43l164 210q31 39 96 130t124 196q48 81 84 171h-198q-29 0 -29 31 t29 31h218q0 3 1 6t1 6l119 524q7 28 37 25q29 -9 23 -38l-118 -523h191q31 0 31 -31t-31 -31h-206l-116 -514q-45 -200 -13 -288q13 -36 38 -44q25 -10 64 6q109 41 307 302.5t257 366.5q48 81 84 171h-198q-29 0 -29 31t29 31z" />
<glyph unicode="&#xeedc;" horiz-adv-x="1595" d="M203 939h218q0 3 121 536q7 28 37 25q29 -9 23 -38l-118 -523l768 -5q32 4 44.5 -14t-4.5 -55l-537 -755q128 41 165 46q140 18 243 -63q110 -84 206 -49h2q46 16 88.5 56t83.5 91l110 139q18 24 44 6q23 -20 4 -43l-110 -141q-45 -57 -94.5 -100.5t-104.5 -62.5 q0 -2 -2 -2l-1 -1q-130 -44 -263 60q-86 65 -198 50q-125 -20 -272 -122q-27 -15 -43 8q-15 23 6 41l611 848l-761 6l-116 -514q-45 -200 -13 -288q13 -36 38 -44q25 -10 64 6q109 41 251 229q18 23 44 6q22 -18 6 -44q-155 -200 -278 -246q-60 -23 -108 -8q-50 19 -75 80 q-38 108 13 324l62 274q-60 -102 -120.5 -187t-91.5 -122l-164 -210q-18 -26 -44 -6q-21 19 -4 43l164 210q31 39 96 130t129 188q59 86 79 179h-198q-29 0 -29 31t29 31z" />
<glyph unicode="&#xf1bb;" horiz-adv-x="2126" d="M1346 732l42 53q35 120 76 244.5t92 256.5q46 125 87 168q42 48 123 48q31 0 50 -11q18 -13 27 -31q8 -14 8 -39q0 -64 -65 -175q-45 -78 -94.5 -151t-102.5 -148q-71 -95 -145 -191q-19 -61 -35.5 -121.5t-31.5 -119.5q26 59 56 108q73 131 161.5 213.5t198.5 94.5 q144 14 168 -142v-2q17 -122 -46 -355q-68 -262 -45 -363q5 -31 16 -36q6 -7 27 4q58 26 141 133l63 79q18 23 43 4q23 -19 4 -43l-62 -77q-95 -122 -166 -151q-46 -21 -81 0q-33 18 -46 74q-23 114 48 391q57 230 44 332v2q-17 95 -102 87q-93 -9 -170 -83.5t-144 -192.5 q-69 -122 -129 -279t-116 -322q-8 -30 -37 -19q-26 7 -21 36q15 57 32 120t32 127q24 93 47 187q23 93 50 185q-452 -572 -584 -621q-136 -48 -241 -36q-18 4 -23 4q-144 31 -227 155q-77 119 -58 266q0 6 4 22l3 15l-238 -299q-20 -27 -42 -6q-26 19 -5 43q520 710 673 719 q56 24 104 27q82 9 145 -23q67 -37 98 -110q15 -50 18 -81q3 -30 -27 -33q-30 -4 -33 27q-4 34 -16 64q-24 56 -69 77q-47 25 -110 19q-48 -7 -87 -23q-126 -52 -227 -176t-126 -252h-3q0 -5 -1 -10t-1 -11q-19 -121 50 -222q67 -101 187 -129q4 0 9 -1t10 -1q91 -13 212 31 q108 42 608 670zM1494 922q24 31 45 63q112 153 196 292q56 99 56 144q0 10 -2 12q-6 4 -5 4q-8 4 -18 4q-54 0 -77 -29q-33 -33 -77 -147q-67 -180 -118 -343z" />
<glyph unicode="&#xf4fa;" horiz-adv-x="2527" d="M1747 732l42 53q35 120 76 244.5t92 256.5q46 125 87 168q42 48 123 48q31 0 50 -11q18 -13 27 -31q8 -14 8 -39q0 -64 -65 -175q-45 -78 -94.5 -151t-102.5 -148q-71 -95 -145 -191q-19 -61 -35.5 -121.5t-31.5 -119.5q26 59 56 108q73 131 161.5 213.5t198.5 94.5 q144 14 168 -142v-2q17 -122 -46 -355q-68 -262 -45 -363q5 -31 16 -36q6 -7 27 4q58 26 141 133l63 79q18 23 43 4q23 -19 4 -43l-62 -77q-95 -122 -166 -151q-46 -21 -81 0q-33 18 -46 74q-23 114 48 391q57 230 44 332v2q-17 95 -102 87q-93 -9 -170 -83.5t-144 -192.5 q-69 -122 -129 -279t-116 -322q-8 -30 -37 -19q-26 7 -21 36q15 57 32 120t32 127q24 93 47 187q23 93 50 185q-452 -572 -584 -621q-136 -48 -241 -36q-18 4 -23 4q-144 31 -227 155q-77 119 -58 266q0 6 4 22l3 15l-328 -393q-42 -151 -88 -280t-93 -209 q-85 -142 -174 -162q-39 -7 -75 13q-30 19 -46 56q-37 103 27 239q34 69 103 131.5t149 125.5q36 30 72 59t71 61q37 133 135 544v1l-386 -485q-20 -27 -42 -6q-26 19 -5 43q462 596 486 626q33 121 71.5 243t87.5 248t88 167q42 48 122 48q32 0 50 -11q20 -15 27 -31 q9 -13 9 -39q0 -64 -65 -175q-47 -78 -96 -151t-103 -148q-33 -44 -66.5 -89t-70.5 -92q-12 -41 -155 -604q6 6 270.5 362t412.5 365q56 24 104 27q82 9 145 -23q67 -37 98 -110q15 -50 18 -81q3 -30 -27 -33q-30 -4 -33 27q-4 34 -16 64q-24 56 -69 77q-47 25 -110 19 q-48 -7 -87 -23q-126 -52 -227 -176t-126 -252h-3q0 -5 -1 -10t-1 -11q-19 -121 50 -222q67 -101 187 -129q4 0 9 -1t10 -1q91 -13 212 31q108 42 608 670zM-102 -331q-60 -113 -25 -187q4 -17 20 -29q13 -7 29 -5q64 13 135 133q37 65 74.5 165t73.5 220q-19 -15 -37.5 -30 t-35.5 -31q-77 -60 -141 -117.5t-93 -118.5zM1895 922q24 31 45 63q112 153 196 292q56 99 56 144q0 10 -2 12q-6 4 -5 4q-8 4 -18 4q-54 0 -77 -29q-33 -33 -77 -147q-67 -180 -118 -343zM607 1179q-55 -166 -82 -248q11 12 40 54q115 153 195 292q58 100 58 144q0 8 -4 12 q0 1 -1 2l-1 2q-8 4 -19 4q-53 0 -79 -29q-31 -35 -107 -233z" />
<glyph unicode="&#xf4fb;" horiz-adv-x="866" d="M-62 170q462 596 486 626q33 121 71.5 243t87.5 248t88 167q42 48 122 48q32 0 50 -11q20 -15 27 -31q9 -13 9 -39q0 -64 -65 -175q-47 -78 -96 -151t-103 -148q-33 -44 -66.5 -89t-70.5 -92q-12 -41 -155 -604q6 6 594 744q17 24 43 6q17 -13 11 -33q-15 -55 -32 -126.5 t-35 -150.5q-25 -105 -51.5 -217.5t-56.5 -222.5q6 6 11.5 13.5t11.5 13.5l60 77q20 25 44 6q23 -18 4 -44l-60 -76q-43 -55 -104 -113q-42 -151 -88 -280t-93 -209q-85 -142 -174 -162q-39 -7 -75 13q-30 19 -46 56q-37 103 27 239q34 69 103 131.5t149 125.5q36 30 72 59 t71 61q37 133 71 274.5t64 269.5q9 34 17 68t16 67q-545 -673 -587 -713q-42 -151 -88 -280t-93 -209q-85 -142 -174 -162q-39 -7 -75 13q-30 19 -46 56q-37 103 27 239q34 69 103 131.5t149 125.5q36 30 72 59t71 61q37 133 135 544v1l-386 -485q-20 -27 -42 -6 q-26 19 -5 43zM371 -331q-60 -113 -25 -187q4 -17 20 -29q13 -7 29 -5q64 13 135 133q37 65 74.5 165t73.5 220q-19 -15 -37.5 -30t-35.5 -31q-77 -60 -141 -117.5t-93 -118.5zM-102 -331q-60 -113 -25 -187q4 -17 20 -29q13 -7 29 -5q64 13 135 133q37 65 74.5 165 t73.5 220q-19 -15 -37.5 -30t-35.5 -31q-77 -60 -141 -117.5t-93 -118.5zM607 1179q-55 -166 -82 -248q11 12 40 54q115 153 195 292q58 100 58 144q0 8 -4 12q0 1 -1 2l-1 2q-8 4 -19 4q-53 0 -79 -29q-31 -35 -107 -233zM1075 1296l-75 -276q-8 -31 -37 -23q-31 10 -23 39 l77 277q7 28 37 20q31 -8 21 -37z" />
<glyph unicode="&#xf4fc;" horiz-adv-x="1611" d="M-62 170q462 596 486 626q33 121 71.5 243t87.5 248t88 167q42 48 122 48q32 0 50 -11q20 -15 27 -31q9 -13 9 -39q0 -64 -65 -175q-47 -78 -96 -151t-103 -148q-33 -44 -66.5 -89t-70.5 -92q-12 -41 -155 -604q6 6 11.5 13.5t233.5 290.5t256 319q35 120 76 244.5 t92 256.5q46 125 87 168q42 48 123 48q31 0 50 -11q18 -13 27 -31q8 -14 8 -39q0 -64 -65 -175q-45 -78 -94.5 -151t-102.5 -148q-71 -95 -145 -191q-24 -80 -46 -158.5t-42 -157.5q3 8 7.5 15.5t7.5 13.5q102 220 222 329q79 69 169 87q81 15 149 -17q69 -34 104 -102 q38 -67 33 -159q-7 -130 -143 -202q-78 -44 -191 -58q36 -35 59.5 -83t44.5 -96q16 -38 32.5 -70.5t35.5 -49.5q28 -25 78.5 -2.5t145.5 128.5q71 92 73 94q21 23 44 2q23 -20 2 -42q-67 -87 -73 -95q-119 -132 -191 -152.5t-118 21.5q-29 23 -48 61t-37 82q-29 66 -66 126 t-107 63h-27q-28 -4 -31 27q-4 30 27 34q12 2 37 2q173 5 281 62q104 53 112 152q3 76 -25 128q-29 51 -79 73q-48 24 -112 15q-76 -19 -137 -75q-111 -99 -210 -310q-47 -98 -90.5 -212.5t-83.5 -236.5q-7 -21 -30 -21q-6 -2 -16 -2q-28 7 -23 36q15 57 31 121t33 128 q24 93 47.5 187t50.5 187q-447 -550 -490 -590q-42 -151 -88 -280t-93 -209q-85 -142 -174 -162q-39 -7 -75 13q-30 19 -46 56q-37 103 27 239q34 69 103 131.5t149 125.5q36 30 72 59t71 61q37 133 135 544v1l-386 -485q-20 -27 -42 -6q-26 19 -5 43zM-102 -331 q-60 -113 -25 -187q4 -17 20 -29q13 -7 29 -5q64 13 135 133q37 65 74.5 165t73.5 220q-19 -15 -37.5 -30t-35.5 -31q-77 -60 -141 -117.5t-93 -118.5zM930 922q24 31 45 63q112 153 196 292q56 99 56 144q0 4 -1 7t-1 5q-6 4 -5 4q-8 4 -18 4q-54 0 -77 -29 q-33 -33 -77 -147q-67 -180 -118 -343zM607 1179q-55 -166 -82 -248q11 12 40 54q115 153 195 292q58 100 58 144q0 8 -4 12q0 1 -1 2l-1 2q-8 4 -19 4q-53 0 -79 -29q-31 -35 -107 -233z" />
<glyph unicode="&#xf4fd;" horiz-adv-x="1242" d="M248 -112q-92 -258 -139 -338q-85 -142 -174 -162q-39 -7 -75 13q-30 19 -46 56q-37 103 27 239q34 69 103 131.5t149 125.5q36 30 72 59t71 61q37 133 135 544v1l-386 -485q-20 -27 -42 -6q-26 19 -5 43q462 596 486 626q33 121 71.5 243t87.5 248t88 167q42 48 122 48 q32 0 50 -11q20 -15 27 -31q9 -13 9 -39q0 -64 -65 -175q-47 -78 -96 -151t-103 -148q-33 -44 -66.5 -89t-70.5 -92q-12 -41 -155 -604l580 728q8 13 28 13q12 0 18 -5.5t8 -13.5q37 -174 112.5 -255.5t138.5 -219.5q37 -77 37 -149q2 -88 -41 -154q-43 -65 -121 -104 q-72 -29 -152 -32q-108 -3 -195 45q-80 47 -114 141q-5 29 21 39q29 8 37 -18q26 -72 87 -108q69 -42 164 -38q64 0 127 27q63 30 94 81q33 47 33 121q-3 53 -31 124q-57 121 -127.5 199.5t-103.5 230.5q-636 -748 -675 -926zM-102 -331q-60 -113 -25 -187q4 -17 20 -29 q13 -7 29 -5q64 13 135 133q37 65 74.5 165t73.5 220q-19 -15 -37.5 -30t-35.5 -31q-77 -60 -141 -117.5t-93 -118.5zM607 1179q-55 -166 -82 -248q11 12 40 54q115 153 195 292q58 100 58 144q0 8 -4 12q0 1 -1 2l-1 2q-8 4 -19 4q-53 0 -79 -29q-31 -35 -107 -233z" />
<glyph unicode="&#xf4fe;" horiz-adv-x="2012" d="M-62 170q462 596 486 626q33 121 71.5 243t87.5 248t88 167q42 48 122 48q32 0 50 -11q20 -15 27 -31q9 -13 9 -39q0 -64 -65 -175q-47 -78 -96 -151t-103 -148q-33 -44 -66.5 -89t-70.5 -92q-12 -41 -155 -604q6 6 243 306.5t259 327.5q33 121 71.5 243t87.5 248t88 167 q42 48 122 48q32 0 50 -11q20 -15 27 -31q9 -13 9 -39q0 -64 -65 -175q-47 -78 -96 -151t-103 -148q-33 -44 -66.5 -89t-70.5 -92q-12 -41 -155 -604q6 6 239.5 296.5t261.5 326.5q35 120 76 244.5t92 256.5q46 125 87 168q42 48 123 48q31 0 50 -11q18 -13 27 -31 q8 -14 8 -39q0 -64 -65 -175q-45 -78 -94.5 -151t-102.5 -148q-71 -95 -145 -191q-24 -80 -46 -158.5t-42 -157.5q3 8 7.5 15.5t7.5 13.5q102 220 222 329q79 69 169 87q81 15 149 -17q69 -34 104 -102q38 -67 33 -159q-7 -130 -143 -202q-78 -44 -191 -58q36 -35 59.5 -83 t44.5 -96q16 -38 32.5 -70.5t35.5 -49.5q28 -25 78.5 -2.5t145.5 128.5q71 92 73 94q21 23 44 2q23 -20 2 -42q-67 -87 -73 -95q-119 -132 -191 -152.5t-118 21.5q-29 23 -48 61t-37 82q-29 66 -66 126t-107 63h-27q-28 -4 -31 27q-4 30 27 34q12 2 37 2q173 5 281 62 q104 53 112 152q3 76 -25 128q-29 51 -79 73q-48 24 -112 15q-76 -19 -137 -75q-111 -99 -210 -310q-47 -98 -90.5 -212.5t-83.5 -236.5q-7 -21 -30 -21q-6 -2 -16 -2q-28 7 -23 36q15 57 75 293.5t87 329.5q-447 -550 -490 -590q-42 -151 -88 -280t-93 -209 q-85 -142 -174 -162q-39 -7 -75 13q-30 19 -46 56q-37 103 27 239q34 69 103 131.5t149 125.5q36 30 72 59t71 61q37 133 135 544v1q-440 -539 -482 -579q-42 -151 -88 -280t-93 -209q-85 -142 -174 -162q-39 -7 -75 13q-30 19 -46 56q-37 103 27 239q34 69 103 131.5 t149 125.5q36 30 72 59t71 61q37 133 135 544v1l-386 -485q-20 -27 -42 -6q-26 19 -5 43zM299 -331q-60 -113 -25 -187q4 -17 20 -29q13 -7 29 -5q64 13 135 133q37 65 74.5 165t73.5 220q-19 -15 -37.5 -30t-35.5 -31q-77 -60 -141 -117.5t-93 -118.5zM-102 -331 q-60 -113 -25 -187q4 -17 20 -29q13 -7 29 -5q64 13 135 133q37 65 74.5 165t73.5 220q-19 -15 -37.5 -30t-35.5 -31q-77 -60 -141 -117.5t-93 -118.5zM1331 922q24 31 45 63q112 153 196 292q56 99 56 144q0 4 -1 7t-1 5q-6 4 -5 4q-8 4 -18 4q-54 0 -77 -29 q-33 -33 -77 -147q-67 -180 -118 -343zM607 1179q-55 -166 -82 -248q11 12 40 54q115 153 195 292q58 100 58 144q0 8 -4 12q0 1 -1 2l-1 2q-8 4 -19 4q-53 0 -79 -29q-31 -35 -107 -233zM1008 1179q-55 -166 -82 -248q11 12 40 54q115 153 195 292q58 100 58 144q0 8 -4 12 q0 1 -1 2l-1 2q-8 4 -19 4q-53 0 -79 -29q-31 -35 -107 -233z" />
<glyph unicode="&#xf4ff;" horiz-adv-x="1491" d="M-62 170q462 596 486 626q33 121 71.5 243t87.5 248t88 167q42 48 122 48q32 0 50 -11q20 -15 27 -31q9 -13 9 -39q0 -64 -65 -175q-47 -78 -96 -151t-103 -148q-33 -44 -66.5 -89t-70.5 -92q-12 -41 -155 -604q6 6 11.5 13.5t11.5 13.5q457 580 479 607q33 121 71.5 243 t87.5 248t88 167q42 48 122 48q32 0 50 -11q20 -15 27 -31q9 -13 9 -39q0 -64 -65 -175q-47 -78 -96 -151t-103 -148l-6 -8h213q0 3 1 6t1 6l119 524q7 28 37 25q29 -9 23 -38l-118 -523h191q31 0 31 -31t-31 -31h-206l-116 -514q-45 -200 -13 -288q13 -36 38 -44 q25 -10 64 6q109 41 251 229q18 23 44 6q22 -18 6 -44q-155 -200 -278 -246q-60 -23 -108 -8q-50 19 -75 80q-38 108 13 324l62 274q-60 -102 -242 -337t-226 -276q-42 -151 -88 -280t-93 -209q-85 -142 -174 -162q-39 -7 -75 13q-30 19 -46 56q-37 103 27 239 q34 69 103 131.5t149 125.5q36 30 72 59t71 61q37 133 135 544v1q-440 -539 -482 -579q-42 -151 -88 -280t-93 -209q-85 -142 -174 -162q-39 -7 -75 13q-30 19 -46 56q-37 103 27 239q34 69 103 131.5t149 125.5q36 30 72 59t71 61q37 133 135 544v1l-386 -485 q-20 -27 -42 -6q-26 19 -5 43zM949 858q-33 -45 -70 -92q-12 -41 -155 -604q6 6 11.5 13.5t11.5 13.5q313 412 372 517q48 81 84 171h-198q-23 0 -28 18q-14 -18 -28 -37zM299 -331q-60 -113 -25 -187q4 -17 20 -29q13 -7 29 -5q64 13 135 133q37 65 74.5 165t73.5 220 q-19 -15 -37.5 -30t-35.5 -31q-77 -60 -141 -117.5t-93 -118.5zM-102 -331q-60 -113 -25 -187q4 -17 20 -29q13 -7 29 -5q64 13 135 133q37 65 74.5 165t73.5 220q-19 -15 -37.5 -30t-35.5 -31q-77 -60 -141 -117.5t-93 -118.5zM607 1179q-55 -166 -82 -248q11 12 40 54 q115 153 195 292q58 100 58 144q0 8 -4 12q0 1 -1 2l-1 2q-8 4 -19 4q-53 0 -79 -29q-31 -35 -107 -233zM1008 1179q-55 -166 -82 -248q11 12 40 54q115 153 195 292q58 100 58 144q0 8 -4 12q0 1 -1 2l-1 2q-8 4 -19 4q-53 0 -79 -29q-31 -35 -107 -233z" />
<glyph unicode="&#xf6c0;" horiz-adv-x="1400" d="M-65 170l499 626q33 121 71.5 243t86.5 247q50 127 89 168q42 48 122 48q32 0 50 -11q20 -15 27 -31q9 -13 9 -39q0 -64 -65 -175q-47 -78 -96 -151t-103 -148q-33 -44 -66.5 -89t-70.5 -92q-12 -41 -22.5 -80t-21.5 -79q-19 -65 -37 -128l-36 -126q-53 -179 -18 -272 q15 -36 39 -46q25 -12 65 0q109 38 677 761q33 121 71.5 243t86.5 247q50 127 89 168q42 48 122 48q32 0 50 -11q20 -15 27 -31q9 -13 9 -39q0 -64 -65 -175q-47 -78 -96 -151t-103 -148q-33 -44 -66.5 -89t-70.5 -92q-12 -41 -22.5 -80t-21.5 -79q-19 -65 -37 -128 l-36 -126q-53 -179 -18 -272q15 -36 39 -46q25 -12 65 0q109 38 247 231q19 23 43 6q27 -17 7 -41q-147 -210 -279 -253q-63 -18 -108 2q-50 23 -70 78q-42 111 16 314q18 63 35.5 125.5t35.5 125.5l6 17l-6 -6q-517 -626 -609 -656q-63 -18 -108 2q-50 23 -70 78 q-42 111 16 314q18 63 35.5 125.5t35.5 125.5l6 17l-6 -6l-402 -501q-20 -27 -42 -6q-26 19 -5 43zM1350 1265q-33 -86 -60.5 -169t-54.5 -165q11 12 40 54q115 153 195 292q58 100 58 144q0 8 -4 12q0 1 -1 2l-1 2q-8 4 -19 4q-53 0 -79 -29q-31 -35 -74 -147zM650 1265 q-33 -86 -60.5 -169t-54.5 -165q11 12 40 54q115 153 195 292q58 100 58 144q0 8 -4 12q0 1 -1 2l-1 2q-8 4 -19 4q-53 0 -79 -29q-31 -35 -74 -147z" />
<glyph unicode="&#xfb00;" horiz-adv-x="1074" d="M750 523q51 193 119 384t162 379q63 126 116 170q57 48 139 42q36 -7 46 -13q47 -25 54 -85q6 -53 -12 -112q-28 -97 -86 -175l-481 -617q-30 -111 -57 -221.5t-51 -220.5q21 -15 39 -19q44 -10 96 9q84 29 166 126l81 98q19 23 43 4q22 -21 5 -44l-81 -97 q-97 -111 -194 -145q-70 -23 -133 -8q-18 3 -35 15l-19 -83q-27 -125 -54 -247t-58 -242q-8 -31 -37 -22q-31 8 -23 37q31 120 58 241.5t54 244.5q6 28 12.5 57t12.5 56l-10 15q-40 54 -42 141q0 31 29 31q31 0 31 -29q2 -34 13 -68q14 62 28 125t30 126 q-303 -358 -394 -390q-70 -23 -133 -8q-18 3 -35 15l-19 -83q-27 -125 -54 -247t-58 -242q-8 -31 -37 -22q-31 8 -23 37q31 120 58 241.5t54 244.5q6 28 12.5 57t12.5 56l-10 15q-40 54 -42 141q0 31 29 31q31 0 31 -29q2 -34 13 -68q14 62 28 125t30 126l-189 -243 q-18 -26 -44 -6q-11 8 -10 27q0 9 6 18l276 351q51 193 119 384t162 379q63 126 116 170q57 48 139 42q36 -7 46 -13q47 -25 54 -85q6 -53 -12 -112q-28 -97 -86 -175l-481 -617q-30 -111 -57 -221.5t-51 -220.5q21 -15 39 -19q44 -10 96 9q84 29 453 479zM1241 1153 q51 65 74 151q13 52 11 88q-4 29 -23 39q-5 2 -21 6q-58 3 -95 -27q-49 -42 -102 -151q-74 -150 -131.5 -301.5t-103.5 -305.5zM704 1153q51 65 74 151q13 52 11 88q-4 29 -23 39q-5 2 -21 6q-58 3 -95 -27q-49 -42 -102 -151q-74 -150 -131.5 -301.5t-103.5 -305.5z" />
<glyph unicode="&#xfb01;" horiz-adv-x="1219" d="M213 523q51 193 119 384t162 379q63 126 116 170q57 48 139 42q36 -7 46 -13q47 -25 54 -85q6 -53 -12 -112q-28 -97 -86 -175l-481 -617q-30 -111 -57 -221.5t-51 -220.5q21 -15 39 -19q44 -10 96 9q84 29 762 862l8 8q10 7 23 4q8 -3 17 -12h2v-2q6 -12 4 -23 l-131 -493q-52 -194 -29 -297q10 -37 23 -45q12 -9 29 -2q52 18 143 126l79 98q17 21 44 4q23 -20 4 -44l-79 -95q-99 -121 -170 -147q-57 -15 -90 14q-33 27 -41 79q-15 57 -6.5 144.5t33.5 181.5l93 349q-607 -736 -698 -768q-70 -23 -133 -8q-18 3 -35 15l-19 -83 q-27 -125 -54 -247t-58 -242q-8 -31 -37 -22q-31 8 -23 37q31 120 58 241.5t54 244.5q6 28 12.5 57t12.5 56l-10 15q-40 54 -42 141q0 31 29 31q31 0 31 -29q2 -34 13 -68q14 62 28 125t30 126l-189 -243q-18 -26 -44 -6q-11 8 -10 27q0 9 6 18zM704 1153q51 65 74 151 q13 52 11 88q-4 29 -23 39q-5 2 -21 6q-58 3 -95 -27q-49 -42 -102 -151q-74 -150 -131.5 -301.5t-103.5 -305.5zM1213 1309l-75 -279q-9 -29 -38 -21q-31 9 -22 38l76 276q8 29 38 23q31 -8 21 -37z" />
<glyph unicode="&#xfb02;" horiz-adv-x="1237" d="M213 523q51 193 119 384t162 379q63 126 116 170q57 48 139 42q36 -7 46 -13q47 -25 54 -85q6 -53 -12 -112q-28 -97 -86 -175l-481 -617q-30 -111 -57 -221.5t-51 -220.5q21 -15 39 -19q44 -10 96 9q84 29 674 752q33 121 71.5 243t86.5 247q50 127 89 168q42 48 122 48 q32 0 50 -11q20 -15 27 -31q9 -13 9 -39q0 -64 -65 -175q-47 -78 -96 -151t-103 -148q-33 -44 -66.5 -89t-70.5 -92q-12 -41 -22.5 -80t-21.5 -79q-19 -65 -37 -128l-36 -126q-53 -179 -18 -272q15 -36 39 -46q25 -12 65 0q109 38 247 231q19 23 43 6q27 -17 7 -41 q-147 -210 -279 -253q-63 -18 -108 2q-50 23 -70 78q-42 111 16 314q18 63 35.5 125.5t35.5 125.5l6 17l-6 -6q-513 -616 -604 -648q-70 -23 -133 -8q-18 3 -35 15l-19 -83q-27 -125 -54 -247t-58 -242q-8 -31 -37 -22q-31 8 -23 37q31 120 58 241.5t54 244.5q6 28 12.5 57 t12.5 56l-10 15q-40 54 -42 141q0 31 29 31q31 0 31 -29q2 -34 13 -68q14 62 28 125t30 126l-189 -243q-18 -26 -44 -6q-11 8 -10 27q0 9 6 18zM704 1153q51 65 74 151q13 52 11 88q-4 29 -23 39q-5 2 -21 6q-58 3 -95 -27q-49 -42 -102 -151q-74 -150 -131.5 -301.5 t-103.5 -305.5zM1187 1265q-33 -86 -60.5 -169t-54.5 -165q11 12 40 54q115 153 195 292q58 100 58 144q0 8 -4 12q0 1 -1 2l-1 2q-8 4 -19 4q-53 0 -79 -29q-31 -35 -74 -147z" />
<glyph unicode="&#xfb03;" horiz-adv-x="1756" d="M750 523q51 193 119 384t162 379q63 126 116 170q57 48 139 42q36 -7 46 -13q47 -25 54 -85q6 -53 -12 -112q-28 -97 -86 -175l-481 -617q-30 -111 -57 -221.5t-51 -220.5q21 -15 39 -19q44 -10 96 9q84 29 762 862l8 8q10 7 23 4q8 -3 17 -12h2v-2q6 -12 4 -23 l-131 -493q-52 -194 -29 -297q10 -37 23 -45q12 -9 29 -2q52 18 143 126l79 98q17 21 44 4q23 -20 4 -44l-79 -95q-99 -121 -170 -147q-57 -15 -90 14q-33 27 -41 79q-15 57 -6.5 144.5t33.5 181.5l93 349q-607 -736 -698 -768q-70 -23 -133 -8q-18 3 -35 15l-19 -83 q-27 -125 -54 -247t-58 -242q-8 -31 -37 -22q-31 8 -23 37q31 120 58 241.5t54 244.5q6 28 12.5 57t12.5 56l-10 15q-40 54 -42 141q0 31 29 31q31 0 31 -29q2 -34 13 -68q14 62 28 125t30 126q-303 -358 -394 -390q-70 -23 -133 -8q-18 3 -35 15l-19 -83q-27 -125 -54 -247 t-58 -242q-8 -31 -37 -22q-31 8 -23 37q31 120 58 241.5t54 244.5q6 28 12.5 57t12.5 56l-10 15q-40 54 -42 141q0 31 29 31q31 0 31 -29q2 -34 13 -68q14 62 28 125t30 126l-189 -243q-18 -26 -44 -6q-11 8 -10 27q0 9 6 18l276 351q51 193 119 384t162 379q63 126 116 170 q57 48 139 42q36 -7 46 -13q47 -25 54 -85q6 -53 -12 -112q-28 -97 -86 -175l-481 -617q-30 -111 -57 -221.5t-51 -220.5q21 -15 39 -19q44 -10 96 9q84 29 453 479zM1241 1153q51 65 74 151q13 52 11 88q-4 29 -23 39q-5 2 -21 6q-58 3 -95 -27q-49 -42 -102 -151 q-74 -150 -131.5 -301.5t-103.5 -305.5zM704 1153q51 65 74 151q13 52 11 88q-4 29 -23 39q-5 2 -21 6q-58 3 -95 -27q-49 -42 -102 -151q-74 -150 -131.5 -301.5t-103.5 -305.5zM1750 1309l-75 -279q-9 -29 -38 -21q-31 9 -22 38l76 276q8 29 38 23q31 -8 21 -37z" />
<glyph unicode="&#xfb04;" horiz-adv-x="1774" d="M750 523q51 193 119 384t162 379q63 126 116 170q57 48 139 42q36 -7 46 -13q47 -25 54 -85q6 -53 -12 -112q-28 -97 -86 -175l-481 -617q-30 -111 -57 -221.5t-51 -220.5q21 -15 39 -19q44 -10 96 9q84 29 674 752q33 121 71.5 243t86.5 247q50 127 89 168q42 48 122 48 q32 0 50 -11q20 -15 27 -31q9 -13 9 -39q0 -64 -65 -175q-47 -78 -96 -151t-103 -148q-33 -44 -66.5 -89t-70.5 -92q-12 -41 -22.5 -80t-21.5 -79q-19 -65 -37 -128l-36 -126q-53 -179 -18 -272q15 -36 39 -46q25 -12 65 0q109 38 247 231q19 23 43 6q27 -17 7 -41 q-147 -210 -279 -253q-63 -18 -108 2q-50 23 -70 78q-42 111 16 314q18 63 35.5 125.5t35.5 125.5l6 17l-6 -6q-513 -616 -604 -648q-70 -23 -133 -8q-18 3 -35 15l-19 -83q-27 -125 -54 -247t-58 -242q-8 -31 -37 -22q-31 8 -23 37q31 120 58 241.5t54 244.5q6 28 12.5 57 t12.5 56l-10 15l-13 172q31 0 31 -29q2 -34 13 -68q14 62 28 125t30 126q-303 -358 -394 -390q-70 -23 -133 -8q-18 3 -35 15l-19 -83q-27 -125 -54 -247t-58 -242q-8 -31 -37 -22q-31 8 -23 37q31 120 58 241.5t54 244.5q6 28 12.5 57t12.5 56l-10 15q-40 54 -42 141 q0 31 29 31q31 0 31 -29q2 -34 13 -68q14 62 28 125t30 126l-189 -243q-18 -26 -44 -6q-11 8 -10 27q0 9 6 18l276 351q51 193 119 384t162 379q63 126 116 170q57 48 139 42q36 -7 46 -13q47 -25 54 -85q6 -53 -12 -112q-28 -97 -86 -175l-481 -617q-30 -111 -57 -221.5 t-51 -220.5q21 -15 39 -19q44 -10 96 9q84 29 453 479zM1241 1153q51 65 74 151q13 52 11 88q-4 29 -23 39q-5 2 -21 6q-58 3 -95 -27q-49 -42 -102 -151q-74 -150 -131.5 -301.5t-103.5 -305.5zM704 1153q51 65 74 151q13 52 11 88q-4 29 -23 39q-5 2 -21 6q-58 3 -95 -27 q-49 -42 -102 -151q-74 -150 -131.5 -301.5t-103.5 -305.5zM1724 1265q-33 -86 -60.5 -169t-54.5 -165q11 12 40 54q115 153 195 292q58 100 58 144q0 8 -4 12q0 1 -1 2l-1 2q-8 4 -19 4q-53 0 -79 -29q-31 -35 -74 -147z" />
<glyph unicode="&#xfb05;" horiz-adv-x="1090" d="M-62 170q462 596 486 626q33 121 71.5 243t87.5 248t88 167q42 48 122 48q32 0 50 -11q20 -15 27 -31q9 -13 9 -39q0 -64 -65 -175q-47 -78 -96 -151t-103 -148l-6 -8h213q0 3 1 6t1 6l119 524q7 28 37 25q29 -9 23 -38l-118 -523h191q31 0 31 -31t-31 -31h-206 l-116 -514q-45 -200 -13 -288q13 -36 38 -44q25 -10 64 6q109 41 251 229q18 23 44 6q22 -18 6 -44q-155 -200 -278 -246q-60 -23 -108 -8q-50 19 -75 80q-38 108 13 324l62 274q-60 -102 -120.5 -187t-182 -235t-165.5 -191q-42 -151 -88 -280t-93 -209q-85 -142 -174 -162 q-39 -7 -75 13q-30 19 -46 56q-37 103 27 239q34 69 103 131.5t149 125.5q36 30 72 59t71 61q37 133 135 544v1l-386 -485q-20 -27 -42 -6q-26 19 -5 43zM548 858q-33 -45 -70 -92q-12 -41 -155 -604q6 6 11.5 13.5t11.5 13.5q313 412 372 517q48 81 84 171h-198 q-23 0 -28 18q-14 -18 -28 -37zM-102 -331q-60 -113 -25 -187q4 -17 20 -29q13 -7 29 -5q64 13 135 133q37 65 74.5 165t73.5 220q-19 -15 -37.5 -30t-35.5 -31q-77 -60 -141 -117.5t-93 -118.5zM607 1179q-55 -166 -82 -248q11 12 40 54q115 153 195 292q58 100 58 144 q0 8 -4 12q0 1 -1 2l-1 2q-8 4 -19 4q-53 0 -79 -29q-31 -35 -107 -233z" />
<glyph horiz-adv-x="0" />
<glyph horiz-adv-x="606" d="M589 133q-63 -78 -195 -127q-136 -48 -241 -36q-18 4 -23 4q-144 31 -227 155q-77 119 -58 266q0 6 4 22q32 156 142 285q104 128 249 187q56 24 104 27q82 9 145 -23q67 -37 98 -110q16 -50 18 -79v-2q11 -116 -32 -190t-111 -111q-59 -29 -129 -35q-71 -5 -135 16 q-73 21 -133.5 71t-86.5 127q-51 -88 -68 -175h-3q0 -5 -1 -10t-1 -11q-19 -121 50 -222q67 -101 187 -129q4 0 9 -1t10 -1q91 -13 212 31q119 47 168 110l27 34q18 22 42 4q23 -19 6 -42zM24 646q12 -81 66 -133.5t125 -72.5q55 -15 114 -12q57 3 104 29q127 64 112 239 q-3 34 -16 64q-24 56 -69 77q-47 25 -110 19q-48 -7 -87 -23q-126 -52 -227 -170q2 3 -12 -17z" />
<glyph horiz-adv-x="486" d="M228 700q98 69 135.5 134.5t33.5 116.5q-6 52 -50 94q-48 38 -106 41q-121 7 -185 -110q-11 -29 -39 -14q-25 11 -15 41q43 82 109.5 115t133.5 29q84 -5 141 -57q64 -54 71 -135q6 -66 -37 -145t-156 -160q-99 -69 -139 -128.5t-40 -104.5q0 -38 25 -60q27 -23 64 -23 q94 3 152 110q14 27 42 13q26 -16 12 -42q-41 -75 -97 -108t-109 -33q-61 0 -105 38q-46 46 -46 108q1 55 47 128.5t158 151.5zM191 139l-27 -144q-4 -28 -35 -25q-30 4 -25 34l27 146q8 32 35 24q28 -4 25 -35z" />
<glyph horiz-adv-x="354" d="M-67 170l417 528q19 21 42 4q23 -18 6 -44l-418 -525q-20 -27 -42 -6q-26 19 -5 43z" />
<glyph horiz-adv-x="372" d="M-36 220q98 104 160.5 183.5t145.5 188.5l18 27q37 49 44 108q3 41 -8 71q-11 31 -36 49q-27 18 -60 21q-96 11 -170.5 -59t-118.5 -178q-38 -93 -47 -201q-8 -105 20 -197q17 -43 19 -46zM-113 139q-18 29 -33 75q-33 103 -23 220q11 125 52 220q50 124 140 205.5 t209 71.5h2q54 -8 90 -34q37 -28 58 -79q15 -46 10 -97q-10 -78 -56 -139l-19 -25q-83 -113 -145.5 -193t-163.5 -185l-44 -46q82 -102 185 -98q50 8 83.5 46t66.5 82l65 86q17 23 43 5q22 -20 5 -44q-10 -11 -11 -15q-93 -121 -137 -167t-115 -54q-131 -4 -228 113l-18 -17 q-22 -18 -44 0q-21 21 0 42z" />
</font>
</defs>
</svg>
